<?xml version="1.0" encoding="utf-8"?>
<!-- Generator: Adobe Illustrator 21.0.0, SVG Export Plug-In . SVG Version: 6.00 Build 0)  -->
<svg version="1.1" id="Layer_1" xmlns="http://www.w3.org/2000/svg" xmlns:xlink="http://www.w3.org/1999/xlink" x="0px" y="0px"
	 viewBox="0 0 1080 1080" style="enable-background:new 0 0 1080 1080;" xml:space="preserve">
<style type="text/css">
	.st0{fill:#FFFFFF;}
	.st1{font-family:'MonotypeCorsiva';}
	.st2{font-size:34.1607px;}
	.st3{font-size:16.7442px;}
	.st4{font-size:22.3257px;}
	.st5{font-size:17.0803px;}
</style>
<desc>Created with Fabric.js 5.2.4</desc>
<g id="_x39_e04039f-ea43-4998-93ae-dedea2e505f6" transform="matrix(1 0 0 1 540 540)">
</g>
<g id="_x37_ea6a7e5-3294-4341-b93d-e5cb160f77dc" transform="matrix(1 0 0 1 540 540)">
	<rect x="-540" y="-540" vector-effect="non-scaling-stroke" class="st0" width="1080" height="1080"/>
</g>
<g>
	<g transform="matrix(1 0 0 1 641.84 700.28)">
		<path vector-effect="non-scaling-stroke" d="M65.4,60c3.8,2.2,5.5,6.6,4.2,10.3c-0.8,2.1-2.5,2-4.1,1.8
			c-10.1-0.7-20.2-1.4-30.3-2.1c-4.8-0.4-7.7-3.5-10.5-7C13.8,49,4.2,34.2-3.9,18.5c-2.7-5.2-6.5-7.1-12.1-6.5
			c-2.9,0.3-4.1,1.4-4.2,4.3c-0.4,12.2,0.8,24.3,1,36.5c0,2.5,1.4,3.5,3.6,4.1c2.9,0.7,5.8,1.7,8.7,2.4c2.1,0.5,3,1.8,3.5,3.7
			c1.7,6.7,0.4,8.3-6.4,8.2c-17.7-0.2-35.3-0.9-52.9,0.6c-1.9,0.2-4.1,0.3-3.9-2.4c0.2-3-2.1-7,2.6-8.5c1.9-0.6,3.9-1.1,5.9-1
			c5.4,0.1,6.5-2.7,6.5-7.6c-0.2-31.5-0.1-63-0.1-94.5c0-2.9-0.6-5.6-1.1-8.4c-0.9-5-3.4-8-8.8-8.6c-2.5-0.3-5.7-0.1-6.8-3.3
			c-2.6-7.7-2.5-9.9,6.9-9.8c19.8,0.2,39.6,0.8,59.4,0.3c8.8-0.3,17.6,0.9,26.1,3.6c15.3,4.8,26.4,13.6,28.3,30.6
			C53.7-24.2,48.7-13.1,38.7-4c-5,4.5-11.1,7.3-16.8,11.1c6.2,8.6,12.1,16.8,18,25c4.1,5.7,8.1,11.4,12.2,17.1
			C55.5,53.8,59.9,57.3,65.4,60 M4.7-3.3C16.9-10,21.3-19.2,19.2-33.6C16.5-52.2,4.6-61.3-13.9-58.8c-3.4,0.5-6.2,1.5-6.2,5.7
			c0,16.3,0,32.6,0,49c0,2.4,1.1,3.8,3.6,3.8C-9.6-0.4-2.6,0.3,4.7-3.3z"/>
	</g>
	<g transform="matrix(1 0 0 1 327.83 699.84)">
		<path vector-effect="non-scaling-stroke" d="M47.9,43.9c4.6,7.8,10.3,13.9,18.5,17.3c3.8,1.6,4.1,3.5,2.9,10.4
			c-5.8,0-11.6,0.2-17.3,0c-5.8-0.2-11.6-0.8-17.4-1.1c-4.3-0.2-7-2.7-9.4-5.9C13.9,50.1,4.2,34.6-4.7,18.6c-1.4-2.5-2.6-5-5.8-5.8
			c-7.6-1.9-9.9-0.2-9.9,7.7c0,10.2,0.2,20.3,0,30.5c-0.1,4.1,1.6,6.2,5.5,7c1.5,0.3,2.9,0.7,4.3,1.1c6,1.7,7.3,3.8,6.8,10
			c-0.3,3.5-2.9,2.6-4.9,2.6c-16.7-0.2-33.3-0.6-50,0.1c-1.2,0-2.3,0-3.5,0.1c-2.7,0.3-5.5,0.8-5.6-3.4c-0.1-3.5-0.2-6.6,4.5-7.4
			c11.2-2,11.2-2.1,11.2-13.4c0-29.2,0-58.3,0-87.5c0-2.5-0.4-5-0.6-7.4c-0.6-7.2-3.9-11.3-11.4-11.9c-3.9-0.3-7-6.1-5.9-9.8
			c0.4-1.4,1.3-1.8,2.6-1.9c3.5-0.4,6.9-1.2,10.4-0.8c13.6,1.4,27.3,0.6,40.9,0.4C-0.4-71.7,15-71.3,29.7-65
			C54.5-54.4,58.5-25.1,41.2-6.6c-4.1,4.4-9,7.9-14.3,10.8c-1.7,0.9-3.8,1.4-5.1,3.6C30.4,19.7,39.1,31.7,47.9,43.9 M-2.3-0.8
			C3.5-2.3,8.9-4.7,12.6-9.5c8.6-11.1,8.3-23.3,2.8-35.3C10.2-56-0.3-58.9-11.8-58.6c-7.9,0.2-8.5,1-8.5,8.8c0,11.8,0,23.6,0,35.5
			C-20.3,1.8-19.5,2.4-2.3-0.8z"/>
	</g>
	<g transform="matrix(1 0 0 1 485.95 700.5)">
		<path vector-effect="non-scaling-stroke" d="M47.4,18.7c4.2,11.1,8.4,21.8,12.2,32.6c1.5,4.4,4.2,6.8,8.6,8
			c7.6,2.2,8.3,3.6,6.9,12.3C69.6,71.4,64,71.1,58.5,71c-14-0.5-28-0.3-42,0.1c-2,0.1-4.5,0.8-4.3-2.3c0.2-2.9-1.8-6.7,2.5-8.2
			c2.3-0.8,4.9-0.9,7.3-1.4c2.7-0.5,4.1-1.8,3.1-4.9c-3-8.8-5.9-17.6-8.8-26.5c-0.7-2.3-2.2-3.1-4.5-3.1c-12.8,0-25.6,0.1-38.5,0
			c-3,0-4.5,1.4-5.4,4.1c-2.4,7.1-5,14.1-7.3,21.2c-2,6.1-1,7.8,5.2,9.2c4,0.9,6.8,2.3,7,7c0.1,3.3-0.9,4.9-4.5,4.8
			c-9.5-0.2-19-0.1-28.5,0c-3.1,0-6.3,0.7-9.4,0.8c-2.2,0.1-5.2,1.2-5.7-2.2c-0.4-3.1-0.4-6.4,3.3-8.1c0.2-0.1,0.3-0.1,0.5-0.1
			c9.3-1,12.3-7.8,15-15.6C-43.3,8.2-28.3-28.8-15.5-66.6c1.1-3.3,3.1-4.7,6.5-5.1c6.2-0.7,12.3,0.1,18.4,0.1c4.6,0,6,3.7,7.3,7.2
			c6.1,16.4,12.1,32.7,18.2,49.1C39-4.1,43.1,7.1,47.4,18.7 M-0.2,10.5c3.2-0.2,6.6,0.6,10.3-1C4.6-7.1-0.9-23.5-6.7-41
			c-6.2,17.5-12,33.9-18.3,51.5C-16.3,10.5-8.8,10.5-0.2,10.5z"/>
	</g>
	<g transform="matrix(1 0 0 1 767.3 719.96)">
		<path vector-effect="non-scaling-stroke" d="M0.6,32.7c8.9,3.5,17.3,2.8,25.5-1.2c3.7-1.8,7.2-4.1,10.8-6.3c5-3.1,8.1-2.2,10.8,3
			c0.7,1.4,0.6,2.4-0.3,3.6C26,59.5-16.9,60.7-36.1,37.4c-8-9.7-11.4-21-11.9-33.2c-0.5-14.8,2.8-28.6,12.6-40.5
			C-17.2-58,17.8-60,36.3-39.9c8.4,9.1,11,20.2,10.8,32.3c-0.1,3.8-1.9,5.2-5.7,5.1C23.2-2.7,5.1-2.6-13-2.6c-6.6,0-6.7,0-5.6,6.5
			C-16.8,16.3-11.8,26.7,0.6,32.7 M16.6-28.8C14.4-36.1,9.8-41.2,2-42c-7.3-0.7-11.9,4-15.6,9.8c-2.5,3.8-3.8,8.1-4.9,12.5
			c-0.8,3,0.3,4.8,3.7,4.7c7.5-0.1,15,0,22.4,0c11.2,0,12.1-1.2,9.2-12.5C16.9-27.7,16.8-27.8,16.6-28.8z"/>
	</g>
</g>
<g>
	<g transform="matrix(1 0 0 1 688.47 838.61)">
		<path vector-effect="non-scaling-stroke" d="M21.5,13.5c0-10.8,0-21.1,0-31.4c-0.3-0.1-0.7-0.2-1-0.3C16.1-7.9,11.7,2.4,7.3,12.7
			C4.6,19,2,25.3-0.7,31.6c-0.7,1.7-0.9,4.2-3.6,4.1c-2.4-0.1-2.6-2.3-3.2-3.9c-5.4-13.6-10.7-27.3-16-40.9
			c-0.7-1.7-0.9-3.6-2.5-4.9c-1.7,0.7-1,2.3-1,3.4c-0.1,10.5,0.1,21,0,31.5c0,3.4,0.8,5.9,4.4,6.8c3.1,0.8,2.9,3.2,2.7,5.6
			c-0.3,3.2-2.7,2.5-4.6,2.3c-5.5-0.5-10.9-0.6-16.4,0.1c-1.9,0.2-4.2,0.4-4.5-2.5c-0.3-2.6,0.6-4.5,3.3-4.6
			c5.3-0.4,5.8-3.5,5.8-7.9c-0.2-13.3-0.2-26.7,0-40c0.1-4.4-0.9-7.9-5.6-9.3c-2.3-0.7-3.8-2.2-3.2-4.8c0.6-2.8,3-2.3,4.9-2.2
			c6.8,0.3,13.6,1.4,20.4,0.9c2.9-0.2,3.5,2,4.3,4C-10.3-17.6-5-4.3,0.7,9.7C6.2-4,11.6-17,16.5-30.1c1.3-3.5,3.1-4.9,6.9-4.8
			c7,0.3,13.9,0.1,21.2,0.1c1.4,3.1,0.4,5.6-3.1,6.6c-3.6,1-4.4,3.2-4.4,6.7c0.2,14.3,0.2,28.7,0,43c0,3.8,0.6,6.5,5,7.1
			c2.5,0.3,3.5,2.3,3.3,4.8c-0.3,3.1-2.7,2.4-4.6,2.4c-7.7,0-15.3-0.1-23-0.1c-2.1,0-3.6-0.6-3.9-2.9c-0.4-2.3,0.9-3.6,2.9-3.9
			c4.3-0.6,4.8-3.3,4.6-6.8C21.4,19.4,21.5,16.7,21.5,13.5z"/>
	</g>
	<g transform="matrix(1 0 0 1 525.7 838.64)">
		<path vector-effect="non-scaling-stroke" d="M-10.4,35.7c-7,0-13.5,0-20,0c-2,0-4.1,0.1-4.3-2.9c-0.1-2.5,0.6-4.3,3.4-4.6
			c3.9-0.4,4.6-2.9,4.6-6.3c-0.1-13.7-0.1-27.3,0-41c0-4.8-0.8-8.5-6.4-9.5c-2.5-0.4-4.3-2.5-3.9-5.1c0.5-3.2,3.4-2.1,5.3-1.8
			c7.1,0.9,14.3,0.8,21.4,0.1c8.2-0.7,16.2,0,24.2,2.1C33.8-27.9,39.4-13,36.3,4.8c-3.5,20.3-16.8,29.4-37.2,31
			C-3.9,36-6.9,35.8-10.4,35.7 M-5.6-27.5c-3.2,0-5.5,0.9-5.5,4.8c0.1,15.7,0,31.3,0,47c0,2.4,0.8,3.6,3.3,4
			C5,30.2,16,23.1,18.9,10.4c0.7-2.9,1.1-5.9,1.2-8.9C20.5-14.5,13.5-28.3-5.6-27.5z"/>
	</g>
	<g transform="matrix(1 0 0 1 600.21 838.61)">
		<path vector-effect="non-scaling-stroke" d="M19-34.8c8.3,0,8.3,0,8.4,8.1c0,1.8,0.1,3.7,0,5.5c-0.1,1.7,0.8,4-1.6,4.7
			c-2.2,0.6-4.2-0.4-5.9-2c-0.3-0.3-0.6-0.8-0.9-1.2c-1.6-2.4-0.8-6.6-4.5-7.2C8.9-27.8,3.2-27.5-2.4-27c-2.2,0.2-2.3,2.1-2.3,3.8
			c0,4.5,0,9,0,13.5c0,2.7,1,3.9,3.8,4C3.7-5.7,8.6-5,9.8-11.5c0.3-1.7,1.9-2.2,3.5-1.9c1.6,0.4,2,1.6,2,3c0,5,0.1,10,0,15
			c0,2,0.9,4.6-2.4,5.2c-2.9,0.5-3.7-1.6-4.4-3.7C7.8,3.8,7,2,3.9,1.8c-8.3-0.5-8.7-0.3-8.7,8.1c0,4,0.2,8-0.1,12
			c-0.3,4.4,2,6.1,5.9,6.2c4,0.2,8,0,12,0.1c2,0,3.5-0.9,4.7-2.3c2.1-2.5,4.3-5.1,6.3-7.8c1.3-1.7,2.9-2.3,4.8-1.5
			c1.9,0.7,1.2,2.4,1,3.9c-0.5,3.6-1.1,7.2-1.4,10.9c-0.3,3.3-1.9,4.6-5.2,4.6C7,35.7-9.1,35.7-25.3,35.6c-2.2,0-4.5,0.2-4.8-3
			c-0.3-3.1,2-3.7,4.1-3.9c4-0.4,5.2-2.5,5.1-6.4C-21.1,8.1-21-6.2-21-20.5c0-4-0.6-7.2-5.4-8c-2.6-0.4-4.1-2.5-3.5-5.2
			c0.6-2.6,3.1-2.2,5-2C-10.4-34.3,4.1-35,19-34.8z"/>
	</g>
	<g transform="matrix(1 0 0 1 445.79 839.08)">
		<path vector-effect="non-scaling-stroke" d="M-29.2,25.3c7.1-18,13.5-35.8,19.5-53.8c1.2-3.6,1.9-7.1,7.4-6.9
			c8.8,0.4,8.8,0,11.3,6.7C15.2-11.9,21.6,5,27.8,21.8c1.2,3.2,2.6,6.1,6.5,6.8c2.6,0.5,2.7,2.6,2.4,4.7c-0.4,2.4-2.4,2.1-3.9,1.9
			c-7.6-1.1-15.3-0.2-22.9-0.1c-1.9,0-4.3,0.5-4.6-2.5C5,30.3,6,29.1,8.5,28.7c2.8-0.4,3.4-2.1,2.5-4.7C6.3,10.3,9.2,12.5-3.8,12.3
			c-0.7,0-1.3,0-2,0c-9.5,0-12.1,2.4-13.2,11.8c-0.3,2.7,1.2,3.6,3.3,4.2c2.3,0.6,4,1.8,3.4,4.6c-0.7,3.1-3.1,2.5-5.2,2.1
			c-4.8-0.8-9.6-0.3-14.4,0.2c-1.8,0.2-4.2,0.9-4.7-2.2c-0.4-2.6,0.7-4,3.3-4.6C-31.8,28-30.3,27.3-29.2,25.3 M-7.2-10.2
			C-8.8-5.5-11.1-0.9-12,4.6C-6.3,4.9-1.4,5.2,4.3,4.3C1.8-3.4,0-10.5-4.1-18C-5.4-14.9-6.2-12.9-7.2-10.2z"/>
	</g>
	<g transform="matrix(1 0 0 1 295.32 839.05)">
		<path vector-effect="non-scaling-stroke" d="M-30.3,35c-2.5,0.2-5,1.1-5.7-2c-0.7-3.1,1.1-4,3.7-4.7c3.2-0.8,4-3.8,4.9-6.4
			c6-16.9,12-33.8,17.9-50.8c1.3-3.9,2.6-6.8,7.7-6.5c4.9,0.3,8.5,0.2,10.6,6.3c6,17.6,12.9,34.9,19.3,52.4c0.9,2.6,2.4,4.4,4.9,5.2
			c2.6,0.8,3.4,2.7,2.9,5c-0.6,2.5-2.8,1.8-4.6,1.9c-7.1,0.1-14.2-1.5-21.4-0.2c-1.9,0.3-4.5,0.8-5.2-2.3c-0.7-3.2,1.3-4,3.8-4.6
			c0.9-0.2,2-0.4,2.8-2.2c-1-3.2-2.2-7-3.4-10.8c-0.7-2.4-2.4-2.9-4.6-2.9c-4.8,0.1-9.7,0.1-14.5,0c-2.5,0-4.1,0.9-4.8,3.4
			c-0.6,2.2-1.4,4.5-2.2,6.6c-1.1,2.8-0.7,4.8,2.6,5.7c2.5,0.6,4.3,2.1,3.5,5c-0.9,2.9-3.4,2.2-5.5,1.9
			C-21.6,34.4-25.7,34.3-30.3,35 M-6.3,5.8c3.4-0.2,6.9,0.6,10.6-0.9C1.6-3.1-1-10.7-4-19.2c-1.8,5-3.3,8.8-4.5,12.8
			c-1.2,3.9-3.4,7.5-3.3,12C-10.1,5.6-8.6,5.7-6.3,5.8z"/>
	</g>
	<g transform="matrix(1 0 0 1 776.82 838.6)">
		<path vector-effect="non-scaling-stroke" d="M8.1-9.9c2.9-5.8,6.4-10.9,8.5-16.7c-2.2-2.2-7.6-1.4-6.2-6.1
			c1.3-4.3,5.4-1.8,8.2-2.1c4.1-0.5,8.3-0.4,12.5-0.6c1.8-0.1,3.4,0.1,3.7,2.4c0.2,1.8,0,3.5-2.2,3.9c-5,0.9-6.8,4.9-8.8,8.7
			c-2.8,5.3-5.1,11-8.6,15.8C8.7,4.2,8.3,13.9,8.7,24c0.1,3,1.4,4.1,4,4.7c2.5,0.5,4.3,1.8,3.8,4.8c-0.6,3.3-3.2,2.3-5.2,2.3
			c-7.8,0.1-15.6-1.5-23.4-0.4c-1.8,0.3-3.3-0.5-3.6-2.6c-0.3-2.2,0.5-3.9,2.6-4.1c5.1-0.5,5.1-3.7,5.5-7.7
			C-6.8,12.8-8.4,5.6-13-1.2c-3.8-5.7-6.8-11.9-9.9-17.9c-2.1-3.9-4.4-7.4-8.7-9.2c-2.2-0.9-3.6-2.7-3-5.1c0.7-3.1,3.4-2.5,5.3-2.1
			c6.6,1.1,13.3,0.6,19.9,0.9c2.4,0.1,5.6-1.4,6.5,2.6c0.9,4-2.9,3.7-5.6,5.4c4,7.6,7.6,15.3,12.5,22.5C6.6-5.4,6.6-7.9,8.1-9.9z"/>
	</g>
	<g transform="matrix(1 0 0 1 369.05 839.22)">
		<path vector-effect="non-scaling-stroke" d="M-33-4.6c3.5-16.6,12.8-27.3,29.2-31.1C7-38.1,17-35.5,26.8-31.4
			c1,0.4,1.6,1.2,1.7,2.3c0.4,4.1,0.8,8.3,1,12.4c0.1,1.6,0.3,3.5-2.1,3.9c-1.9,0.3-3.7,0.2-4.8-1.7c-0.9-1.6-2-3.1-2.6-4.8
			C16-30.8,0.6-32.6-8.4-24.3C-20-13.7-18.9,12-6.4,21.6c9,6.9,18.7,6.8,28-0.3c1.6-1.2,3.1-2.6,4.4-4c1.8-1.9,3.5-2.2,5.6-0.4
			c2.3,2,2,3.8,0.1,5.9c-5.2,5.9-11.3,10.5-19,12.4c-9.2,2.3-18.5,2.1-27.3-2c-12.2-5.7-17-16.2-18.4-28.8C-33.3,1.5-33-1.3-33-4.6z
			"/>
	</g>
</g>
<g>
	<g transform="matrix(1 0 0 1 322.18 922.24)">
		<path vector-effect="non-scaling-stroke" d="M13.2-10.3c3.3,3.1,2.1,6.8,2.2,10.2C15.5,3.5,15,7.2,18.8,10
			c-3.7,2.1-7.1,1.3-10.9,0.9c2.6-4.3,2.1-8.8,2-13.2c0-2-0.1-4.3-2.9-4.3c-2.4,0-4.3,1.5-4.4,4c-0.2,4.4-1.4,9,2.6,12.8
			c-3.8,1.8-6.8,1.1-10.5,0.7C-2.8,6.6-3,2.5-3.2-1.6c-0.1-2,0.6-4.9-2.7-4.9c-2.7,0.1-4.6,1.9-4.7,4.9c-0.1,4-0.9,8.2,2.9,11.8
			c-4.1,1.5-7.5,1.3-11.2,0.3c3.6-6.8,4.1-13.4,0-20c3.3-3.9,7.3,0.3,10.4-0.8c4-1.4,7.3-2,10.5,1.5C5.6-10.5,8.9-12.8,13.2-10.3z"
			/>
	</g>
	<g transform="matrix(1 0 0 1 365.92 917.5)">
		<path vector-effect="non-scaling-stroke" d="M6-16.3c5.2,1.6,5.9,3.7,2.8,7.9c-1.9-1.9-3.6-4-6.9-3.7c-3.2,0.3-5.3,0.5-5.2,4.6
			c0,3.8,1.4,5.2,5,4.8c0.8-0.1,1.7,0,2.5,0.1c1.2,0.1,2.5,0.3,2.6,1.8C6.8,0.8,5.5,0.9,4.3,1C3.4,1,2.6,1,1.8,1.1
			c-2.1,0.1-4.9-0.3-4.9,2.8c0,2.8-1.8,6.6,1.7,8.1c2.4,1,6,1.7,8.2-1.4C7.6,9.3,8.1,7.6,10,8.2c1.3,0.4,1.7,1.6,1.4,2.8
			c-0.5,1.8-0.1,4.5-2.7,4.8c-6.7,1-13.5,0.9-20.3-0.1c2.9-10.4,2.4-20.3,0.3-31.2C-6.1-17.4-0.2-16,6-16.3z"/>
	</g>
	<g transform="matrix(1 0 0 1 624.59 917.51)">
		<path vector-effect="non-scaling-stroke" d="M9.5-14.9c0.5,2.5,1.1,4.6-0.9,6.8C6.2-10.5,4-12.6,0.2-12C-3.3-11.5-2.9-9.2-3-6.9
			c-0.1,2.5,0.3,4.2,3.4,4.2c2.2,0,4.7-0.7,6.4,1.5c-1,3-3.3,1.9-5.1,2.2c-1.9,0.3-4.5-0.5-4.6,2.5c0,2.8-1.7,6.6,1.4,8.3
			c2.3,1.2,5.9,1.8,8.1-1.3C7.5,9.3,7.9,7.5,9.9,8c1.4,0.4,1.3,1.8,1.2,2.9c-0.1,2-0.2,4-2.6,4.9C5.2,17-7.3,16.6-11.1,15.1
			c2.6-9.9,2.2-19.8,0.3-30.8C-4.5-16.6,2.4-17.2,9.5-14.9z"/>
	</g>
	<g transform="matrix(1 0 0 1 390.7 927.16)">
		<path vector-effect="non-scaling-stroke" d="M7.9-5c0,3.1,0,5.8,0,8.5c0.1,4-1,8.3,3.7,11.5c-4.7,1.8-8.2,1.8-12.2,0.4
			c1.2-3,4.7-5.1,2.5-8.5c-8.7,1-12.8-2-13.5-9.8c-0.7-6.8,4.3-13.1,10.5-13.3C6.9-16.6,7.9-15.4,7.9-5 M2.5-2c0-2.1,0-4.3,0-6.4
			c0-2-0.9-3.6-3-3.9c-2.1-0.3-3.4,1.2-4.1,2.9c-1,2.3-0.8,4.8-0.6,7.3c0.2,2.3,0.7,4.4,3.4,4.7C0.8,2.9,2.1,1.3,2.5-2z"/>
	</g>
	<g transform="matrix(1 0 0 1 250.63 917.47)">
		<path vector-effect="non-scaling-stroke" d="M5-2.5c3.5,2.3,2,3-0.7,3.6C2,1.5-1.9-0.4-2,3.7c-0.1,3.2-2.5,8.1,3.7,9.1
			c0.8,0.1,1.3,1,1.3,1.9c-0.1,1.2-1,1.8-2,1.8c-4.1,0.1-8.2,0.5-12.2-1c4.1-10.3,3.3-20.3,0.6-31.1c6.4-1.5,13.3-1.5,20,0.4
			c2.9,0.8,1.6,4.3,0.7,7.1c-2.9-1-3.8-4.8-7.6-4c-2.7,0.6-4.8,0.5-4.7,4.1c0.1,3.1,0.1,5.8,4.4,5.4C2.9-2.7,3.8-2.6,5-2.5z"/>
	</g>
	<g transform="matrix(1 0 0 1 518.82 922.45)">
		<path vector-effect="non-scaling-stroke" d="M1.7,10.2C4,6.1,3.6,1.9,3.4-2.2C3.4-4.1,3.8-6.7,0.8-6.6C-1.5-6.5-3.8-5.1-4-2.4
			C-4.4,1.8-5.1,6.2-1.6,10c-3.8,2.4-7.2,0.6-11.3,1.1c3.9-7.4,4.6-14,0.5-20.5c0.1-1,0.9-1.3,1.7-1.5c5.2-0.8,10.5,0.6,15.8-0.4
			c2.2-0.4,3.6,2.1,3.7,4.5c0.1,1.5,0,3,0,4.5c0,4.3-0.9,8.9,4.1,12.3C8.5,11.7,5.2,11.6,1.7,10.2z"/>
	</g>
	<g transform="matrix(1 0 0 1 827.72 922.27)">
		<path vector-effect="non-scaling-stroke" d="M8.9-2c0.1,4.6-1,9.1,4,12.3c-4.4,1.4-7.7,1.7-11.6,0.1c2.9-3.9,2.2-8,2.2-12.1
			c0-2,0.5-4.9-2.8-4.7C-2-6.3-4-4.6-4.1-1.6c-0.1,4.1-0.7,8.2,2.6,12c-4,1.4-7.4,1.1-11.4,0.2C-8.4,4-8.6-2.6-12.3-9.6
			c2.5-1.4,5.1-3.1,8.1-0.5c1.1,0.9,1.7,0.2,2.6-0.1C6.4-13.1,8.9-11.2,8.9-2z"/>
	</g>
	<g transform="matrix(1 0 0 1 651.29 922.25)">
		<path vector-effect="non-scaling-stroke" d="M3.3,7.7C4.9,4.5,3.8,1.5,4-1.5c0.1-2,0.5-4.9-2.6-5c-2.9,0-4.9,1.9-5,5.1
			c-0.1,3.9-0.5,7.9,1.9,11.7c-3.7,1.4-6.9,1.4-10.6,0.5c4.1-7,4.3-13.5,0.6-20.5c2.6-1.3,5.2-3,8.2-0.3c1.5,1.3,2.4-0.3,3.5-0.7
			c6-2.2,9.1,0,9.5,6.4c0.2,4.8-1.7,10,2.9,14.1c-3.1,2.5-6.3,1.6-9.1,1.1C1.1,10.6,2.1,9,3.3,7.7z"/>
	</g>
	<g transform="matrix(1 0 0 1 679.53 922.25)">
		<path vector-effect="non-scaling-stroke" d="M4.4-3.3C3.8-5.7,2.6-7,0.4-6.4c-2.1,0.6-4,1.9-4.2,4.4C-4,2.2-4.4,6.3-1.9,10.3
			c-3.7,1.5-6.9,1.5-10.5,0.4c4.4-6.8,3.6-13.3,1-20.4c2.4-1,4.9-3,8-0.4c1.2,1.1,2.1-0.3,3.1-0.6c6.1-2.2,9.2-0.3,9.8,6.2
			c0.2,1.7,0.1,3.3,0.1,5c-0.2,5.5-0.2,5.5,2.8,9.6c-3.5,2-6.9,0.9-11.4,0.7C5.5,6.4,4.3,1.6,4.4-3.3z"/>
	</g>
	<g transform="matrix(1 0 0 1 415.69 922.73)">
		<path vector-effect="non-scaling-stroke" d="M10.3,7.1c1.7,1.1,2.2,2.3,0.8,3.4c-1.6,1.2-3.9,2.1-5.5,0.5c-2-2-3.4-1-5.2-0.2
			c-5.5,2.3-9,0.2-9.6-5.9c-0.2-2.5-0.1-5,0-7.5c0.1-2.6,0.9-5.4-2.7-6.6c1.8-2.9,4.1-2.8,6.1-2.3c2.4,0.6,1.7,2.9,1.8,4.6
			c0.1,3.3,0,6.6,0,10c0,1.8,0.5,3.5,2.5,3.7C0.6,6.9,3,6,3.1,3.8C3.5-0.8,5.2-5.8,0.8-9.9c1.9-2.1,4.2-2.4,6.4-1.5
			C9.6-10.5,8.6-8,8.9-6.2C9.5-1.8,7.6,2.8,10.3,7.1z"/>
	</g>
	<g transform="matrix(1 0 0 1 802.49 922.68)">
		<path vector-effect="non-scaling-stroke" d="M-11,0.4c0.4-4.9,1.8-8.8,6.1-11.1c5.5-2.9,12.7-0.3,15,5.4
			c2.7,6.8-0.2,14.2-6.6,16.4c-6.3,2.2-12.3-1.1-14-7.9C-10.8,2.5-10.9,1.6-11,0.4 M4.7-0.9C4.6-4,4.3-7.2,0.6-7.9
			c-3.1-0.6-4.3,2-5.2,4.4c-0.3,0.9-0.2,2-0.3,3c0,3.8,0,8.2,4.8,8.3C4.7,7.9,4.6,3.5,4.7-0.9z"/>
	</g>
	<g transform="matrix(1 0 0 1 704.44 922.69)">
		<path vector-effect="non-scaling-stroke" d="M11.1,0.3c-0.8,4.9-2.5,8.7-7,10.6c-5.8,2.5-12.1-0.2-14.3-6
			c-2.6-6.6,0.3-13.8,6.4-16.1c5.7-2.1,11.9,0.9,14,6.8C10.8-3,10.9-1.5,11.1,0.3 M4.7,1.6c0-6.8-1.6-9.9-5-9.7
			c-3.3,0.3-5,3.9-4.5,9.7c0.2,2.9,1,5.9,4.4,6.2C3.1,8.2,4.4,5.6,4.7,1.6z"/>
	</g>
	<g transform="matrix(1 0 0 1 588.59 922.66)">
		<path vector-effect="non-scaling-stroke" d="M9.7-6.1c3,9-0.4,16.4-7.7,17.7c-5.5,1-10.3-1.9-12.2-7.1c-1.9-5.5,0.3-12.4,4.9-15
			C-0.2-13.3,5.2-11.9,9.7-6.1 M-4.6-3.1c-0.1,0.7-0.3,1.3-0.3,2c0,3.4,0.2,6.7,3.5,8.8c1.5,0.9,3,0.4,4.1-0.7C5.1,4.2,5.7,1,5-2.4
			C4.5-4.9,3.7-7.5,0.7-7.9C-2.1-8.2-3.4-6.1-4.6-3.1z"/>
	</g>
	<g transform="matrix(1 0 0 1 290.66 922.57)">
		<path vector-effect="non-scaling-stroke" d="M5.8,10.1c-7.1,2.8-11.4,2-14.6-2.4c-3.1-4.3-2.8-11.8,0.7-15.8
			c3.2-3.7,8.8-4.6,13.2-2.2c4.9,2.7,7.1,8.7,5.2,14.2C9.5,6.2,8.2,8.3,5.8,10.1 M3.2,6.4c2-3.4,1.6-7.1,0.9-10.7
			c-0.3-2-1.9-3.2-3.8-3.5C-1.8-8.2-3.1-6.9-4-5.1C-5.5-2-5.5,1.3-4.2,4.6C-2.9,8-0.7,9.4,3.2,6.4z"/>
	</g>
	<g transform="matrix(1 0 0 1 492.81 922.68)">
		<path vector-effect="non-scaling-stroke" d="M-8.7,7.4c-2.4-3.6-2.7-7.2-1.8-10.9c1.1-4.8,5.4-8.1,10-8.3C4.3-12,8.7-9.1,10.3-4.5
			c1.8,5.1,0,11.5-4,14.4c-3.5,2.6-9,2.6-12.6-0.1C-7.2,9.3-7.8,8.5-8.7,7.4 M5,1.5c0-1.3,0.1-2.7-0.2-4C4.3-5.1,3.4-8,0.1-7.9
			c-3,0-4.1,2.5-4.6,5.1c-0.3,1.1-0.7,2.3-0.5,3.4c0.5,3.1,0.9,6.8,4.8,7.3C3.5,8.4,4,5,5,1.5z"/>
	</g>
	<g transform="matrix(1 0 0 1 750.51 922.6)">
		<path vector-effect="non-scaling-stroke" d="M-1.9-11.7c7.3,0,8.8,1.5,9,8.4c0.1,4.1-1.5,8.7,3.3,11.7c-2.2,2.6-4.3,4.6-7.3,2
			c-1.8-1.6-3-0.3-4.4,0.2c-4.7,1.8-7.8,0.8-9-2.9c-1.1-3.6,1.4-7.4,5.8-8.4C-3.3-0.8-2.1-0.8-1-0.8c1.6,0,3.1-0.4,3.3-2.3
			c0.2-1.7,0.2-3.5-1.6-4.4C-1-8.3-2-6.8-2.8-5.6c-1.5,2.1-3.3,1.8-5.3,0.7C-8.5-9.2-5.6-10.6-1.9-11.7 M1.9,3
			C1.2,2.3,0.4,2.6-0.4,2.7C-1.9,3-3.6,2.9-4.2,4.5C-4.4,5-4.1,5.9-3.7,6.2c1.7,1.2,3.1,0,4.6-0.8C1.7,5.1,2.2,4.4,1.9,3z"/>
	</g>
	<g transform="matrix(1 0 0 1 440.87 922.48)">
		<path vector-effect="non-scaling-stroke" d="M-8.4,10.7c-4.1-6-1.7-10.6,5.7-11.3C-0.4-0.9,2.1-0.5,2-4.1c0-1.4-0.3-2.7-1.7-3.3
			C-1-8-1.9-7.2-2.6-6.2C-4-4.1-5.8-3.5-8.1-4.5c-0.2-4.5,2.2-6.7,7.3-7.1c4.7-0.3,7.3,1.7,7.6,5.8c0.2,2.2,0.1,4.3,0.1,6.5
			c-0.1,3.2-0.5,6.5,3.6,7.3c-0.5,2.7-2.9,3.8-3.7,3.3C2,8.2-2.3,12.2-6.8,11.6C-7.3,11.5-7.7,11.2-8.4,10.7 M-3.9,6.7
			C-1.2,6.9,1.1,6.4,2,2.5C-0.9,3.3-4.2,1.7-3.9,6.7z"/>
	</g>
	<g transform="matrix(1 0 0 1 541.97 922.56)">
		<path vector-effect="non-scaling-stroke" d="M-7.6-2.1C-8.2-9.4-4-13,2.7-11.6C5-11.1,6.5-9.7,7.2-7.5c0.3,1,0.6,2.1-0.4,2.8
			c-1.1,0.8-2.2,0.4-3-0.6C3.2-6.1,2.7-7,1.9-7.5C0.7-8.3-0.8-8.3-1.7-7.1C-3-5.4-1.8-4.3-0.5-3.5c1.8,1.1,3.9,1.9,5.6,3.2
			c2.6,2,3.9,4.7,2.5,7.9c-1.7,3.6-5.1,4.5-8.8,4.3c-3.1-0.2-6-0.9-6.8-4.6c-0.2-1.1-0.7-2.4,0.6-3.2c1.4-0.8,2.3-0.1,3.2,1.3
			c1.9,2.9,4.2,4.3,7,0.6C0,2.3-5.3,2.4-7.6-2.1z"/>
	</g>
	<g transform="matrix(1 0 0 1 727.28 922.4)">
		<path vector-effect="non-scaling-stroke" d="M7.2-1.1C6,1.7,5,4.2,3.8,6.5c-0.9,1.8-1,4.8-3.8,4.6C-2.7,10.9-2.6,8-3.6,6.2
			C-4.3,4.8-4.7,3.4-5.3,2c-1.8-3.9-2.4-8.7-7.4-10.8c5.9-3.2,8.1-2.4,10.1,2.7c1,2.6,1.5,5.4,3.7,8c1.9-4,4.8-7.4,0.6-11.5
			c3.8-2.5,7.2-1.4,11-0.3C10.8-6.8,8.1-4.7,7.2-1.1z"/>
	</g>
	<g transform="matrix(1 0 0 1 567.84 919.73)">
		<path vector-effect="non-scaling-stroke" d="M1.8-0.2c0,1.3,0.1,2.1,0,2.9C1.2,7.5,2.3,11,8.6,10.1c-0.8,4-3.7,4.4-6.4,4.5
			c-2.7,0.1-4.5-1.4-4.9-4C-3.3,8.4-3.5,6-3.6,3.7C-3.8,0-2.7-4-8.5-6.8c6.1-0.5,4.6-7.4,9.3-7.9c2.6,1.5,0.4,3.8,1.1,4.5
			C4-7.9,7.1-9.5,8.1-6.6C7.4-3.3,0.7-5.9,1.8-0.2z"/>
	</g>
	<g transform="matrix(1 0 0 1 768.39 919.8)">
		<path vector-effect="non-scaling-stroke" d="M7-5.5C-0.6-3.9,2.7,1.8,2.1,5.9c-0.5,4,2.4,4.5,5.8,3.9c-0.4,4.4-3.4,4.6-6,4.8
			c-2.8,0.2-4.8-1.3-5.2-4.3c-0.3-2.3-0.1-4.6-0.1-7c-0.1-3.7,1.3-7.9-4.5-9.8c5.6-0.6,3.3-8.2,9.2-8.2c0.6,3.4,1.9,6.3,6,6.8
			C8.1-7.7,7.9-6.4,7-5.5z"/>
	</g>
	<g transform="matrix(1 0 0 1 458.76 919.58)">
		<path vector-effect="non-scaling-stroke" d="M6,13.7c-6.5,2.2-9.5,0.2-9.8-6.3c-0.1-1.8-0.1-3.7,0-5.5c0.2-3.3,0-6.3-4.5-8.3
			c5.2-1.2,4.3-7.2,9.6-8.1C1.1-10,3.9-8,8.2-6.7C4.2-4.7,1-2.8,1.7,2.4c0.6,4.3-0.3,8.7,6,8.1C8.4,12.3,7.2,12.8,6,13.7z"/>
	</g>
	<g transform="matrix(1 0 0 1 271 922.44)">
		<path vector-effect="non-scaling-stroke" d="M-5.1,0.7C-5.5-3-3.5-7-8.2-8.8c4.9-3.6,6.8-3.5,8.7,0.2c0.3-0.1,0.6-0.1,0.8-0.2
			c1.6-1.5,3-3.3,5.5-2.5c1.1,0.3,1.7,1.1,1.5,2.3c-0.6,2.4-2.4,3-4.7,3.6C-0.1-4.6-1,4.3,2,7.5c0.7,0.7,1.6,1.1,1.9,3
			C0.1,12.7-3.8,10.8-8.3,11C-6.6,7.4-4.1,4.7-5.1,0.7z"/>
	</g>
	<g transform="matrix(1 0 0 1 475.72 922.27)">
		<path vector-effect="non-scaling-stroke" d="M-6.2,10.5c3.4-4.3,2.4-9.1,2.7-13.8c0.1-2.6-1.2-4.2-3.1-5.9c2.3-2,4.8-2.7,7.1-1.7
			c2.2,1,1.2,3.5,1.3,5.4c0.1,2.3,0.2,4.7,0,7c-0.3,3.3,0.2,6.2,4.6,8.8C1.2,11.5-2.3,11.9-6.2,10.5z"/>
	</g>
	<g transform="matrix(1 0 0 1 784.31 922.31)">
		<path vector-effect="non-scaling-stroke" d="M-2.4,2.5C-2.6-1.9-1.1-6.4-6.2-8.9c2.3-2.7,5-2.9,7.4-2.1c2.4,0.8,1.5,3.4,1.5,5.3
			c0,1.8-0.1,3.7-0.2,5.5C2.2,3.5,2.2,7.3,6.2,10.3c-4.5,1.2-8,1.6-11.8,0.2C-4.9,7.6-1.4,6.1-2.4,2.5z"/>
	</g>
</g>
<g transform="matrix(1 0 0 1 784.63 904.5)">
	<path vector-effect="non-scaling-stroke" d="M-2.9-1.9c1.8-2.1,3.6-2.3,5.3-0.6c1.1,1.1,1.3,2.7,0.5,4.1C2.1,3,0.8,4-0.7,3.5
		C-3.1,2.7-4,1-2.9-1.9z"/>
</g>
<g transform="matrix(1 0 0 1 475.4 904.51)">
	<path vector-effect="non-scaling-stroke" d="M-2.3-2.6c2.3-1.4,4.2-1.3,5.3,1c0.6,1.3,0.5,3-0.7,4.1C1.2,3.4,0,4-1.4,3.2
		C-3.6,1.8-3.9-0.1-2.3-2.6z"/>
</g>
<g>
	<g transform="matrix(1 0 0 1 541.59 383.05)">
		<path vector-effect="non-scaling-stroke" d="M-206.4,85c-10.9-24.3-16.1-49.5-18.4-75.5c-1.8-19.8-1.3-39.5-1.1-59.3
			c0.4-34-0.2-68-0.3-102c0-9.2,0.5-18.3,0.5-27.5c0-3.6,1.2-4.9,4.9-5c41.4-1.2,82.1-7.6,121.8-19.2c32.9-9.7,64.1-23.4,93.5-41.1
			c4.7-2.8,8.1-2.3,12.3,0.3c31.9,19.1,65.6,34,101.6,43.6c28.3,7.5,57,12.9,86.3,14.9c7.8,0.5,15.6,0.5,23.4,0.9
			c7.5,0.4,7.9,0.8,7.9,8.1c0,54.7,0.5,109.3-0.1,164c-0.5,54.9-15.9,104.9-52,147.5c-25.3,29.8-55,54.2-88.8,73.6
			C59.1,223,31.8,234.8,3.9,245.5c-2.7,1.1-5.4,1.6-8.3,0.5c-45.1-17.3-88.5-38.1-126.4-68.7C-162.1,151.9-188.5,122.2-206.4,85
			 M-16.2,210.4c3,1.1,6,2.1,8.8,3.5c4.9,2.4,9.4,2,14.4,0.1c52.1-20.2,100.3-46.6,138.3-88.8c17.6-19.5,32.2-40.8,40.9-65.7
			c6.4-18.3,9.5-37.3,11.3-56.5c0.8-8.7,0.9-8.7-7.8-8.7c-104.5,0-209,0-313.5,0c-22.2,0-44.3,0-66.5,0c-7.9,0-8,0-7.7,8.1
			c0.1,2.8,0.7,5.6,0.9,8.4c1.6,19.9,6,39.1,13.5,57.5c12,29.5,32,53.2,55.2,74.4C-95.5,172.4-57.6,193.5-16.2,210.4 M-198.1-51.4
			c0,9.5,0,19,0,28.5c0,6.6,0,6.6,6.7,6.6c60,0,120-0.1,180,0.1c4.7,0,5.9-1.4,5.9-5.9c-0.1-61.5-0.1-123-0.1-184.5
			c0-1.7,0.6-3.7-1-5.2c-0.5,0-1-0.1-1.4,0.1c-2.6,1.2-5.1,2.4-7.6,3.7c-29.2,15.3-60,26.3-91.8,34.7c-27.9,7.4-56.2,12.3-84.9,14.4
			c-4.7,0.3-5.8,2.2-5.8,6.5C-198.1-119.1-198.1-85.7-198.1-51.4 M5.1-206.9C5.1-145.4,5.1-84,5-22.5c0,4.6,1.1,6.4,6.1,6.3
			c60.3-0.2,120.6-0.2,180.9,0c4.9,0,6.7-1.3,6.6-6.4c-0.2-43.5-0.2-86.9,0-130.4c0-4.4-1.4-5.9-5.6-6.1
			c-14.8-0.6-29.5-2.3-44.1-4.8c-48.5-8.4-95-23-138.5-46.3c-1.4-0.7-2.7-2-4.5-1.4C4.7-210.4,5.2-209,5.1-206.9z"/>
	</g>
	<g transform="matrix(1 0 0 1 540.79 479.8)">
		<path vector-effect="non-scaling-stroke" d="M-54.6-62c8.2,0.1,15.3,3,22.7,5c1.9-2.6,2.2-5.5,3.1-8.1c3.2-9.3,7.6-17.8,15.5-24
			c9.1-7.1,19.5-6.6,28,1.4c6.6,6.2,11,13.7,14,22.2c0.9,2.6,1.8,5.3,2.7,7.8c3.4,0.4,6-1,8.6-1.8c10.1-3,20.3-4,30.5-1.2
			C84-57,90.2-44.8,86.1-31.3c-3.2,10.6-9.8,19.3-17.5,26.9c-3.7,3.7-3.7,6.1-0.3,9.8c7.6,8.2,14.5,17,17.7,28
			c4.5,15.6-5.1,28.9-21.1,30.4c-9.5,0.9-18.6-0.2-27.5-2.9c-4.9-1.5-7.3-0.8-8.9,4.5c-2.5,8.4-7.1,15.8-13.5,21.9
			c-8.6,8.4-19,8.8-28.3,1.2c-8-6.5-12-15.5-15-24.9c-1.4-4.3-3.1-5-7.2-3.7c-9,3-18.3,4.6-27.9,3.7C-81.7,62.3-91.4,47.2-85,30.1
			c3.6-9.6,9.9-17.4,16.9-24.4c3.6-3.6,3.3-5.9,0-9.4c-6.6-6.9-12.3-14.5-16.3-23.2c-8.5-18.3,2.1-34.9,22.3-35
			C-59.8-62-57.4-62-54.6-62 M-14.5,24.9c3.9,2.5,7.9,4.9,11.8,7.5c1.9,1.3,3.5,1.4,5.4,0c6.9-4.9,13.9-9.8,20.8-14.7
			c2.6-1.9,3.8-4.3,3.7-7.7c-0.3-7.1,0-14.3-0.7-21.4c-0.3-3.3-1.5-5.6-4.4-7.3c-5.6-3.3-11.2-6.6-16.7-10.1
			c-2.3-1.5-4.3-1.4-6.5-0.1c-4.9,2.8-9.7,5.9-14.9,8.2c-8,3.6-11.9,9-10.3,17.9c0.4,2.1,0.4,4.4,0,6.5
			C-27.8,13.6-24.5,20.6-14.5,24.9 M-59-52.2c-1.5,0.1-3,0.1-4.5,0.4c-13.2,2.5-17.1,10.6-10.7,22.6c4.1,7.7,9.7,14.3,15.5,20.7
			c1.7,1.9,3.2,2.4,5.5,0.7c4.8-3.5,9.8-6.8,14.8-10.2c1.8-1.2,2.5-2.9,2.7-5.1c0.5-5.8,0.9-11.6,2-17.3c0.8-4.3-0.9-6-4.5-7.4
			C-44.7-50.3-51.3-51.5-59-52.2 M35.3,35.3c-0.5,3.6-1,7.2-1.6,10.8c-0.3,1.7,0.1,3.1,1.8,3.6c10.4,2.6,20.8,6.2,31.8,3.1
			c8.3-2.4,12-10.2,8.4-18.1c-4.1-9.2-10-17.2-17.4-24.1c-2.3-2.2-4.1-2.2-6.4-0.2c-3.3,2.7-6.8,5.3-10.4,7.7
			c-3.9,2.5-5.5,6-5.6,10.5C35.8,30.5,35.7,32.5,35.3,35.3 M-64.9,17.5c-4.4,4.8-8.1,10.1-10.6,16.2c-3.8,9.4,0,16.8,9.8,19.4
			c8.1,2.2,15.8,0,23.5-2c9-2.2,8.9-2.4,7.5-11.6c-0.1-0.8-0.2-1.7-0.2-2.5c0.8-10-2.8-16.9-11.9-22.3C-56.9,9-56.4,8.1-64.9,17.5
			 M71.6-25c1.1-1.9,2.3-3.7,3.2-5.6c5-10.6,1.4-18.2-10.1-20.8c-10-2.2-19.3,1.1-28.5,4.6c-1.6,0.6-2.1,1.7-1.9,3.6
			c0.7,5.6,1.6,11.1,1.6,16.8c0,2.7,0.8,5.5,3.4,7.4c4.5,3.1,8.9,6.5,13.1,9.9c2.4,2,4.2,1.9,6.4-0.3C63.5-14,67.8-18.9,71.6-25
			 M1.4-83.6c-3.5-0.8-6.2,1.1-8.5,3.2c-7.5,6.6-11.4,15.4-13.7,24.9c-0.6,2.5,0.9,3.6,2.8,4.5c5.4,2.6,10.8,5.2,16.1,8
			c2.1,1.1,4.1,1,6.1-0.1c4.7-2.6,9.4-5.1,14-7.6c1.5-0.8,3-1.8,2.6-3.8C18.3-66.5,14-77.4,1.4-83.6 M-1,45.9
			c-5.4,2.5-10.8,5.1-16.2,7.7c-1.5,0.7-3,1.6-2.5,3.8c2.4,9.6,6.6,18.1,14.7,24.2c4,3,7.6,2.5,11.2-0.6
			c6.4-5.5,10.1-12.6,13.1-20.3c1.3-3.2,0.3-4.8-2.7-6.2C10.9,51.8,5.4,48.8-1,45.9 M24.1,41.1c0-3.1,2.2-6.2,0.2-9.8
			c-4.3,2.6-8.4,5-12.3,8.9c3,1.4,5.5,2.5,8,3.7C22.3,45,23.3,43.8,24.1,41.1 M-24.2-36c0.3,2.4-1.7,4.7,0.1,7.6
			c4.1-2.1,8-4.2,11.6-7.2c-2.2-2-4.5-3.1-6.7-4.1C-22.1-41-24-40.4-24.2-36 M-36.8-0.6c-0.2-1.4,0.5-3-1.5-4
			c-2.9,1.5-7.6,2.5-7.2,6.2c0.4,3.5,4.6,5.3,8.7,6.6C-36.8,5.2-36.8,2.7-36.8-0.6 M42.7,4c1.3-1.2,3.2-1.8,3.9-4
			c-2-2.6-4.2-4.9-7.7-5.6c-1.8,2.8-1.1,5.7-1,8.4C38,6.5,39.9,6.1,42.7,4 M-17.3,36.6c-2-1.2-3.8-3.1-6.6-3
			c-0.6,3.4,0.3,6.3,1.5,9.1C-15.8,41.9-14.5,40.5-17.3,36.6 M23.4-38.2c-2.6-1.9-5.2-1.7-6.4,1.4c-1.2,2.9,1.4,4.4,3.6,4.7
			C25.5-31.5,24.1-35,23.4-38.2z"/>
	</g>
</g>
<g transform="matrix(1 0 0 1 410.27 285.37)">
	<path vector-effect="non-scaling-stroke" d="M14-6.8c-1.8,9.3-8.4,15-14.1,21.6c3.5,2.7,7.2,1.3,10.7,1.6c2.7,0.2,4.8,0.2,4.9,3.9
		c0.1,3.6-1.7,4.2-4.6,4.2c-6.8,0-13.6,0.2-20.5,0.2c-1.9,0-4.5,0.5-5.3-1.8c-0.9-2.3-0.8-4.9,1.1-7c4-4.4,8.1-8.8,12.1-13.3
		c2.5-2.7,4.5-5.8,5.8-9.3c0.9-2.6,1-5.2-0.7-7.6c-2.3-3.1-5.7-3.4-7.2,0.1c-2.4,5.6-6.4,4.7-11.1,3.9c-0.3-5.6,2.5-9.3,6.7-12
		c5.2-3.4,10.9-3,16.1,0C13.5-19,15-13.5,14-6.8z"/>
</g>
<g transform="matrix(1 0 0 1 497.3 285.83)">
	<path vector-effect="non-scaling-stroke" d="M0.7-1.6c0-3.1,0-5.8,0-8.9c-3.3,1-6,4-9.3,1c-1.2-1.1-2.1-2-1.4-3.8
		c1.6-4,11.4-10.8,15.7-11c3.2-0.2,4.6,0.9,4.6,4.2c0,13.3-0.1,26.6,0,39.9c0,3.8-2.2,4.3-5.1,4.4c-3,0-4.6-1-4.5-4.4
		C0.8,12.9,0.7,5.9,0.7-1.6z"/>
</g>
<g transform="matrix(1 0 0 1 520.41 285.86)">
	<path vector-effect="non-scaling-stroke" d="M1.7,23.3c-1.9-8.2-0.7-16.1-1.1-24c-0.1-2.9,0-5.8,0-8.5C-1.3-9.8-2-8.9-2.9-8.5
		C-6-6.9-8.1-9.1-9.7-10.9c-1.6-1.9,0.6-3.4,1.9-4.4c4.1-3.4,6.9-8.7,13.3-8.7c3.3,0,4.8,0.9,4.8,4.5c-0.1,13.1,0,26.2-0.1,39.3
		C10.2,24.3,8.8,24.9,1.7,23.3z"/>
</g>
<g transform="matrix(1 0 0 1 355.45 285.85)">
	<path vector-effect="non-scaling-stroke" d="M10.2-2.7c0,7.5-0.3,14.5,0.1,21.5c0.3,4.6-2.1,5.1-5.6,5.3c-4,0.2-4.2-2.1-4.2-5.1
		c0.1-8.7,0-17.3,0-26c0-0.8-0.2-1.6-0.3-2.3c-1.8-0.7-2.6,0.8-3.8,1.2c-2.8,0.9-4.5-1.1-6-2.6c-1.6-1.6,0.1-3.2,1.3-4.2
		c4.4-3.6,7.3-9.3,14.2-9.2c3.2,0,4.5,1.2,4.4,4.4C10.1-14.2,10.2-8.7,10.2-2.7z"/>
</g>
<g transform="matrix(1 0 0 1 384.98 285.19)">
	<path vector-effect="non-scaling-stroke" d="M-13.3-4.2c3-0.5,5.7,0.4,8.2-0.8c0.9-1.5,0.4-3.1,0.4-4.5c0-2.8,0.7-4.8,4.2-4.8
		c3.2,0,5.4,1,5,4.5C4-5.3,6.1-3.9,10.3-4.4c3.1-0.3,5.5,0.2,5.4,4.4c-0.1,4.3-2.8,4.3-5.7,4.2C6.5,4.1,4,4.6,4.5,9
		c0.4,3.2-0.4,5.4-4.5,5.4c-4.4,0-4.9-2.5-4.7-5.8c0.1-1.1,0-2.3,0-3.3c-3.2-2.7-8.6,1.5-10.6-3.6C-16.1-0.5-16-2.7-13.3-4.2z"/>
</g>
<g transform="matrix(1 0 0 1 470.3 294.58)">
	<path vector-effect="non-scaling-stroke" d="M-3.9,4.7c-3.9-0.4-8.7,1.4-8.5-5.1c0.1-2.9,1.1-4.3,4.1-4.3c5.5,0,10.9,0,16.4,0
		c3.3,0,4.2,1.7,4.3,4.7c0,3.1-1.3,4.7-4.3,4.7C4.2,4.7,0.4,4.7-3.9,4.7z"/>
</g>
<g transform="matrix(1 0 0 1 470.48 279.03)">
	<path vector-effect="non-scaling-stroke" d="M13.2-0.3c0.3,3.6-1.2,4.9-4.4,4.8C3,4.4-2.8,4.4-8.6,4.5c-3.1,0-4.6-1.4-4.6-4.5
		c0-3.1,1.4-4.6,4.5-4.5C-2.6-4.4,3.6-4.3,9.7-4.3C12.3-4.3,13.5-3.4,13.2-0.3z"/>
</g>
<g transform="matrix(1 0 0 1 642.8 282.06)">
	<path vector-effect="non-scaling-stroke" d="M9.5-44.2c15.8,0,31.1,0,46.5,0c8.7,0,12.9,4.2,12.9,12.9c0,21.6,0,43.3,0,64.9
		c0,7.4-2.8,10.6-10.1,10.6c-40.8,0.1-81.6,0-122.4,0.1c-3.9,0-5.2-1.5-5.2-5.4c0.1-23.5,0-47,0.1-70.4c0-8.1,4.6-12.6,12.8-12.6
		C-34.3-44.3-12.6-44.2,9.5-44.2 M-30-30.6c-6.3,0-12.7,0.2-19-0.1c-4.2-0.2-5.5,1.3-5.5,5.4c0.2,16.5,0.2,33,0,49.5
		c-0.1,4.4,1.4,5.7,5.7,5.7c32.7-0.2,65.3-0.2,98,0c4.6,0,6-1.4,6-6c-0.2-16.3-0.2-32.7,0-49c0.1-4.5-1.5-5.6-5.8-5.6
		C23.3-30.5-2.8-30.6-30-30.6z"/>
</g>
<g transform="matrix(1 0 0 1 643.62 341.32)">
	<path vector-effect="non-scaling-stroke" d="M78.1-1.2c-2.8,6.6-7.7,9.4-14.3,9.4c-42.5,0-85,0-127.4,0c-7.4,0-12.6-3.7-14.5-10
		c-1.5-5-0.6-6.3,4.6-6.4c18.2,0,36.3,0,54.5,0c30.8,0,61.6,0,92.5,0C79.2-8.1,79.6-7.5,78.1-1.2 M-17.1-1.5c-0.3,3.1,1.3,4,4.2,4
		c7.8-0.1,15.6,0,23.4,0c2.6,0,5.1,0.2,5-3.6c-0.1-3.8-2.6-3.6-5.2-3.6C2.2-4.5-5.9-3.8-14-4.6C-15.7-4.8-17-4.2-17.1-1.5z"/>
</g>
<g transform="matrix(1 0 0 1 540.91 481.07)">
	<path vector-effect="non-scaling-stroke" d="M12.3-9.7c4.9,8.3,4.1,16.3-1.9,21.7C5.2,16.6-3.3,17-9,12.8c-7.4-5.4-8.7-16.3-2.9-23
		C-5.2-17.7,4.7-17.6,12.3-9.7z"/>
</g>
<g transform="matrix(1 0 0 1 440.04 279.04)">
	<path vector-effect="non-scaling-stroke" d="M13.2-0.3c0.3,3.6-1.2,4.9-4.4,4.8C3,4.4-2.8,4.4-8.6,4.5c-3.1,0-4.6-1.4-4.6-4.5
		c0-3.1,1.4-4.6,4.5-4.5C-2.6-4.4,3.6-4.3,9.7-4.3C12.3-4.3,13.5-3.4,13.2-0.3z"/>
</g>
<g transform="matrix(1 0 0 1 439.54 294.6)">
	<path vector-effect="non-scaling-stroke" d="M-3.9,4.7c-3.9-0.4-8.7,1.4-8.5-5.1c0.1-2.9,1.1-4.3,4.1-4.3c5.5,0,10.9,0,16.4,0
		c3.3,0,4.2,1.7,4.3,4.7c0,3.1-1.3,4.7-4.3,4.7C4.2,4.7,0.4,4.7-3.9,4.7z"/>
</g>
<text transform="matrix(1.03 0 0 1 591 291.8168)" class="st1 st2">E</text>
<text transform="matrix(1.03 0 0 1 613.4521 291.8168)" class="st1 st3"> </text>
<text transform="matrix(1.03 0 0 1 617.5527 291.8168)" class="st1 st2">=</text>
<text transform="matrix(1.03 0 0 1 636.4824 291.8168)" class="st1 st4"> </text>
<text transform="matrix(1.03 0 0 1 641.9492 291.8168)" class="st1 st2">mc</text>
<text transform="matrix(1.03 0 0 1 676.9932 291.8168)" class="st1 st5"> </text>
<text transform="matrix(0.6005 0 0 0.583 681.1748 280.4413)" class="st1 st2">2</text>
</svg>
