<svg version="1.1" id="Layer_1" xmlns="http://www.w3.org/2000/svg" xmlns:xlink="http://www.w3.org/1999/xlink" x="0px" y="0px"
	 width="100%" viewBox="0 0 672 1024" enable-background="new 0 0 672 1024" xml:space="preserve">
<path fill="#000000" opacity="1.000000" stroke="none" 
	d="
M43.857048,358.777679 
	C48.645576,351.757446 47.241737,344.203857 46.269699,337.107513 
	C44.610447,324.994110 47.554188,317.787109 58.659607,311.758789 
	C65.618561,307.981232 69.503609,301.991974 71.274185,294.672852 
	C72.115410,291.195465 71.636864,287.385193 71.656418,283.725189 
	C71.718750,272.060547 75.480431,266.753845 86.222374,262.535706 
	C93.365578,259.730682 100.766579,256.888214 103.747406,248.878082 
	C105.114746,245.203751 105.637733,241.197281 106.374001,237.309311 
	C108.692955,225.063614 113.901337,219.950775 126.245178,218.857910 
	C138.272125,217.793106 146.227509,212.199799 150.329224,200.514465 
	C155.071182,187.005173 161.307938,182.871002 176.704315,183.856430 
	C189.251129,184.659470 197.291031,178.804581 203.377762,168.978806 
	C209.554184,159.008270 217.192871,155.653976 229.084381,158.073410 
	C232.007553,158.668152 234.944519,159.239716 237.901321,159.616440 
	C247.707169,160.865768 254.172058,154.781036 260.365295,148.756897 
	C268.143066,141.191528 278.237091,138.635727 287.991577,143.835846 
	C299.790161,150.125687 310.284302,148.463531 319.730408,139.967590 
	C328.740143,131.864120 338.377380,133.275940 347.276276,139.852173 
	C357.129272,147.133438 367.340942,149.115005 378.256989,142.167343 
	C379.227966,141.549377 380.338257,141.117554 381.429382,140.726257 
	C389.957855,137.667847 397.916595,138.129730 404.318268,145.258499 
	C414.455200,156.546844 426.788696,157.410248 440.410492,153.611877 
	C453.922241,149.844162 457.051605,154.461533 464.546722,164.797592 
	C468.816559,170.685898 473.878540,174.675217 480.853058,175.649063 
	C485.575348,176.308395 490.386505,176.789474 495.266205,176.447479 
	C504.197235,175.821518 510.582520,179.940140 514.443176,187.986206 
	C515.017700,189.183685 515.553894,190.404770 516.022583,191.647095 
	C520.199341,202.717758 528.324524,208.063705 540.017090,208.704041 
	C554.472595,209.495728 560.034607,214.135483 562.291199,228.581406 
	C564.223206,240.949524 571.753113,247.396973 582.831543,250.981720 
	C584.257324,251.443069 585.662659,251.967178 587.086792,252.433807 
	C596.898499,255.648895 601.032532,261.291382 601.231567,271.708435 
	C601.304565,275.525055 601.395203,279.303406 601.938049,283.135498 
	C602.904114,289.955688 606.864319,294.124054 612.362915,297.480988 
	C618.282227,301.094757 624.894653,303.901825 628.047546,310.840820 
	C629.889832,314.895172 630.732605,318.943604 629.851746,323.425629 
	C627.318054,336.317474 630.154663,347.128296 641.083130,355.692139 
	C651.609009,363.940552 652.409485,369.313110 647.875305,381.854065 
	C645.806824,387.575226 643.661011,393.309204 645.011108,399.794464 
	C645.988586,404.489990 648.586853,408.016571 651.433228,411.438263 
	C659.645996,421.311066 661.088196,431.352661 653.697327,442.499176 
	C648.160645,450.849457 647.602661,459.861694 652.043091,469.120392 
	C653.753296,472.686188 655.279175,476.338745 656.356323,480.247223 
	C658.377197,487.580170 656.184998,493.413574 651.165649,498.429962 
	C646.712219,502.880768 643.100342,507.599152 641.971619,514.048340 
	C641.349854,517.600708 641.302368,520.905273 642.395020,524.345886 
	C643.701172,528.458374 644.653809,532.660217 645.450439,536.926331 
	C647.207092,546.334167 643.618225,553.038757 635.928467,558.136047 
	C629.997437,562.067444 626.209534,567.576477 624.492737,574.528687 
	C623.580933,578.221008 624.507629,581.778870 624.919434,585.390503 
	C626.017273,595.019287 625.157532,604.146301 615.324524,609.050720 
	C602.598389,615.398071 595.053772,624.387573 595.394836,639.480225 
	C595.640930,650.372559 588.267029,656.091370 578.592957,659.150024 
	C575.108826,660.251648 571.469910,660.897339 568.285156,662.822876 
	C562.448669,666.351929 559.724243,671.897034 558.243652,678.273254 
	C557.085022,683.262878 556.095886,688.359558 551.148682,692.172791 
	C547.271729,686.041260 544.582520,679.752625 543.637085,672.805359 
	C543.277771,670.165039 545.585938,668.727783 547.216309,667.110779 
	C567.200623,647.291199 584.448669,625.363159 597.963684,600.629639 
	C614.680908,570.035828 627.065125,537.808350 632.398804,503.243835 
	C636.852112,474.384521 637.780457,445.387268 635.105896,416.178864 
	C632.119385,383.563873 622.820679,352.829407 609.158508,323.397797 
	C598.542847,300.529266 584.537964,279.678040 568.294800,260.284210 
	C542.296875,229.243637 510.637238,205.467728 474.516785,187.841660 
	C449.033783,175.406433 421.979828,167.386642 393.810516,162.758484 
	C372.343170,159.231415 350.904419,157.634827 329.251343,158.337662 
	C291.307739,159.569260 254.634033,166.961807 219.682816,182.003021 
	C196.214859,192.102432 173.969681,204.489838 153.765488,220.181549 
	C129.642670,238.916687 109.299492,261.280640 92.402710,286.721283 
	C73.340919,315.421661 59.951107,346.668854 52.040638,380.140106 
	C44.684120,411.267456 42.605862,442.869446 45.097408,474.801666 
	C46.277573,489.926941 48.068211,504.997253 51.504742,519.703796 
	C59.081478,552.128235 71.003128,582.923340 88.809235,611.239990 
	C100.177895,629.319397 112.809753,646.439392 127.682686,661.830627 
	C128.840256,663.028503 130.025803,664.203369 131.254135,665.328125 
	C138.379974,671.852844 138.443253,679.789307 131.322403,686.909607 
	C128.444901,686.048462 128.201416,683.217896 127.340919,681.055603 
	C124.519951,673.967102 119.510414,670.069214 112.074997,668.108154 
	C105.799324,666.453064 99.024872,665.442017 94.279922,659.872864 
	C89.942238,654.781738 90.352448,648.627319 89.936859,642.798645 
	C89.278397,633.563599 84.747917,627.263672 77.057030,622.777466 
	C75.043587,621.602966 73.027260,620.433472 71.013054,619.260254 
	C63.591953,614.938171 59.541897,608.826233 60.543068,599.909973 
	C60.802349,597.600952 60.586960,595.242554 60.753483,592.918518 
	C61.461750,583.033752 58.735703,575.016541 49.659603,569.589172 
	C38.386925,562.848328 35.519672,552.502930 39.937012,540.685242 
	C44.501820,528.472961 41.349552,519.362915 31.909292,510.959320 
	C23.788538,503.730377 23.167986,495.769867 28.310593,486.154694 
	C34.061039,475.403015 35.384396,464.912842 27.331171,454.401489 
	C20.462317,445.436096 19.179268,436.005615 26.796007,426.525391 
	C28.244457,424.722595 29.098377,422.449921 30.495096,420.596375 
	C36.475533,412.659851 36.056427,403.897491 31.605362,396.111023 
	C24.257544,383.257111 29.807508,373.526978 37.584492,366.326721 
	C39.922646,364.161926 42.089436,361.883820 43.857048,358.777679 
z"/>
<path fill="#000000" opacity="1.000000" stroke="none" 
	d="
M425.083130,506.137024 
	C401.098022,524.693115 374.399384,537.280273 346.334442,547.243469 
	C342.904785,548.461060 339.661530,549.759155 335.754364,548.221802 
	C309.384949,537.846680 283.558136,526.522827 260.341156,509.878540 
	C230.992325,488.838348 205.434128,464.478424 189.501450,431.398621 
	C179.974350,411.618225 175.152130,390.626801 174.692444,368.759705 
	C174.175049,344.148102 174.166534,319.523743 174.138565,294.904694 
	C174.119690,278.295624 174.538635,261.686249 174.563675,245.076752 
	C174.570053,240.842041 176.425964,239.715256 180.332138,239.619812 
	C224.120300,238.549866 265.995941,229.053802 305.769409,210.627518 
	C315.738678,206.008926 325.352448,200.665390 334.775574,195.011383 
	C338.380463,192.848404 341.791748,192.286118 345.526642,194.636612 
	C377.648804,214.852219 412.796051,226.948959 449.997772,233.562714 
	C466.207031,236.444412 482.416168,239.161194 498.969818,238.924805 
	C504.948029,238.839401 506.323792,240.286255 506.311371,246.291916 
	C506.226318,287.435211 506.628326,328.588531 505.833038,369.718506 
	C505.161865,404.431641 493.157166,435.350464 471.347870,462.506744 
	C457.999146,479.128082 442.179626,493.025726 425.083130,506.137024 
M209.882843,430.610809 
	C214.406311,438.792999 219.406647,446.677307 225.493500,453.781799 
	C243.619781,474.938690 264.795715,492.442047 288.645813,506.862457 
	C303.992920,516.141785 320.101013,523.459717 337.350189,528.314209 
	C339.860718,529.020752 342.189453,528.775513 344.667236,527.954285 
	C356.701385,523.966003 368.260681,518.973816 379.529572,513.120361 
	C411.317108,496.608826 438.679657,474.690338 460.774048,446.525238 
	C477.064819,425.758362 484.883057,401.577271 486.599121,375.404236 
	C487.073517,368.168121 484.848267,366.427460 477.416107,366.613831 
	C471.273926,366.767883 465.128204,366.941193 458.985718,366.893646 
	C445.066956,366.785950 431.133759,366.052368 417.234833,366.485138 
	C399.180084,367.047363 381.136169,366.395477 363.074463,366.910156 
	C337.475525,367.639557 311.842133,366.997284 286.219604,366.507538 
	C257.916748,365.966522 229.596390,366.341156 201.283646,366.320190 
	C194.020767,366.314819 192.540054,367.879120 193.438568,375.282715 
	C195.758026,394.394867 200.358322,412.856781 209.882843,430.610809 
M260.975311,246.612961 
	C247.357529,250.460495 233.604111,253.597153 219.590164,255.748901 
	C212.691010,256.808197 205.727631,257.195984 198.868546,258.408478 
	C196.634872,258.803314 193.729965,259.065063 193.586548,262.055969 
	C193.241348,269.255707 192.711853,276.507538 194.360245,284.592041 
	C197.443756,281.879456 199.659454,279.661041 202.145782,277.805206 
	C206.021667,274.912262 210.301819,276.393341 210.635696,281.010010 
	C211.344391,290.809540 211.177826,300.648285 210.650299,310.464600 
	C210.491425,313.420990 208.454773,314.437744 205.782486,314.182861 
	C203.018814,313.919312 202.380737,312.057495 202.497314,309.552399 
	C202.652069,306.226440 202.601685,302.890564 202.620499,299.558838 
	C202.669250,290.929626 202.665115,290.929596 194.573730,288.001343 
	C193.514496,288.794922 193.392853,289.967346 193.389679,291.140778 
	C193.334274,311.631317 193.267990,332.121918 193.272415,352.612488 
	C193.273209,356.255676 195.213409,357.914398 198.965149,357.942200 
	C215.101883,358.061584 231.259033,358.928467 247.367462,358.357849 
	C262.696136,357.814819 278.001129,358.232300 293.314606,358.044739 
	C305.936707,357.890106 318.563110,358.118347 331.187622,358.114349 
	C335.123657,358.113098 336.763489,356.020935 336.702606,352.072418 
	C336.569031,343.410614 336.663452,334.745300 336.664368,326.081421 
	C336.667999,291.592346 336.686340,257.103241 336.659546,222.614182 
	C336.655334,217.193863 335.396393,216.196854 330.906738,218.476151 
	C317.863342,225.098099 304.667786,231.220337 290.933044,236.423019 
	C281.292053,240.075027 271.714813,243.720016 260.975311,246.612961 
M487.020782,341.527161 
	C487.030792,319.566437 487.056030,297.605682 487.037354,275.644958 
	C487.033813,271.490143 487.605865,267.348572 487.004028,263.172485 
	C486.577332,260.211792 485.076935,258.643036 482.183807,258.417023 
	C474.888794,257.847168 467.687256,256.666840 460.493286,255.363586 
	C430.625153,249.952560 401.252167,242.862061 373.562927,229.999176 
	C366.164337,226.562210 358.793030,223.066498 351.413300,219.589050 
	C347.300537,217.651047 345.070984,218.779160 344.478424,223.209732 
	C344.302856,224.522217 344.381500,225.871658 344.381134,227.204163 
	C344.372040,260.370392 344.367126,293.536652 344.363647,326.702881 
	C344.362793,335.036102 344.432312,343.369934 344.346893,351.702240 
	C344.301575,356.123260 346.331329,358.054932 350.716187,358.063293 
	C355.207245,358.071838 359.697235,358.541321 364.188446,358.554230 
	C387.647247,358.621643 411.106323,358.609192 434.565277,358.622009 
	C449.397949,358.630127 464.230713,358.665588 479.063263,358.625793 
	C486.226013,358.606537 486.981323,357.798370 487.092499,350.512054 
	C487.133148,347.846588 487.049255,345.179291 487.020782,341.527161 
z"/>
<path fill="#000000" opacity="1.000000" stroke="none" 
	d="
M101.898636,600.148987 
	C109.289139,611.246582 115.818375,622.499939 124.382591,632.339539 
	C126.469635,634.737427 128.454865,637.289795 127.740143,640.804016 
	C127.369545,642.626221 126.752769,644.405762 124.698181,645.033508 
	C122.707436,645.641846 121.612450,644.263062 120.528343,642.984009 
	C110.831367,631.542908 102.009315,619.467346 94.121719,606.705383 
	C79.125542,582.442017 68.335663,556.372192 61.198750,528.824219 
	C55.936771,508.513397 52.732048,487.886047 51.481476,466.852509 
	C50.199200,445.285736 51.259171,423.914185 54.687710,402.717529 
	C62.593723,353.839417 81.281837,309.571503 112.428162,270.754974 
	C144.045273,231.351730 183.607544,202.860260 230.650192,184.890884 
	C259.232819,173.972885 288.836639,167.442703 319.547974,165.552155 
	C353.774445,163.445267 387.447235,166.496658 420.470398,175.160034 
	C469.001312,187.891708 511.169922,212.069382 546.758240,247.651215 
	C563.451904,264.341827 578.357788,282.330841 590.200623,302.813324 
	C608.277039,334.076874 621.097534,367.168182 626.488892,403.064728 
	C628.569580,416.918030 629.974915,430.815796 630.029663,444.747101 
	C630.167175,479.718842 625.658203,514.097778 614.330811,547.336670 
	C601.776428,584.176086 582.714661,617.308411 556.972717,646.553223 
	C554.771606,649.053833 552.705566,651.676575 550.445862,654.121643 
	C548.614319,656.103455 546.334595,657.198608 543.791870,655.483276 
	C541.294434,653.798401 542.068604,651.276489 542.960022,649.152588 
	C543.647156,647.515442 544.888550,646.050293 546.099365,644.702637 
	C569.379578,618.790955 587.547791,589.634460 600.363098,557.306824 
	C609.401306,534.507202 615.080566,510.773071 617.791687,486.311615 
	C620.296021,463.716797 620.278015,441.105103 618.512146,418.537750 
	C617.176086,401.462646 613.388489,384.733063 608.452271,368.287659 
	C594.273743,321.051239 568.611206,281.126099 532.679688,247.467026 
	C511.896118,227.997879 488.384613,212.652313 462.801636,200.670197 
	C440.768982,190.350952 417.505829,183.473236 393.443573,179.030029 
	C366.685181,174.089005 339.873932,173.289185 312.908630,175.482590 
	C288.595886,177.460266 265.065491,183.262711 242.042068,191.207352 
	C215.907684,200.225510 191.578705,212.742889 169.276581,229.087326 
	C139.696075,250.765839 116.160866,277.891113 97.651962,309.446289 
	C83.392441,333.756897 73.399063,359.732819 67.314957,387.262787 
	C62.218029,410.325897 61.044975,433.677734 61.210316,457.194794 
	C61.533512,503.164703 72.596741,546.337585 94.241600,586.874573 
	C96.598030,591.287781 99.151413,595.558228 101.898636,600.148987 
z"/>
<path fill="#000000" opacity="1.000000" stroke="none" 
	d="
M615.772705,730.789673 
	C619.777344,725.442139 623.546936,720.362793 627.332031,715.294983 
	C628.128235,714.228943 628.892212,713.116455 629.826904,712.180969 
	C631.699036,710.307129 633.853882,707.677979 636.598145,709.597656 
	C639.618347,711.710327 637.893860,714.665527 636.379395,717.144043 
	C617.380005,748.237122 593.794434,775.374695 566.346375,799.316772 
	C532.896118,828.494141 494.939819,849.821167 453.345520,864.772278 
	C422.376526,875.904114 390.503876,882.995178 357.478668,884.380127 
	C334.484436,885.344299 311.576385,884.433472 288.863525,880.868591 
	C256.619385,875.807678 225.869507,865.687195 196.328522,851.904480 
	C147.362381,829.058472 105.935234,796.578796 71.856491,754.613220 
	C62.168850,742.683655 53.889011,729.797058 44.979839,717.337769 
	C44.307507,716.397583 43.771469,715.333679 43.325184,714.263428 
	C42.369701,711.972046 42.741261,710.061584 45.061321,708.727905 
	C47.391914,707.388123 48.878529,708.650574 50.120926,710.360474 
	C53.349316,714.803833 56.377468,719.396729 59.700092,723.766846 
	C84.088745,755.843811 112.823540,783.350830 146.164017,806.043213 
	C174.845917,825.564880 205.551697,841.151123 238.521774,851.787231 
	C264.816254,860.269897 291.864777,865.662354 319.544250,867.764465 
	C367.720764,871.423218 414.056641,863.319824 458.964050,846.327209 
	C501.975250,830.051941 540.185852,805.857788 574.418335,775.188904 
	C589.477295,761.697510 602.945557,746.805603 615.772705,730.789673 
z"/>
<path fill="#000000" opacity="1.000000" stroke="none" 
	d="
M195.455750,556.926392 
	C198.157791,557.553467 200.401566,558.182556 202.682175,558.619019 
	C211.956924,560.393921 218.817398,565.098206 222.538757,574.103149 
	C226.833054,584.494507 223.296722,592.914307 216.320404,600.538940 
	C214.078064,602.989624 211.722168,605.401306 208.663651,606.882446 
	C205.377014,608.473999 204.720993,610.869934 206.748596,613.750244 
	C213.360321,623.142456 220.055466,632.476685 226.793930,641.778564 
	C228.409882,644.009277 231.017395,644.935120 233.398758,646.142029 
	C235.799667,647.358826 237.568100,649.241028 236.727203,652.126526 
	C235.874573,655.052368 233.374023,654.676025 230.940277,654.556702 
	C226.450516,654.336609 221.940628,654.216614 217.450882,654.379211 
	C210.608780,654.626953 205.658279,651.609314 201.887726,646.152405 
	C196.019775,637.659912 189.851456,629.370483 184.699875,620.397339 
	C183.875885,618.962158 182.872375,617.605225 181.794281,616.347168 
	C180.541519,614.885437 178.888123,613.968262 176.915573,614.531921 
	C174.773376,615.144043 173.499771,616.828613 173.468338,618.967285 
	C173.372925,625.460205 173.334747,631.962646 173.592957,638.448669 
	C173.737656,642.083374 175.651855,644.573242 179.506699,645.504089 
	C182.250168,646.166565 185.298813,647.132996 184.613434,651.012878 
	C183.971405,654.647339 180.947128,654.931580 178.050446,655.056274 
	C165.737686,655.586365 153.459518,653.478882 141.126968,654.563721 
	C139.240112,654.729614 137.443100,653.769043 136.993042,651.638123 
	C136.516556,649.382141 137.597000,647.102783 139.610733,646.853271 
	C152.466507,645.260559 150.618484,635.447571 150.377731,627.165955 
	C150.130737,618.670044 150.097504,610.183777 150.135849,601.694336 
	C150.172699,593.536316 150.467270,585.379761 150.604340,577.221802 
	C150.721924,570.223267 149.131439,567.785400 142.561172,565.190247 
	C140.093842,564.215637 138.569794,562.771301 138.931152,559.989685 
	C139.330963,556.911987 141.598572,556.582764 144.108917,556.595947 
	C161.077362,556.684753 178.049622,555.954651 195.455750,556.926392 
M176.172531,566.728577 
	C174.959991,567.970459 174.258469,569.471497 174.252701,571.192383 
	C174.221008,580.647705 174.188034,590.103516 174.263962,599.558350 
	C174.286667,602.384644 175.767456,604.163330 178.715607,604.649414 
	C185.557251,605.777405 194.682571,601.801331 198.220200,596.071350 
	C202.722717,588.778564 202.063019,580.329895 197.079941,573.244080 
	C193.076004,567.550598 183.540894,564.040588 176.172531,566.728577 
z"/>
<path fill="#000000" opacity="1.000000" stroke="none" 
	d="
M373.473663,641.055237 
	C373.590973,618.671814 373.661621,596.697876 373.594360,574.724365 
	C373.579163,569.751343 371.281097,566.212952 366.188843,564.740662 
	C364.012085,564.111328 361.386597,563.396240 361.792908,560.240906 
	C362.231293,556.836243 365.169006,556.796387 367.564911,556.780640 
	C385.043091,556.665466 402.529358,556.419495 419.996643,556.862549 
	C424.992584,556.989258 430.140381,558.386108 434.849945,560.735840 
	C450.139648,568.364380 453.707550,585.842346 442.563660,598.872925 
	C439.603943,602.333740 436.014435,605.030640 432.135834,607.325684 
	C429.233978,609.042786 428.646484,610.959106 430.626740,613.832520 
	C436.857971,622.873962 442.976959,631.992798 449.150208,641.074280 
	C450.811371,643.517944 453.369751,644.743408 455.892609,646.054321 
	C458.228455,647.268127 460.137878,649.007202 459.530579,651.939697 
	C458.900177,654.983704 455.951111,654.995300 453.873352,654.912842 
	C447.258057,654.650635 440.518890,654.660706 434.135193,652.799316 
	C429.444031,651.431396 426.811310,647.169922 424.189728,643.323547 
	C419.317322,636.174744 414.631836,628.898621 409.864532,621.678040 
	C409.222931,620.706360 408.639313,619.680847 407.888519,618.799805 
	C405.868011,616.428711 404.080444,613.293274 400.179199,614.775452 
	C396.507446,616.170471 397.199341,619.520081 397.210663,622.477356 
	C397.231110,627.804871 397.387054,633.135620 397.247437,638.458740 
	C397.143005,642.439758 398.839203,644.815002 402.688110,645.580383 
	C405.702179,646.179626 408.475220,647.271179 408.065369,650.868835 
	C407.619965,654.779236 404.210022,654.369812 401.426727,654.381165 
	C389.805756,654.428345 378.184418,654.420410 366.563324,654.389587 
	C364.301819,654.383606 362.129547,654.032776 361.800110,651.134766 
	C361.471588,648.244690 363.526550,647.051147 365.599518,645.875671 
	C368.192169,644.405640 372.243317,645.505920 373.473663,641.055237 
M399.932770,566.171997 
	C397.691406,567.640808 396.388885,569.665894 396.383484,572.390198 
	C396.366302,581.050537 396.345856,589.711121 396.392120,598.371216 
	C396.410461,601.802368 398.030823,604.400757 401.570251,604.577271 
	C408.581299,604.926880 415.213409,603.593140 420.160400,598.002808 
	C425.512848,591.954346 426.217590,583.153076 422.121338,575.609192 
	C417.715912,567.495911 410.996704,564.435486 399.932770,566.171997 
z"/>
<path fill="#000000" opacity="1.000000" stroke="none" 
	d="
M313.204498,634.663513 
	C308.299225,620.414673 310.849335,622.533691 296.765717,622.353760 
	C292.104126,622.294250 287.437775,622.452332 282.779999,622.306458 
	C279.712921,622.210449 277.626984,623.372009 276.530670,626.202759 
	C274.848267,630.546936 273.176575,634.896545 271.597076,639.278748 
	C270.553864,642.173157 271.436920,644.098877 274.618164,644.851379 
	C276.054535,645.191040 277.568604,645.656311 278.762085,646.478699 
	C281.670563,648.482788 281.208801,652.140564 277.955261,653.538574 
	C277.054932,653.925476 276.040009,654.205383 275.067383,654.239258 
	C266.758606,654.528320 258.448517,654.819885 250.136353,654.947571 
	C247.677155,654.985413 244.764267,654.982788 244.150055,651.741394 
	C243.573837,648.700378 245.791641,647.075012 248.248795,646.280579 
	C255.578461,643.911011 257.122742,637.118835 259.491241,631.293884 
	C268.884155,608.193481 277.911743,584.944702 287.108429,561.764221 
	C287.591461,560.546814 288.191803,559.273560 289.065826,558.330750 
	C293.856598,553.163147 309.278748,556.075134 311.703857,562.621948 
	C320.307312,585.847656 328.831085,609.102844 337.422363,632.333130 
	C339.751465,638.630859 342.126343,644.844177 349.706787,646.874451 
	C352.060120,647.504639 353.722809,649.545166 353.062561,652.279175 
	C352.356293,655.203796 349.894073,655.396362 347.455261,655.078613 
	C336.507660,653.652100 325.523438,654.575745 314.555298,654.483154 
	C313.062592,654.470520 311.557434,654.448792 310.082001,654.251770 
	C308.267822,654.009460 307.014435,653.036499 306.809326,651.062622 
	C306.605042,649.097046 307.081024,647.422668 308.856415,646.318359 
	C315.667084,642.082153 315.668243,642.084045 313.204498,634.663513 
M298.561737,591.844482 
	C297.967194,590.291565 297.400726,588.727173 296.769196,587.189453 
	C296.268036,585.969116 295.851715,584.564453 294.237579,584.422546 
	C292.560699,584.275208 291.895294,585.633240 291.434540,586.838257 
	C288.424194,594.710815 285.500519,602.616516 282.428833,610.831482 
	C288.292419,613.567627 293.785675,611.614990 299.105438,611.716309 
	C303.292542,611.796143 304.565948,609.275146 303.145569,605.329041 
	C301.625763,601.106873 300.225494,596.841614 298.561737,591.844482 
z"/>
<path fill="#000000" opacity="1.000000" stroke="none" 
	d="
M493.141907,793.065735 
	C498.510254,789.979980 503.538116,787.040100 508.578766,784.122314 
	C511.452087,782.458984 514.231018,780.578979 517.774841,780.594604 
	C519.499634,780.602234 521.220581,780.537598 521.984802,782.458923 
	C522.710693,784.283875 521.773376,785.752930 520.491211,786.889465 
	C519.001953,788.209412 517.386230,789.404114 515.737793,790.524170 
	C488.362610,809.122986 458.546844,822.253357 426.776398,831.478333 
	C391.331360,841.770203 355.219788,845.419006 318.626160,842.803772 
	C278.237885,839.917419 239.737320,829.216187 203.226456,811.476990 
	C190.917877,805.496704 179.291504,798.368896 167.520416,791.472168 
	C165.102509,790.055603 162.931107,788.166321 160.816864,786.301331 
	C159.345398,785.003357 158.663742,783.203552 159.980347,781.393982 
	C161.199402,779.718628 163.032211,779.359253 164.906799,780.081604 
	C166.450928,780.676514 167.908875,781.517395 169.358627,782.331848 
	C194.367508,796.381470 219.950043,809.154358 247.523087,817.503174 
	C267.305359,823.493042 287.433441,827.601074 308.019989,829.838196 
	C327.648804,831.971252 347.267975,832.203674 366.852112,830.530151 
	C399.024536,827.780823 430.244904,820.611206 460.193298,808.330017 
	C471.286926,803.780762 482.301819,799.047424 493.141907,793.065735 
z"/>
<path fill="#000000" opacity="1.000000" stroke="none" 
	d="
M518.290405,639.385986 
	C521.419617,637.747070 523.821411,635.463440 526.985229,634.824402 
	C529.054688,634.406372 531.479797,633.919861 532.776001,636.365601 
	C533.934814,638.552124 533.124451,640.520752 531.578613,642.299194 
	C525.438843,649.363159 517.753967,654.059021 508.527863,655.112000 
	C483.616211,657.954956 468.902527,646.249817 465.415802,621.417969 
	C462.571014,601.157898 480.477936,580.727722 500.796387,581.052002 
	C517.880859,581.324707 528.589905,588.701965 532.605408,602.963562 
	C532.650452,603.123657 532.720459,603.276855 532.763062,603.437500 
	C535.578918,614.058838 533.155640,617.186707 522.187622,617.187866 
	C512.529175,617.188843 502.870483,617.211182 493.212402,617.287964 
	C487.866608,617.330505 486.791199,618.754578 487.855438,624.071960 
	C490.748108,638.524719 503.527008,645.099548 518.290405,639.385986 
M490.705566,595.218994 
	C488.752686,597.387817 487.763763,600.023499 487.366516,602.832336 
	C486.986023,605.522888 488.075195,607.509277 491.040070,607.572510 
	C496.330597,607.685242 501.631317,607.732727 506.916809,607.526489 
	C510.528748,607.385559 512.267273,605.325073 511.693451,601.569641 
	C511.023499,597.185242 508.798157,593.555176 504.840820,591.925232 
	C499.994415,589.929077 495.070648,590.381287 490.705566,595.218994 
z"/>
<path fill="#000000" opacity="1.000000" stroke="none" 
	d="
M476.839050,677.902649 
	C476.910858,678.614502 476.973145,679.149231 476.803436,679.237427 
	C469.792999,682.880920 471.349487,689.429871 471.311981,695.412476 
	C471.271271,701.909119 471.340088,708.406494 471.284668,714.902893 
	C471.261810,717.580811 471.563263,719.906677 474.697479,720.733826 
	C476.325195,721.163391 477.309082,722.307434 477.001434,724.064636 
	C476.689392,725.846680 475.212555,726.473633 473.654633,726.490784 
	C468.168457,726.551331 462.680481,726.507263 457.193939,726.440674 
	C455.724213,726.422852 454.659729,725.639465 454.292816,724.154602 
	C453.958923,722.803284 454.672119,721.761047 455.776825,721.296326 
	C458.893951,719.985168 458.941437,717.357300 458.951691,714.626709 
	C458.971130,709.464783 459.083221,704.302307 459.029541,699.141418 
	C459.011444,697.400757 459.495331,695.466003 457.628601,693.624573 
	C454.426178,696.789978 453.225403,700.967285 451.514862,704.764832 
	C448.782562,710.830688 446.375763,717.042908 443.813171,723.185669 
	C443.120697,724.845581 442.689331,727.011169 440.382812,726.921875 
	C438.197876,726.837219 437.592957,724.750244 436.925629,723.084412 
	C434.018982,715.828857 431.241608,708.521118 428.291901,701.283447 
	C427.657867,699.727600 427.598541,697.559204 424.337646,696.960083 
	C424.069427,704.006897 423.719208,710.869934 424.558350,717.741760 
	C424.776245,719.526306 426.468506,720.312561 428.070374,720.972290 
	C429.264984,721.464355 429.824371,722.543030 429.665985,723.804443 
	C429.471924,725.350220 428.362396,726.175781 426.905762,726.200684 
	C422.411346,726.277832 417.914612,726.253723 413.419220,726.215210 
	C412.161926,726.204407 411.134918,725.638550 410.803772,724.320251 
	C410.406464,722.738647 411.257935,721.728577 412.604156,721.178162 
	C416.164764,719.722290 416.731476,716.844055 416.699677,713.429016 
	C416.620605,704.935425 416.663300,696.439880 416.754547,687.946106 
	C416.785736,685.040039 416.192383,682.680115 413.152435,681.544922 
	C411.635406,680.978333 410.471588,679.959595 411.002533,678.148621 
	C411.556763,676.258179 413.182526,675.589355 414.937805,675.770874 
	C418.576569,676.147461 422.181305,675.995178 425.825867,675.886963 
	C429.280731,675.784302 432.075439,677.401489 433.622803,680.995117 
	C435.727203,685.882568 438.031952,690.671448 439.654175,695.763123 
	C440.389893,698.072327 441.024048,700.559143 443.101898,702.112915 
	C446.179169,701.442932 446.552704,698.842407 447.428955,696.831360 
	C449.887207,691.189636 452.184723,685.476135 454.449890,679.753052 
	C455.380493,677.401855 456.748444,675.462097 459.392120,675.464294 
	C464.525604,675.468628 469.661987,675.747009 474.788177,676.059387 
	C475.459686,676.100220 476.078247,677.009949 476.839050,677.902649 
z"/>
<path fill="#000000" opacity="1.000000" stroke="none" 
	d="
M303.899780,677.942627 
	C304.539764,675.762939 306.121887,675.455139 307.593079,675.634033 
	C316.858429,676.760620 326.143372,675.415344 335.475739,676.313110 
	C346.546875,677.378052 357.999115,688.610474 355.026123,704.313110 
	C352.536865,717.460999 342.644806,725.876770 329.111542,726.277283 
	C321.790771,726.493958 314.457001,726.274292 307.129089,726.246460 
	C305.406982,726.239929 303.631134,726.121948 303.124146,724.080444 
	C302.676910,722.279541 303.968872,721.323059 305.394928,720.676392 
	C308.080902,719.458313 308.699524,717.176025 308.813385,714.529114 
	C309.056427,708.879700 309.437256,703.235413 309.617462,697.584412 
	C309.841736,690.551270 310.860809,683.232178 303.899780,677.942627 
M322.090851,683.682617 
	C320.209503,694.359192 320.688965,705.168152 320.680328,715.911987 
	C320.677032,720.008362 324.763245,721.021790 328.255066,720.505188 
	C333.971863,719.659485 338.736145,716.940674 340.980255,711.260864 
	C343.811005,704.096375 343.454193,696.803162 340.390167,689.863037 
	C337.395264,683.079407 328.244171,679.839050 322.090851,683.682617 
z"/>
<path fill="#000000" opacity="1.000000" stroke="none" 
	d="
M379.283997,684.459106 
	C378.927643,687.160278 378.547424,689.461426 378.437622,691.775330 
	C378.327942,694.087036 379.071930,696.096436 381.519379,696.917419 
	C383.808655,697.685303 385.273621,696.247986 386.727783,694.817627 
	C388.062225,693.505127 388.763672,690.825684 391.294952,691.803162 
	C393.861450,692.794434 393.192993,695.395264 393.234222,697.485046 
	C393.283386,699.978638 393.277771,702.480896 393.118896,704.968079 
	C393.020844,706.503540 392.420319,707.990417 390.750244,708.452148 
	C388.989960,708.938721 387.945282,707.750732 387.153015,706.413208 
	C385.994537,704.457397 385.312286,701.700745 382.176147,702.686829 
	C379.155396,703.636719 378.630310,706.367676 378.384644,709.113342 
	C378.340271,709.609436 378.310089,710.115845 378.356201,710.609680 
	C378.679321,714.072021 377.026093,718.257812 381.532257,720.260620 
	C385.556030,722.048889 392.205719,720.224609 395.333954,716.827087 
	C397.021881,714.993835 397.885437,711.129211 401.081604,712.313538 
	C404.622406,713.625549 403.017151,717.491821 403.281860,720.317993 
	C403.679077,724.559814 401.617676,726.375122 397.403107,726.343445 
	C386.253113,726.259705 375.101990,726.333191 363.951416,726.303040 
	C362.329376,726.298645 360.336426,726.557129 359.757080,724.483643 
	C359.121094,722.207581 361.110077,721.708984 362.644989,721.196045 
	C365.659698,720.188477 366.653320,718.018433 366.667572,715.052612 
	C366.708405,706.565918 366.862122,698.079590 366.870758,689.593018 
	C366.874237,686.177612 366.266754,682.950562 362.971100,680.927002 
	C361.756042,680.180908 361.071747,678.936218 361.544128,677.503357 
	C362.038116,676.005005 363.445190,675.760986 364.821716,675.759766 
	C375.469482,675.750122 386.117340,675.739502 396.764923,675.788452 
	C398.698059,675.797302 400.785034,676.471191 400.980255,678.547668 
	C401.265472,681.580872 402.953247,684.988159 400.666412,687.680481 
	C398.508850,690.220642 396.667999,687.848938 395.464600,686.208801 
	C392.460938,682.115173 388.486481,680.897217 383.660339,681.343262 
	C381.677246,681.526550 380.066681,681.988708 379.283997,684.459106 
z"/>
<path fill="#000000" opacity="1.000000" stroke="none" 
	d="
M146.341583,717.271973 
	C151.688934,706.861023 154.887329,696.002014 158.726822,685.390198 
	C159.234909,683.985901 159.785675,682.597107 160.313446,681.199951 
	C161.528702,677.982666 162.940674,674.960571 167.085297,674.926941 
	C171.505478,674.890991 172.876862,678.206543 174.171249,681.519348 
	C177.313705,689.562012 180.121490,697.750916 183.622421,705.632935 
	C186.113907,711.242371 186.772293,717.831665 192.578247,721.881897 
	C194.928818,723.521729 192.854721,725.895813 190.727341,726.010193 
	C184.937729,726.321472 179.085754,726.435913 173.325195,725.904968 
	C170.577942,725.651672 169.140381,723.335144 172.308304,721.189819 
	C174.475784,719.721985 175.101547,717.967712 174.361481,715.665405 
	C173.548126,713.135071 172.783264,710.591248 169.414352,710.138733 
	C166.449966,709.740662 163.566559,708.993225 160.553543,709.899475 
	C155.150131,711.524658 153.658081,716.725098 157.522522,720.901306 
	C158.470047,721.925232 159.502228,722.905701 158.781342,724.336670 
	C158.017960,725.851929 156.556686,726.230164 154.934845,725.868713 
	C152.134018,725.244629 149.326859,725.160400 146.539307,725.868042 
	C144.051697,726.499573 141.593506,726.288696 140.461212,723.877014 
	C139.033997,720.837280 142.262924,720.622742 143.828308,719.446167 
	C144.620438,718.850830 145.371445,718.200745 146.341583,717.271973 
M168.128464,702.701660 
	C168.768265,698.752502 167.726044,695.439209 164.373581,692.328979 
	C161.833496,695.467041 160.083221,698.666626 161.387238,702.027161 
	C162.296463,704.370300 165.268600,703.933167 168.128464,702.701660 
z"/>
<path fill="#000000" opacity="1.000000" stroke="none" 
	d="
M254.787842,711.801758 
	C258.596405,701.459900 262.277374,691.474670 265.911774,681.472595 
	C267.108765,678.178406 268.740326,675.201843 272.649506,675.017944 
	C276.769287,674.824280 278.146362,678.002991 279.411774,681.241699 
	C283.465820,691.617371 287.582275,701.968872 291.730072,712.307495 
	C293.083130,715.679993 294.139435,719.272522 297.735992,721.188843 
	C298.822083,721.767700 299.380829,722.858704 299.001678,724.164551 
	C298.626648,725.456299 297.534363,726.089172 296.363190,726.102539 
	C290.747131,726.166992 285.096802,726.454712 279.525482,725.940002 
	C276.458984,725.656677 275.039246,723.472473 278.077026,720.822937 
	C280.593536,718.628113 280.103790,716.034973 279.020264,713.531128 
	C277.343933,709.657471 273.841675,709.317505 270.185608,709.379944 
	C266.592377,709.441284 263.143494,709.562744 261.467682,713.639343 
	C260.366669,716.317627 259.828339,718.732483 262.674103,720.697327 
	C263.784485,721.463989 264.878296,722.379333 264.205597,723.974854 
	C263.658386,725.272827 262.409454,725.298401 261.237335,725.355347 
	C257.253693,725.549072 253.269623,725.735779 249.285202,725.913391 
	C247.840515,725.977783 246.608047,725.539368 246.073303,724.087402 
	C245.511993,722.563354 246.283020,721.380188 247.571426,720.793823 
	C251.383545,719.058838 253.205505,715.782959 254.787842,711.801758 
M271.081818,693.676697 
	C266.431396,693.865112 266.364319,698.085388 266.844604,700.433838 
	C267.601807,704.136597 271.037109,702.848022 273.697479,702.169373 
	C273.611420,698.398865 273.611420,698.398865 271.081818,693.676697 
z"/>
<path fill="#000000" opacity="1.000000" stroke="none" 
	d="
M511.941833,714.969849 
	C512.143677,717.635681 512.746887,719.627014 515.051392,720.669983 
	C516.374756,721.268860 517.261047,722.253601 516.861267,723.813782 
	C516.431396,725.491638 515.137939,726.335938 513.508850,726.244019 
	C507.901703,725.927795 502.314972,725.341858 496.686066,726.144470 
	C495.297882,726.342407 494.196594,725.303284 493.869934,723.804443 
	C493.629028,722.699097 494.090698,721.843872 495.025696,721.277710 
	C497.130341,720.003174 499.642426,719.149353 499.726593,716.026184 
	C499.833801,712.047913 500.536682,707.950867 498.549194,704.267761 
	C495.392334,698.417603 491.998352,692.695190 488.695648,686.923828 
	C487.262634,684.419617 485.367462,682.396912 482.803986,680.973389 
	C481.610016,680.310425 480.682831,679.233093 481.138031,677.686096 
	C481.584534,676.168518 482.870209,675.795410 484.278442,675.738098 
	C489.547272,675.523438 494.729462,676.852722 500.109985,676.078674 
	C502.670593,675.710266 505.308441,677.466003 502.896790,681.315674 
	C501.312164,683.845276 505.073395,692.623230 507.782715,693.947693 
	C508.833649,694.461487 509.785461,694.437012 510.491486,693.592957 
	C512.851868,690.771179 514.846802,687.693481 516.162659,684.246765 
	C516.814636,682.539062 515.181274,682.121643 514.220581,681.251892 
	C511.790192,679.051453 512.366394,676.421509 515.630432,676.032715 
	C519.731384,675.544312 523.926941,675.791199 528.080383,675.838196 
	C529.336182,675.852356 530.191895,676.734924 530.611511,677.939575 
	C530.996948,679.046326 530.606140,680.094421 529.670166,680.509888 
	C523.025879,683.459595 521.536682,690.329529 518.155212,695.695557 
	C514.554932,701.408569 510.283173,707.055969 511.941833,714.969849 
z"/>
<path fill="#000000" opacity="1.000000" stroke="none" 
	d="
M224.173035,719.761597 
	C230.182175,719.977112 234.342941,716.961792 238.390518,713.655151 
	C239.633896,712.639343 240.974548,710.979492 242.660553,712.664795 
	C244.165863,714.169434 243.704300,716.003845 242.648666,717.713074 
	C240.202667,721.673462 236.095566,723.382080 232.133698,724.974609 
	C217.762466,730.751526 202.342346,724.195312 197.049118,710.300964 
	C191.788132,696.491272 198.653519,681.565674 213.143021,676.300354 
	C221.813232,673.149597 230.220428,675.181396 238.076660,679.507629 
	C240.402191,680.788330 242.121887,688.154724 240.792313,690.394714 
	C239.485458,692.596497 237.672806,692.847290 235.940033,690.846741 
	C234.746048,689.468262 233.878525,687.808777 232.697754,686.416809 
	C226.175644,678.728210 216.013718,679.886353 211.277969,688.818726 
	C205.344604,700.009949 209.638000,715.118164 219.880081,718.935303 
	C221.104401,719.391602 222.463669,719.485779 224.173035,719.761597 
z"/>
<path fill="#000000" opacity="1.000000" stroke="none" 
	d="
M149.011078,753.989685 
	C154.967834,748.615173 157.050507,748.450256 164.210190,753.002441 
	C168.722916,748.722046 174.315475,750.049255 179.728592,750.723572 
	C181.090210,750.893188 182.246323,750.937500 183.567749,750.598267 
	C188.311188,749.380554 190.464462,750.834290 191.075287,755.686707 
	C191.485001,758.941345 191.052444,762.305298 192.715332,765.443787 
	C190.049927,767.355408 187.681274,767.421265 185.303421,765.850159 
	C184.474686,763.446899 186.842087,762.010803 186.541748,759.967346 
	C186.285492,758.223816 186.670807,755.686157 184.294205,755.618958 
	C181.843109,755.549500 181.858643,758.029846 182.024689,759.816284 
	C182.204819,761.754395 182.821899,763.651917 183.496384,766.680359 
	C176.698502,766.165283 170.173676,768.291199 163.536972,764.340759 
	C160.465012,766.403625 156.810577,768.807312 152.627701,765.742493 
	C148.893570,763.006409 147.600464,759.257385 148.912613,754.362000 
	C149.000534,753.999634 149.011078,753.989685 149.011078,753.989685 
M158.036209,754.658447 
	C154.317398,753.738647 153.639984,756.260803 153.751648,758.894653 
	C153.830139,760.745789 155.124298,762.733093 157.239853,762.413452 
	C160.562012,761.911499 159.838242,759.132385 159.514023,756.850098 
	C159.427490,756.240723 158.914001,755.691895 158.036209,754.658447 
M174.726776,754.800903 
	C171.235397,758.190308 171.315308,760.716919 175.178558,763.785278 
	C176.961716,760.794250 177.835175,757.891541 174.726776,754.800903 
z"/>
<path fill="#000000" opacity="1.000000" stroke="none" 
	d="
M512.380493,750.598572 
	C513.338745,752.071228 513.978821,753.393799 514.868469,755.232178 
	C519.750549,751.067322 524.982971,746.856506 530.436096,753.790100 
	C533.000122,757.050171 533.101440,760.959595 530.065063,764.299133 
	C526.805786,767.883972 522.891663,767.838867 516.763489,764.129822 
	C515.663757,765.874268 514.270569,767.491821 511.809753,767.175964 
	C508.379456,766.735779 504.969238,766.288513 501.507751,767.211487 
	C500.225952,767.553162 498.706024,767.114807 497.866058,766.007874 
	C494.756317,761.910034 496.746613,756.660522 494.886902,752.121765 
	C494.097595,750.195496 496.461639,748.036377 498.707703,746.478943 
	C500.620972,748.707703 502.919128,750.405762 505.773010,752.095703 
	C503.422272,754.369751 500.351562,755.703613 501.211975,759.625549 
	C501.788269,762.252380 503.341919,762.661987 505.375183,762.998230 
	C507.948944,763.423889 508.582733,761.678589 508.790527,759.766052 
	C508.949371,758.304260 509.070068,756.657410 508.565033,755.339111 
	C507.175415,751.711853 508.449127,750.328613 512.380493,750.598572 
M524.908997,754.857727 
	C521.170349,753.661072 520.499817,756.232544 520.593994,758.825012 
	C520.669189,760.893677 522.164124,762.939087 524.429565,762.502625 
	C527.486877,761.913635 527.157898,759.257080 526.571533,756.911194 
	C526.423035,756.317200 525.865723,755.825317 524.908997,754.857727 
z"/>
<path fill="#000000" opacity="1.000000" stroke="none" 
	d="
M339.846619,756.619934 
	C342.579102,758.636353 344.158661,760.904297 342.187683,763.975708 
	C340.365814,766.814819 337.520691,767.885376 334.382446,766.657898 
	C332.039246,765.741333 330.043427,765.746399 327.701874,766.569397 
	C325.693115,767.275391 323.442505,767.318970 321.297668,765.524048 
	C322.027222,762.982666 323.240234,760.393188 322.728210,757.519470 
	C322.469482,756.067261 322.005188,754.760742 320.416046,754.763611 
	C318.802002,754.766541 318.348389,756.147644 318.130432,757.561035 
	C317.718109,760.234741 318.421295,762.818970 318.866730,765.642395 
	C316.258881,767.054810 313.842163,766.650085 311.109375,765.446838 
	C312.701599,761.566650 313.640045,757.748230 311.856049,753.837708 
	C311.234741,752.475830 311.838013,751.648804 312.980377,750.982117 
	C320.273865,746.725525 327.650238,750.526672 328.119873,758.777832 
	C328.193298,760.067383 327.880280,761.464417 329.271698,762.841064 
	C331.546722,760.181091 334.371368,761.920410 337.257050,762.468811 
	C336.787506,760.004456 334.718292,759.951843 333.566315,758.874939 
	C330.999115,756.474976 330.787262,753.922241 333.221466,751.526794 
	C335.788513,749.000732 338.757416,749.302307 341.233978,751.696594 
	C343.687592,754.068726 340.422546,754.941589 339.846619,756.619934 
z"/>
<path fill="#000000" opacity="1.000000" stroke="none" 
	d="
M306.474426,751.314575 
	C310.694366,755.661133 311.320068,760.317505 308.458679,763.964233 
	C305.484100,767.755371 301.802277,767.880371 295.285370,764.212769 
	C292.724762,767.901550 289.466736,767.008728 285.730438,765.289978 
	C287.518250,761.624817 288.568085,758.006104 287.106323,754.222778 
	C286.300751,752.137878 287.043365,751.076111 289.045868,750.589905 
	C291.169281,750.074341 292.136017,751.048157 292.380859,753.090576 
	C292.512115,754.185364 292.115692,755.456726 293.260590,756.289246 
	C297.883942,749.800659 300.471680,748.756897 306.474426,751.314575 
M302.332428,753.776001 
	C298.450226,754.773254 297.804749,757.260193 299.510986,760.483276 
	C300.326691,762.024048 301.685577,764.129578 303.713654,762.460083 
	C306.284180,760.343994 306.045593,757.543091 304.072662,754.944275 
	C303.783112,754.562927 303.318604,754.314331 302.332428,753.776001 
z"/>
<path fill="#000000" opacity="1.000000" stroke="none" 
	d="
M214.034424,748.040344 
	C211.795975,747.074707 209.879715,746.941589 209.477219,749.467712 
	C209.096924,751.854370 211.134644,751.913330 212.825150,752.049683 
	C214.042908,752.147949 215.257828,752.365601 215.355301,753.877258 
	C215.458389,755.476440 214.258286,755.761047 213.016617,755.759155 
	C211.251343,755.756409 209.530930,755.895752 209.242905,758.075500 
	C209.049591,759.538391 208.925217,761.231934 210.356674,762.193970 
	C212.095490,763.362793 213.837524,762.872192 215.420044,761.642944 
	C216.179184,761.053162 216.824768,760.200073 217.950821,760.370850 
	C219.982666,764.729980 219.029205,766.701111 214.728333,767.100220 
	C214.068893,767.161377 213.396500,767.148010 212.734375,767.104309 
	C209.607788,766.898376 205.973846,767.601868 203.473160,766.236633 
	C199.455551,764.043335 204.377838,760.932190 203.846451,757.873352 
	C203.098206,753.566223 204.237015,748.978516 201.742752,744.572021 
	C206.527267,742.988892 210.967468,743.736450 215.339462,743.909485 
	C217.138992,743.980713 217.913544,745.481934 217.608643,747.140137 
	C217.233643,749.179688 215.964828,749.442261 214.034424,748.040344 
z"/>
<path fill="#000000" opacity="1.000000" stroke="none" 
	d="
M221.198273,755.464844 
	C222.743637,752.133545 225.194672,750.604980 228.325378,750.067139 
	C233.462463,749.184814 235.867538,751.108459 236.109680,756.254150 
	C236.358276,761.536743 235.790298,766.845154 236.933350,771.973694 
	C234.589157,773.828430 232.384781,773.465942 230.291504,772.847412 
	C228.622681,771.177063 230.819717,769.533264 229.998001,768.004700 
	C219.964569,764.723694 218.960403,763.356201 221.198273,755.464844 
M225.666977,760.114502 
	C226.622513,761.906067 228.152725,762.481079 229.718353,761.265076 
	C231.352066,759.996216 230.691589,757.920349 230.635544,756.166199 
	C230.600174,755.059631 229.796097,754.316772 228.653229,754.438171 
	C226.619995,754.653992 226.216843,756.399292 225.696396,757.951477 
	C225.543884,758.406311 225.576416,758.923218 225.666977,760.114502 
z"/>
<path fill="#000000" opacity="1.000000" stroke="none" 
	d="
M398.574860,752.243530 
	C401.705597,753.577942 401.404175,754.838074 398.790924,755.677368 
	C396.811798,756.312927 394.223907,755.884766 394.312531,759.136536 
	C394.354889,760.691284 394.520966,762.121155 396.176147,762.887573 
	C398.584442,764.002747 399.818207,762.150452 401.360504,760.965515 
	C401.835266,760.600830 402.514374,760.502075 403.093506,760.283997 
	C405.090118,765.100403 404.299652,766.640076 399.808136,767.073669 
	C399.642761,767.089600 399.475342,767.098206 399.309448,767.092712 
	C395.993256,766.983093 392.238800,767.819275 389.464020,766.536560 
	C385.318329,764.620239 389.817078,760.735901 388.845062,757.659424 
	C388.223999,755.693665 388.823761,753.365479 388.716461,751.207703 
	C388.610657,749.079895 388.303558,746.962097 388.057251,744.572998 
	C392.075439,742.939880 396.216705,743.791870 400.259003,743.868286 
	C402.135895,743.903809 403.465332,745.199585 402.949585,747.225464 
	C402.383453,749.449341 400.863068,748.683594 399.413666,747.998779 
	C397.474670,747.082581 395.234528,746.527832 394.587433,749.288940 
	C393.944946,752.030457 396.483734,751.812805 398.574860,752.243530 
z"/>
<path fill="#000000" opacity="1.000000" stroke="none" 
	d="
M534.349487,762.169434 
	C534.317505,759.718872 534.783752,757.288330 533.915527,755.508972 
	C532.096252,751.780457 534.127502,751.070618 536.934143,750.710876 
	C539.221436,750.417603 541.539856,750.278992 543.846802,750.249817 
	C546.901062,750.211060 548.835205,751.578674 549.281250,754.821167 
	C549.774231,758.404724 549.650879,762.100769 551.248169,765.433777 
	C547.669922,767.625305 547.669922,767.625305 543.478638,765.538696 
	C544.033813,763.082825 544.996582,760.595093 544.675171,757.917786 
	C544.506897,756.516479 544.395325,755.095459 542.633606,755.071411 
	C541.045776,755.049683 540.440002,756.291748 540.121826,757.688660 
	C539.473267,760.536011 540.572144,763.180298 541.376038,765.906799 
	C538.642822,767.669250 536.019043,767.615479 533.671631,766.181580 
	C531.585388,764.907227 533.711914,763.686096 534.349487,762.169434 
z"/>
<path fill="#000000" opacity="1.000000" stroke="none" 
	d="
M443.355072,756.832825 
	C443.618683,758.720520 443.899231,760.191589 444.021240,761.675598 
	C444.159851,763.361450 445.649658,765.409363 443.408966,766.605652 
	C441.204651,767.782410 438.973633,767.403564 437.010895,765.784119 
	C437.170593,762.923645 439.217804,760.690125 438.603180,757.899231 
	C438.260529,756.343201 437.822266,754.800354 435.950165,754.893555 
	C434.190002,754.981140 433.445465,756.344849 433.463959,758.033020 
	C433.490967,760.498657 433.493317,762.978027 434.966522,765.269470 
	C432.164825,767.837830 429.539825,767.438049 426.484985,765.807800 
	C428.130646,761.660156 429.721710,757.753967 426.930359,753.495178 
	C425.855560,751.855286 427.840759,750.853699 429.404205,750.773438 
	C432.539093,750.612427 435.696838,750.515198 438.825226,750.710693 
	C442.261780,750.925354 442.674683,753.831360 443.355072,756.832825 
z"/>
<path fill="#000000" opacity="1.000000" stroke="none" 
	d="
M270.987030,766.464233 
	C267.749146,767.282898 264.844910,766.370422 261.827332,766.830994 
	C257.937378,767.424561 256.008575,763.572571 257.875488,760.036865 
	C258.366180,759.107605 260.697388,758.758362 258.894653,756.942139 
	C256.907318,754.939941 257.324982,752.978027 259.614319,751.582703 
	C262.239227,749.982788 265.029053,748.775208 267.958801,751.012634 
	C269.581543,752.251892 272.118073,763.958313 270.987030,766.464233 
z"/>
<path fill="#000000" opacity="1.000000" stroke="none" 
	d="
M413.713623,765.919617 
	C411.089447,767.619507 408.764282,767.354309 406.109802,765.775635 
	C407.579926,761.797607 408.702148,757.724731 406.753601,753.505066 
	C406.158112,752.215454 407.173889,751.033875 408.382263,750.930054 
	C411.971161,750.621765 415.617920,750.248047 419.176971,750.585754 
	C421.635376,750.819031 422.397949,753.159851 422.318970,755.553223 
	C422.204865,759.010254 422.235779,762.450867 424.010376,765.702271 
	C421.322144,767.596069 418.935669,767.567810 416.386719,766.060730 
	C416.022217,763.385437 418.169525,761.296204 417.707397,758.739746 
	C417.454010,757.337891 418.025848,755.389587 415.992035,755.100586 
	C413.796661,754.788513 413.435333,756.793396 412.893127,758.333008 
	C411.981842,760.920654 414.074463,763.101379 413.713623,765.919617 
z"/>
<path fill="#000000" opacity="1.000000" stroke="none" 
	d="
M133.004181,752.796997 
	C134.182510,754.562744 133.167236,755.192993 131.942230,755.456238 
	C126.617622,756.600464 126.564980,759.529724 129.104370,763.446106 
	C129.444870,763.971313 129.595215,764.619751 129.869690,765.300659 
	C127.250893,768.244812 124.406960,766.930298 121.081551,766.243652 
	C123.254677,759.041382 122.950485,751.871338 121.805664,744.335083 
	C126.406784,743.267517 130.675079,743.509583 134.918350,743.891357 
	C136.419800,744.026428 137.248245,745.229675 136.956558,746.776184 
	C136.655228,748.373962 135.520386,748.887573 133.969864,748.516541 
	C133.808517,748.477966 133.649460,748.428467 133.491241,748.378113 
	C131.733810,747.819275 129.416977,746.955322 128.774750,749.235596 
	C127.941269,752.194946 131.282578,751.547119 133.004181,752.796997 
z"/>
<path fill="#000000" opacity="1.000000" stroke="none" 
	d="
M239.669403,759.938232 
	C239.605728,757.519104 239.780151,755.513367 238.897552,753.621033 
	C238.098923,751.908569 237.895599,750.271484 240.343399,749.874207 
	C242.447845,749.532654 243.998978,750.289062 244.129501,752.673401 
	C244.238464,754.664001 244.160538,756.664185 244.242233,758.657043 
	C244.298141,760.021057 244.511551,761.457825 246.213776,761.674866 
	C248.176254,761.924988 248.712387,760.505432 249.070450,758.933655 
	C249.487778,757.101746 249.525421,755.343872 248.678467,753.590637 
	C247.860992,751.898376 248.460297,750.624451 250.213776,750.094666 
	C252.184937,749.499084 253.555237,750.388000 253.870560,752.361877 
	C254.520172,756.428467 253.637222,760.688782 255.433868,764.640564 
	C255.580750,764.963684 254.965302,765.852112 254.497681,766.202148 
	C249.694519,769.797424 240.480270,766.149536 239.669403,759.938232 
z"/>
<path fill="#000000" opacity="1.000000" stroke="none" 
	d="
M482.858398,755.935913 
	C481.181458,756.997681 480.033203,756.798828 479.391144,755.209351 
	C478.876801,753.936096 479.488770,752.913513 480.511017,752.215454 
	C483.067322,750.469604 485.811859,749.454285 488.923553,750.605286 
	C491.790588,751.665955 492.159302,754.164734 492.178314,756.712830 
	C492.200531,759.689636 492.057526,762.661316 494.938843,765.426147 
	C490.083405,767.864441 485.481781,767.234192 481.381195,766.253845 
	C477.995972,765.444580 478.362885,760.932495 481.651764,758.929626 
	C483.360687,757.888977 485.978760,758.004822 486.476349,755.326050 
	C485.030884,753.574829 484.152344,755.156494 482.858398,755.935913 
z"/>
<path fill="#000000" opacity="1.000000" stroke="none" 
	d="
M460.973785,752.952698 
	C462.340485,756.477966 462.902557,759.993286 460.556183,763.345093 
	C457.956116,767.059387 453.205475,768.264709 449.642578,766.187622 
	C445.415314,763.723206 444.094391,758.936035 446.452728,754.627319 
	C448.711090,750.501282 453.130432,748.967102 457.390839,750.897095 
	C458.435944,751.370544 459.381348,752.064148 460.680725,752.818848 
	C460.988892,752.981140 460.973785,752.952698 460.973785,752.952698 
M456.411163,756.379761 
	C455.302307,754.675110 453.915222,753.513367 451.930054,754.966125 
	C450.257751,756.189941 450.013123,758.044800 450.706970,759.896484 
	C451.365845,761.654907 452.520905,763.627014 454.587189,762.967224 
	C457.367371,762.079407 457.061066,759.446655 456.411163,756.379761 
z"/>
<path fill="#000000" opacity="1.000000" stroke="none" 
	d="
M361.982483,754.017456 
	C364.895294,751.980103 367.379028,748.897217 371.624908,750.158752 
	C375.570831,751.331238 377.730072,754.061340 378.134644,758.036804 
	C378.480682,761.437134 377.108551,764.292908 374.090363,765.957642 
	C370.753906,767.797974 367.411255,767.598511 364.408173,765.011108 
	C363.781921,764.471619 363.175018,763.909546 362.280945,763.181458 
	C362.002686,763.005066 362.032043,763.034485 361.985352,762.581665 
	C361.965393,759.412476 361.992126,756.696167 362.009766,753.989258 
	C362.000702,753.998596 361.982483,754.017456 361.982483,754.017456 
M372.974823,760.671936 
	C373.714447,759.373657 373.358124,758.116089 372.855072,756.851257 
	C372.210236,755.230103 371.339966,753.575684 369.337311,754.084412 
	C367.160706,754.637451 366.201691,756.418762 366.455048,758.690186 
	C366.856049,762.285706 369.103333,763.214844 372.974823,760.671936 
z"/>
<path fill="#000000" opacity="1.000000" stroke="none" 
	d="
M460.996460,752.994019 
	C464.365906,748.591370 465.476105,748.921631 470.165802,756.065430 
	C471.980865,753.220520 472.830292,748.286926 478.199219,751.877747 
	C475.624756,755.762939 474.022888,760.057068 472.194214,764.253662 
	C470.837860,767.366394 468.968811,767.414429 467.361633,764.286011 
	C465.475250,760.614136 464.586090,756.408325 461.237885,753.166138 
	C460.973785,752.952698 460.988892,752.981140 460.996460,752.994019 
z"/>
<path fill="#000000" opacity="1.000000" stroke="none" 
	d="
M273.984436,749.343750 
	C274.964935,747.974121 275.589386,746.772583 277.033478,746.224976 
	C279.086365,748.134705 281.077698,749.987183 283.069000,751.839661 
	C277.355225,757.771240 278.047546,761.084595 283.328278,764.104919 
	C283.219116,766.532288 281.415039,766.995789 279.554810,767.034851 
	C277.450470,767.079041 275.109375,766.333435 274.735901,764.216492 
	C273.891418,759.429810 273.119080,754.568420 273.984436,749.343750 
z"/>
<path fill="#000000" opacity="1.000000" stroke="none" 
	d="
M148.996826,754.004761 
	C145.642853,755.286011 143.164536,757.067444 144.080429,761.308594 
	C144.448517,763.013184 146.641342,764.983582 143.942566,766.537720 
	C141.642212,767.862305 139.518051,766.860779 137.162354,765.652832 
	C137.637268,763.321350 138.139648,761.130188 138.518890,758.917908 
	C138.918533,756.586609 138.221909,754.370911 137.300980,752.350952 
	C142.249924,749.169983 147.057938,749.628296 149.037598,753.622192 
	C149.011078,753.989685 149.000534,753.999634 148.996826,754.004761 
z"/>
<path fill="#000000" opacity="1.000000" stroke="none" 
	d="
M361.987793,762.990356 
	C362.296692,765.828918 360.495605,766.837097 358.147858,767.151184 
	C356.215485,767.409790 354.281372,766.862671 353.472107,765.011475 
	C351.670624,760.890991 353.441040,756.166382 351.406281,751.901428 
	C350.951355,750.947876 352.924194,748.799561 353.855927,747.247253 
	C354.083282,746.868408 354.613251,746.671143 355.425598,746.087646 
	C356.607452,749.501343 361.001434,749.651855 361.979370,753.646118 
	C361.982483,754.017456 362.000702,753.998596 361.630585,754.050781 
	C358.145752,754.247375 357.358093,756.005737 357.315521,758.925049 
	C357.263611,762.486938 359.574432,762.694641 362.032043,763.034485 
	C362.032043,763.034485 362.002686,763.005066 361.987793,762.990356 
z"/>
<path fill="#000000" opacity="1.000000" stroke="none" 
	d="
M509.184570,746.484375 
	C508.898315,744.065674 509.824554,742.904724 511.898590,743.646973 
	C513.506470,744.222412 513.972839,745.794250 513.012207,747.246704 
	C511.652283,749.302612 510.376251,748.451782 509.184570,746.484375 
z"/>
<path fill="#000000" opacity="1.000000" stroke="none" 
	d="
M294.196960,394.771851 
	C299.362396,394.587585 304.016266,394.954590 308.369873,396.855103 
	C312.775116,398.778198 315.303162,397.123779 316.911652,392.989838 
	C318.541656,388.800720 320.360229,384.705963 322.900360,380.948212 
	C332.041443,367.425323 348.245422,367.085480 357.873352,380.217010 
	C360.255157,383.465576 362.126373,386.948456 363.616577,390.684692 
	C366.182831,397.118958 367.163239,397.488373 373.688782,395.757355 
	C379.574036,394.196198 385.620026,394.169067 391.507355,395.398224 
	C403.483459,397.898590 408.956055,407.133636 405.645081,418.924805 
	C403.584045,426.264771 399.484070,432.538055 394.633423,438.316986 
	C390.176544,443.626801 390.078339,444.059906 394.577667,449.134613 
	C399.732544,454.948761 403.638580,461.401062 405.683563,468.981873 
	C408.424408,479.142303 402.795837,488.770142 392.623474,491.164490 
	C385.788116,492.773376 378.984161,492.252899 372.455261,490.206543 
	C367.686310,488.711761 365.443726,490.060486 363.639526,494.450958 
	C361.179016,500.438629 358.355438,506.258759 352.955322,510.437500 
	C343.474670,517.773926 334.064819,517.001709 326.037842,507.944000 
	C322.674713,504.148987 320.280090,499.744354 318.594086,495.031158 
	C317.060577,490.744141 314.279205,489.403229 310.078186,490.367310 
	C304.329010,491.686615 298.493011,491.511444 292.673157,491.319244 
	C277.211121,490.808594 272.213989,475.911407 276.707764,465.193695 
	C279.324554,458.952667 282.990051,453.391724 287.526703,448.533875 
	C290.985992,444.829651 290.366180,442.241974 287.227600,438.882294 
	C282.671326,434.004944 278.776886,428.570374 276.413666,422.232819 
	C270.599640,406.641357 277.067017,396.423187 294.196960,394.771851 
M353.112427,427.391846 
	C351.084869,426.249542 348.928284,425.285339 347.055847,423.928894 
	C342.793304,420.840881 338.837402,421.311951 334.712067,424.235596 
	C331.456787,426.542664 327.965424,428.514282 324.609314,430.681946 
	C318.388580,434.699738 316.384674,449.568573 321.273315,455.264008 
	C332.071686,467.844482 340.625488,468.988739 354.257538,459.648468 
	C355.903992,458.520355 357.562653,457.382294 359.054443,456.066132 
	C360.021362,455.213165 361.023285,454.147003 361.448853,452.973145 
	C364.994873,443.191437 361.981842,433.564178 353.112427,427.391846 
M310.138336,428.322388 
	C311.986267,423.072906 311.404205,417.463287 312.539673,412.095459 
	C313.115570,409.372925 311.252014,407.841156 308.985229,406.743134 
	C301.993683,403.356384 294.766418,403.572876 287.601349,405.760254 
	C284.377502,406.744446 282.012878,409.427734 282.824707,413.010040 
	C284.773895,421.610657 288.973450,429.116669 295.223175,435.393127 
	C296.876343,437.053436 298.871765,437.872040 301.038696,436.281738 
	C304.099121,434.035858 307.719940,432.447968 310.138336,428.322388 
M295.717834,483.599915 
	C300.016937,483.301605 304.339081,483.097595 308.414062,481.500305 
	C310.279266,480.769135 312.045074,479.896545 312.620850,477.650696 
	C314.876678,468.851532 309.892487,456.691620 302.120514,451.704132 
	C299.787201,450.206787 297.915985,450.224854 295.880219,452.085083 
	C291.270782,456.296936 287.715210,461.246735 285.408020,467.035309 
	C281.634827,476.502106 284.606964,481.613586 295.717834,483.599915 
M397.293915,410.353119 
	C395.457855,406.824585 392.399872,404.864990 388.603668,404.460052 
	C383.816803,403.949432 378.988312,404.127258 374.303253,405.471954 
	C368.643341,407.096436 367.786377,408.643372 368.901123,414.531586 
	C369.362061,416.966431 370.166290,419.492676 369.905975,421.878235 
	C369.143829,428.862579 373.977661,431.748566 378.629791,435.004578 
	C381.300110,436.873474 383.544769,436.519806 385.752014,434.419250 
	C392.452728,428.042572 396.992493,420.573120 397.293915,410.353119 
M396.715088,477.133881 
	C396.997162,475.854034 397.724457,474.485565 397.490204,473.308472 
	C395.765991,464.644348 391.133301,457.708618 384.326721,452.187744 
	C382.457458,450.671631 380.645660,451.367279 378.833069,452.554321 
	C373.734589,455.893250 368.948212,459.248138 369.810394,466.581696 
	C370.089752,468.957642 369.137146,471.483185 368.718658,473.935333 
	C367.911987,478.662384 369.410339,481.243225 374.211029,482.290222 
	C377.763794,483.065094 381.436890,483.424500 385.075714,483.635101 
	C389.904297,483.914551 393.843872,482.116394 396.715088,477.133881 
M327.726715,391.184052 
	C327.125366,392.553345 326.498047,393.911865 325.927124,395.293732 
	C323.359467,401.508118 324.036346,403.023254 330.202545,405.377686 
	C332.839203,406.384460 335.405365,407.575104 338.011719,408.662598 
	C339.388275,409.237000 340.729401,409.797791 342.330658,409.493469 
	C355.909454,406.912811 359.468933,399.171112 352.312897,387.695221 
	C345.135956,376.185883 335.788757,376.429688 329.203796,388.302795 
	C328.800995,389.029175 328.456848,389.788116 327.726715,391.184052 
M350.283447,500.758087 
	C351.569214,498.834625 352.973389,496.978912 354.119537,494.975525 
	C358.311249,487.648865 357.727448,485.878693 350.111359,482.169037 
	C348.918762,481.588135 347.624786,481.144257 346.562012,480.380524 
	C342.430695,477.411865 338.732361,477.745026 334.254150,480.333771 
	C322.097717,487.361115 321.957428,487.191345 330.058929,499.413330 
	C336.542511,509.194489 341.565247,509.669922 350.283447,500.758087 
M320.841461,418.810822 
	C323.370270,422.410187 325.688721,419.930786 327.883667,418.440338 
	C329.148407,417.581573 330.017395,416.190002 328.671936,414.693542 
	C327.224182,413.083344 325.274597,412.630920 323.285675,413.340515 
	C321.114075,414.115265 320.748810,416.119110 320.841461,418.810822 
M359.651031,413.901611 
	C356.933228,412.479706 353.967316,413.139252 353.711761,415.887817 
	C353.366211,419.604004 356.916046,420.023285 359.863068,420.416046 
	C360.640808,417.351471 360.640808,417.351471 359.651031,413.901611 
M353.237213,471.598145 
	C354.803711,475.522095 357.012329,476.559570 359.025085,474.190430 
	C360.311951,472.675659 361.661743,470.532257 359.580658,468.952759 
	C357.046387,467.029297 354.960236,468.564423 353.237213,471.598145 
M326.771088,469.813141 
	C325.114624,468.452972 323.380707,467.521088 321.554382,469.455627 
	C320.564056,470.504639 320.305603,471.775574 321.227631,473.066498 
	C322.305237,474.575348 323.795410,475.221100 325.554535,474.670532 
	C327.780518,473.973816 328.180786,472.390289 326.771088,469.813141 
z"/>
<path fill="#000000" opacity="1.000000" stroke="none" 
	d="
M219.173706,291.195251 
	C220.063568,290.443237 220.833420,289.929474 221.123123,289.219727 
	C223.852966,282.531830 223.829315,282.522186 230.734497,285.269073 
	C233.086563,281.045624 236.046768,277.493134 241.181595,276.193207 
	C247.592163,274.570251 253.026779,276.627411 255.451889,282.794037 
	C256.762939,286.127838 258.693970,286.890381 261.867096,286.693512 
	C265.183746,286.487762 268.523560,286.655579 271.853241,286.659576 
	C274.230255,286.662415 275.780762,287.843079 275.800049,290.201508 
	C275.818146,292.417175 274.520447,294.167572 272.175049,294.190094 
	C267.396606,294.236023 262.490997,295.297791 257.886292,293.340027 
	C255.890335,292.491364 254.803101,292.908569 253.809052,294.642334 
	C252.733582,296.518097 251.547546,298.330627 250.403030,300.166565 
	C248.738373,302.836884 248.740067,304.980164 252.390350,305.616180 
	C255.282288,306.120056 256.361237,307.904449 256.125183,310.556824 
	C255.863281,313.499481 253.759613,314.303070 251.162430,314.304596 
	C246.500687,314.307343 241.838943,314.301056 237.177200,314.308197 
	C235.131119,314.311340 233.112976,314.288605 232.169876,311.949738 
	C231.239166,309.641541 231.987671,307.792328 233.579987,306.043091 
	C237.939102,301.254425 242.806213,296.877075 245.920822,291.063049 
	C246.912186,289.212555 248.765381,287.266937 246.332657,285.342377 
	C244.078766,283.559296 242.051559,285.106201 240.701935,286.745880 
	C238.642105,289.248474 235.775543,289.229858 231.897217,289.886383 
	C233.827209,290.851562 234.892334,291.280212 235.845749,291.884949 
	C237.345032,292.835876 238.305206,294.178497 237.962433,296.058014 
	C237.634247,297.857574 236.627502,299.191406 234.684830,299.271820 
	C231.609192,299.399139 229.767838,300.699799 229.096878,303.853729 
	C228.707031,305.686218 227.060165,306.355804 225.235825,306.384888 
	C223.455597,306.413269 222.368561,305.358063 221.984192,303.812592 
	C221.447464,301.654449 220.410522,300.168152 218.116226,299.829193 
	C215.567749,299.452728 213.656967,298.447205 213.627777,295.482971 
	C213.592270,291.878632 216.488342,291.958405 219.173706,291.195251 
z"/>
<path fill="#000000" opacity="1.000000" stroke="none" 
	d="
M315.169464,279.399780 
	C316.116791,289.767853 314.910645,299.730133 315.290100,309.690399 
	C315.406128,312.735382 314.109497,314.373627 310.867035,314.289948 
	C307.867889,314.212585 306.757141,312.570496 306.752686,309.819855 
	C306.744934,304.993744 306.701874,300.167389 306.733917,295.341553 
	C306.753571,292.383484 306.707947,289.619659 302.862640,288.912415 
	C301.541382,288.669403 300.212219,287.541443 300.306213,286.157654 
	C300.634186,281.328827 304.728180,279.360779 308.087128,277.169189 
	C310.579681,275.542938 313.559814,275.319519 315.169464,279.399780 
z"/>
<path fill="#000000" opacity="1.000000" stroke="none" 
	d="
M331.749634,277.953461 
	C332.817200,289.064697 332.149231,299.840210 332.321594,310.607147 
	C332.361237,313.081451 331.209900,314.263214 328.726837,314.276886 
	C326.053528,314.291626 324.054199,313.400513 323.996582,310.427826 
	C323.903473,305.621460 324.011200,300.811279 324.031616,296.002686 
	C324.045807,292.653717 324.332153,289.282104 319.707428,288.399506 
	C318.018188,288.077148 317.051910,286.567688 317.393402,284.553223 
	C318.218903,279.683563 326.754547,275.455383 331.749634,277.953461 
z"/>
<path fill="#000000" opacity="1.000000" stroke="none" 
	d="
M268.043457,305.394135 
	C265.442169,305.439697 263.291748,305.427490 261.149109,305.550293 
	C258.767456,305.686798 257.289978,304.590149 256.908386,302.328491 
	C256.533417,300.105896 257.502289,298.361389 259.735962,297.749817 
	C263.947632,296.596680 268.250153,296.693329 272.511047,297.425323 
	C274.794647,297.817657 275.872864,299.630157 275.833801,301.758392 
	C275.791748,304.048279 274.354706,305.338318 271.967163,305.363953 
	C270.810730,305.376373 269.654266,305.385345 268.043457,305.394135 
z"/>
<path fill="#000000" opacity="1.000000" stroke="none" 
	d="
M288.980011,297.023865 
	C292.612213,297.499207 296.902405,295.984924 297.271057,301.446655 
	C297.429443,303.793610 296.638092,305.337250 294.010986,305.337616 
	C290.206299,305.338135 286.400909,305.371216 282.597137,305.309631 
	C280.221527,305.271210 278.982086,303.892181 278.779205,301.587311 
	C278.567688,299.184845 279.708405,297.814270 282.108521,297.569122 
	C284.244324,297.350952 286.386658,297.196381 288.980011,297.023865 
z"/>
<path fill="#000000" opacity="1.000000" stroke="none" 
	d="
M297.372223,290.923340 
	C296.980957,293.554993 295.443207,294.302887 293.420074,294.311188 
	C289.769104,294.326141 286.117401,294.304626 282.466858,294.246887 
	C280.080383,294.209198 278.789978,292.984985 278.738098,290.546875 
	C278.686523,288.125183 279.860535,286.751617 282.280396,286.704895 
	C286.095856,286.631226 289.914520,286.642456 293.730499,286.703156 
	C296.164764,286.741821 297.273926,288.198456 297.372223,290.923340 
z"/>
<path fill="#000000" opacity="1.000000" stroke="none" 
	d="
M388.981689,335.350891 
	C382.325043,335.350433 376.164734,335.388519 370.005096,335.341125 
	C363.746307,335.292938 360.842102,332.943573 360.781921,326.825684 
	C360.593628,307.681946 360.614990,288.534241 360.786652,269.390106 
	C360.836334,263.847473 364.332123,260.837463 370.285736,260.694489 
	C377.274231,260.526642 384.269531,260.635010 391.261902,260.635284 
	C415.402283,260.636261 439.542664,260.634186 463.683044,260.650940 
	C471.579773,260.656433 474.074310,263.210175 474.059875,271.188660 
	C474.028564,288.491333 473.994476,305.793976 473.951416,323.096649 
	C473.948090,324.427460 473.936920,325.765198 473.806641,327.087616 
	C473.207153,333.171478 470.968048,335.324402 464.804871,335.288940 
	C439.695648,335.144531 414.587677,336.318817 388.981689,335.350891 
M452.405975,271.617554 
	C427.750122,271.587036 403.093750,271.634552 378.438965,271.456299 
	C373.835724,271.423065 372.246887,273.161865 372.303772,277.640228 
	C372.466766,290.470978 372.318756,303.305328 372.366913,316.138000 
	C372.388458,321.883026 373.378754,322.971649 379.030212,323.001923 
	C404.844330,323.140228 430.658936,323.182495 456.473297,323.273773 
	C460.044189,323.286407 461.881317,322.103516 461.809937,317.994720 
	C461.589966,305.332642 461.710968,292.664001 461.759583,279.998138 
	C461.792664,271.382843 461.759888,271.308807 452.405975,271.617554 
z"/>
<path fill="#000000" opacity="1.000000" stroke="none" 
	d="
M362.181885,351.307251 
	C359.490295,350.352783 357.800385,348.841492 356.677338,346.671234 
	C354.056274,341.606201 355.700500,338.645477 361.323639,338.642090 
	C398.254700,338.619812 435.185791,338.636993 472.116821,338.683228 
	C474.181946,338.685822 476.807465,337.950745 477.853760,340.527039 
	C478.998260,343.345245 478.252197,346.092010 476.304810,348.447449 
	C474.106781,351.106018 471.071686,352.004120 467.831604,352.014648 
	C449.191010,352.075378 430.553223,352.218536 411.909363,351.808746 
	C398.777039,351.520081 385.627380,352.048401 372.485077,352.161743 
	C369.169922,352.190338 365.814575,352.536926 362.181885,351.307251 
M421.987915,346.614258 
	C424.123016,346.352783 426.572052,346.944977 428.603760,343.863464 
	C420.314758,342.790161 412.749817,342.748840 404.154449,343.602478 
	C407.606049,346.633362 407.606049,346.633362 421.987915,346.614258 
z"/>
<path fill="#000000" opacity="1.000000" stroke="none" 
	d="
M345.994019,455.315338 
	C338.185425,459.470764 330.204987,454.523254 327.581848,447.583557 
	C325.054779,440.898010 327.847961,433.406250 334.258423,430.346558 
	C341.145386,427.059418 348.910156,429.437195 352.208588,435.843323 
	C356.275269,443.741516 354.220764,450.518921 345.994019,455.315338 
z"/>
<path fill="#000000" opacity="1.000000" stroke="none" 
	d="
M430.303040,304.200134 
	C427.580811,304.253815 425.166168,302.670288 423.035614,304.330353 
	C421.322968,303.447723 421.934998,301.831635 421.329102,300.622192 
	C419.915466,302.030457 419.996368,305.123535 416.895447,303.700714 
	C415.239899,300.889008 419.484558,297.595825 415.822601,295.237000 
	C419.809052,292.289642 421.026306,292.152557 431.931671,293.120575 
	C433.179932,294.241272 432.424622,295.573364 432.371002,296.854401 
	C432.326721,297.912750 431.213440,298.962708 432.278564,300.069641 
	C439.777405,291.393799 440.595123,291.030029 443.376038,295.529846 
	C440.826416,296.320709 436.855042,295.652985 437.642242,300.171936 
	C438.387665,302.078491 440.593292,300.359344 441.681030,302.063354 
	C440.187500,304.311005 438.009155,305.355652 435.489655,304.347809 
	C433.742828,303.649078 432.325867,302.513763 430.303040,304.200134 
z"/>
<path fill="#000000" opacity="1.000000" stroke="none" 
	d="
M388.275635,301.592285 
	C389.688385,301.576202 390.811707,300.510956 391.839050,301.711548 
	C390.340576,304.876862 385.914948,305.489868 378.083344,303.469147 
	C380.512817,300.366821 381.749115,296.907745 382.010681,293.001190 
	C378.175964,293.074249 379.726227,296.458282 378.553009,298.340332 
	C375.671173,298.058899 375.510254,296.424011 376.255890,294.221313 
	C377.747009,289.816284 388.211304,285.934814 392.237671,288.290497 
	C393.030670,288.754425 393.739471,290.015533 393.355835,290.221527 
	C390.099548,291.970001 392.276642,297.287598 387.656708,298.332092 
	C385.414703,298.838989 384.711853,300.754791 388.275635,301.592285 
z"/>
<path fill="#000000" opacity="1.000000" stroke="none" 
	d="
M411.699982,294.625336 
	C410.186798,299.721252 407.058289,300.864624 400.510284,299.088348 
	C400.758392,293.248901 403.889435,291.894012 411.699982,294.625336 
z"/>
<path fill="#000000" opacity="1.000000" stroke="none" 
	d="
M448.928131,296.130493 
	C446.059631,296.096619 444.236908,295.490784 446.476349,292.735870 
	C447.418823,291.576508 447.706970,290.801971 447.174194,289.288086 
	C446.636566,287.760284 448.125641,287.018341 449.470703,286.618835 
	C450.816864,286.219025 452.135437,286.267670 453.208618,287.285217 
	C454.310608,288.330078 453.867828,289.478394 453.066711,290.390076 
	C451.538879,292.128754 454.317841,296.698639 448.928131,296.130493 
z"/>
</svg>