<?xml version="1.0" encoding="UTF-8" standalone="no" ?>
<!DOCTYPE svg PUBLIC "-//W3C//DTD SVG 1.1//EN" "http://www.w3.org/Graphics/SVG/1.1/DTD/svg11.dtd">
<svg xmlns="http://www.w3.org/2000/svg" xmlns:xlink="http://www.w3.org/1999/xlink" version="1.1" width="1080" height="1080" viewBox="0 0 1080 1080" xml:space="preserve">
<desc>Created with Fabric.js 5.2.4</desc>
<defs>
</defs>
<rect x="0" y="0" width="100%" height="100%" fill="transparent"></rect>
<g transform="matrix(1 0 0 1 540 540)" id="9e04039f-ea43-4998-93ae-dedea2e505f6"  >
</g>
<g transform="matrix(1 0 0 1 540 540)" id="7ea6a7e5-3294-4341-b93d-e5cb160f77dc"  >
<rect style="stroke: none; stroke-width: 1; stroke-dasharray: none; stroke-linecap: butt; stroke-dashoffset: 0; stroke-linejoin: miter; stroke-miterlimit: 4; fill: rgb(255,255,255); fill-rule: nonzero; opacity: 1;" vector-effect="non-scaling-stroke"  x="-540" y="-540" rx="0" ry="0" width="1080" height="1080" />
</g>
<g transform="matrix(1 0 0 1 541.59 383.05)"  >
<path style="stroke: none; stroke-width: 1; stroke-dasharray: none; stroke-linecap: butt; stroke-dashoffset: 0; stroke-linejoin: miter; stroke-miterlimit: 4; fill: rgb(0,0,0); fill-rule: nonzero; opacity: 1;" vector-effect="non-scaling-stroke"  transform=" translate(-513.29, -368.89)" d="M 306.924561 453.929932 C 295.993164 429.659119 290.831696 404.436829 288.513885 378.39798 C 286.75177 358.601959 287.192017 338.863495 287.413879 319.050476 C 287.794495 285.062378 287.185303 251.063873 287.102295 217.069473 C 287.079956 207.911758 287.592712 198.752914 287.582489 189.59491 C 287.57843 185.953125 288.815796 184.694397 292.498962 184.590942 C 333.905396 183.427917 374.553009 177.040451 414.250458 165.34314 C 447.121552 155.657303 478.370605 141.932236 507.744202 124.208733 C 512.401245 121.39875 515.799194 121.952675 520.049805 124.507095 C 551.912292 143.655045 585.653381 158.493073 621.626587 168.059128 C 649.945007 175.589584 678.629333 180.921387 707.93335 182.916214 C 715.759705 183.44899 723.567017 183.397415 731.375 183.78511 C 738.896973 184.158615 739.268921 184.610809 739.2724 191.905624 C 739.29834 246.572235 739.75885 301.243134 739.22168 355.904236 C 738.681946 410.824371 723.328613 460.785339 687.195251 503.376007 C 661.902527 533.188782 632.177612 557.526672 598.348694 576.963684 C 572.427429 591.857178 545.075256 603.653992 517.223267 614.367188 C 514.489624 615.418701 511.791962 615.941223 508.967621 614.856384 C 463.830505 597.518982 420.493042 576.798523 382.613098 546.185242 C 351.161072 520.766724 324.742126 491.087494 306.924561 453.929932 M 497.135223 579.269165 C 500.086945 580.405701 503.148499 581.322083 505.966003 582.727661 C 510.828064 585.153137 515.4104 584.711243 520.36438 582.790405 C 572.499634 562.575623 620.641113 536.202209 658.675964 494.015106 C 676.241699 474.531769 690.849243 453.249084 699.541626 428.266113 C 705.917786 409.940308 709.068115 390.980133 710.853821 371.730988 C 711.661865 363.020721 711.786865 363.042236 703.070129 363.041779 C 598.572449 363.036469 494.074738 363.027954 389.577026 363.020294 C 367.410828 363.018646 345.244598 363.008942 323.0784 363.01947 C 315.193542 363.023193 315.126465 363.047729 315.387909 371.105103 C 315.479156 373.918121 316.071594 376.710999 316.297913 379.524109 C 317.895569 399.383942 322.3284 418.597992 329.812653 437.047058 C 341.796326 466.587372 361.772308 490.208771 385.051178 511.440552 C 417.765228 541.277771 455.696503 562.403259 497.135223 579.269165 M 315.194519 317.5 C 315.206726 326.998932 315.204071 336.497955 315.236267 345.996796 C 315.258728 352.628265 315.28006 352.632568 321.91391 352.631683 C 381.908875 352.623749 441.903931 352.56134 501.898529 352.707642 C 506.587097 352.719116 507.800476 351.311371 507.791229 346.767029 C 507.666229 285.272461 507.721008 223.777542 507.686707 162.282715 C 507.68573 160.554489 508.321411 158.597351 506.685181 157.067017 C 506.191559 157.089737 505.643402 156.969742 505.237335 157.157379 C 502.66922 158.343979 500.094238 159.525772 497.59137 160.84201 C 468.417664 176.184311 437.593994 187.145691 405.805511 195.59198 C 377.940765 202.995728 349.651337 207.926605 320.905487 210.026306 C 316.174652 210.371841 315.093597 212.25827 315.108215 216.508774 C 315.222748 249.838882 315.185364 283.169525 315.194519 317.5 M 518.349182 162.008881 C 518.349609 223.46817 518.392273 284.927551 518.265747 346.386566 C 518.256226 351.016968 519.347839 352.742218 524.345703 352.728943 C 584.638733 352.568726 644.932373 352.572571 705.225464 352.7258 C 710.170837 352.738373 711.879761 351.466095 711.859558 346.32019 C 711.688599 302.84967 711.703735 259.377899 711.872986 215.907288 C 711.890015 211.528778 710.43689 210.011749 706.277039 209.838333 C 691.485352 209.221634 676.775696 207.573746 662.203552 205.049057 C 613.706848 196.646683 567.238098 182.098724 523.741028 158.704422 C 522.34906 157.955795 520.996887 156.715225 519.208557 157.332611 C 518.023804 158.472061 518.490723 159.88208 518.349182 162.008881 z" stroke-linecap="round" />
</g>
<g transform="matrix(1 0 0 1 641.84 700.28)"  >
<path style="stroke: none; stroke-width: 1; stroke-dasharray: none; stroke-linecap: butt; stroke-dashoffset: 0; stroke-linejoin: miter; stroke-miterlimit: 4; fill: rgb(0,0,0); fill-rule: nonzero; opacity: 1;" vector-effect="non-scaling-stroke"  transform=" translate(-613.54, -686.13)" d="M 678.951233 746.160095 C 682.790039 748.359741 684.422913 752.808228 683.122925 756.417786 C 682.350525 758.562561 680.590942 758.369507 678.990723 758.265869 C 668.870789 757.610168 658.754028 756.901428 648.64093 756.146179 C 643.880066 755.790588 640.893127 752.674683 638.18457 749.165649 C 627.369385 735.153992 617.738953 720.362854 609.601624 704.653625 C 606.893677 699.425964 603.143677 697.586426 597.50824 698.178345 C 594.597839 698.484009 593.425537 699.583679 593.341064 702.500122 C 592.988464 714.672607 594.149048 726.799133 594.292603 738.953796 C 594.321594 741.410095 595.710083 742.46759 597.887268 743.015198 C 600.788818 743.745056 603.641418 744.671143 606.547302 745.38092 C 608.60199 745.882812 609.57373 747.18042 610.056763 749.12793 C 611.708008 755.785889 610.422729 757.414734 603.645447 757.326782 C 585.993713 757.097717 568.336121 756.469543 550.704285 757.944763 C 548.777344 758.105957 546.609375 758.215942 546.784973 755.557739 C 546.982361 752.568359 544.642395 748.564453 549.372253 747.011597 C 551.250427 746.394897 553.300354 745.941101 555.256897 745.992493 C 560.700928 746.135498 561.770813 743.316895 561.74408 738.436646 C 561.571655 706.94635 561.631348 675.45459 561.690979 643.963501 C 561.696411 641.088196 561.116211 638.351746 560.615479 635.5755 C 559.720825 630.615723 557.206177 627.535278 551.788086 626.984863 C 549.316101 626.733643 546.042542 626.841614 544.987854 623.708313 C 542.390564 615.991943 542.448547 613.836243 551.856506 613.936279 C 571.672363 614.146973 591.472107 614.783203 611.304504 614.190002 C 620.059204 613.928101 628.898926 615.094543 637.392517 617.760376 C 652.66217 622.553162 663.759644 631.356812 665.71698 648.332764 C 667.28241 661.909729 662.286194 673.053955 652.207703 682.13446 C 647.237 686.612976 641.133789 689.400391 635.426331 693.259277 C 641.60199 701.838135 647.508606 710.030151 653.400696 718.232544 C 657.481445 723.91333 661.512085 729.63031 665.621338 735.290283 C 669.018311 739.96936 673.458191 743.420959 678.951233 746.160095 M 618.208008 682.801514 C 630.439026 676.111267 634.841248 666.948425 632.759155 652.514893 C 630.074951 633.907227 618.131348 624.829468 599.619446 627.32251 C 596.228821 627.779175 593.373535 628.833252 593.371643 632.994019 C 593.364075 649.313049 593.375549 665.632141 593.363647 681.951172 C 593.361877 684.393005 594.480225 685.701416 596.95929 685.712158 C 603.926819 685.742371 610.973145 686.388794 618.208008 682.801514 z" stroke-linecap="round" />
</g>
<g transform="matrix(1 0 0 1 327.83 699.84)"  >
<path style="stroke: none; stroke-width: 1; stroke-dasharray: none; stroke-linecap: butt; stroke-dashoffset: 0; stroke-linejoin: miter; stroke-miterlimit: 4; fill: rgb(0,0,0); fill-rule: nonzero; opacity: 1;" vector-effect="non-scaling-stroke"  transform=" translate(-299.54, -685.68)" d="M 347.461182 729.592896 C 352.039673 737.425659 357.731812 743.46106 366.000153 746.884583 C 369.779327 748.449341 370.096466 750.416748 368.941803 757.29126 C 363.111694 757.29126 357.352661 757.441711 351.605072 757.249146 C 345.786346 757.05426 339.981995 756.46283 334.165588 756.15387 C 329.908936 755.927673 327.210999 753.435974 324.766418 750.301147 C 313.466461 735.810608 303.709717 720.324829 294.876526 704.237366 C 293.507751 701.744507 292.248322 699.193542 289.112335 698.417358 C 281.483887 696.529297 279.224548 698.254639 279.238281 706.079407 C 279.256134 716.245483 279.443939 726.414246 279.254028 736.576233 C 279.17691 740.702759 280.90213 742.763184 284.730865 743.53302 C 286.195984 743.827515 287.63739 744.250977 289.076904 744.660156 C 295.05127 746.358337 296.412018 748.436829 295.891388 754.687683 C 295.600647 758.178406 292.992798 757.310852 291.022827 757.28595 C 274.359131 757.075562 257.696472 756.702454 241.033905 757.348816 C 239.868423 757.394104 238.69397 757.317444 237.536133 757.427856 C 234.814026 757.687622 232.054901 758.255981 231.958771 754.043701 C 231.878647 750.531921 231.800568 747.477905 236.487961 746.642517 C 247.67308 744.648987 247.652191 744.512451 247.649033 733.219055 C 247.640869 704.053406 247.62973 674.887756 247.618546 645.722107 C 247.617584 643.223877 247.220886 640.75824 247.006241 638.28479 C 246.384293 631.118103 243.148026 627.019165 235.638229 626.361694 C 231.73143 626.019653 228.675446 620.274536 229.770096 616.565063 C 230.184479 615.160828 231.106796 614.812073 232.332153 614.67218 C 235.800842 614.276245 239.238068 613.486755 242.765778 613.838623 C 256.400787 615.198486 270.042999 614.441833 283.698822 614.215149 C 299.176666 613.95813 314.543945 614.367249 329.270966 620.673462 C 354.077209 631.295654 358.02475 660.54541 340.735535 679.108337 C 336.593475 683.555603 331.761658 687.026611 326.439667 689.891357 C 324.718414 690.817871 322.669006 691.309692 321.372772 693.540894 C 329.953735 705.390808 338.608185 717.342102 347.461182 729.592896 M 297.28894 684.862488 C 303.073425 683.409912 308.401611 680.93103 312.09668 676.177673 C 320.698822 665.111816 320.422272 652.834229 314.896973 640.875916 C 309.700958 629.630188 299.24527 626.734131 287.726868 627.089966 C 279.823517 627.334106 279.249542 628.064392 279.236908 635.844055 C 279.217712 647.665649 279.216034 659.487305 279.237671 671.308838 C 279.267273 687.470337 280.025085 688.065979 297.28894 684.862488 z" stroke-linecap="round" />
</g>
<g transform="matrix(1 0 0 1 485.95 700.5)"  >
<path style="stroke: none; stroke-width: 1; stroke-dasharray: none; stroke-linecap: butt; stroke-dashoffset: 0; stroke-linejoin: miter; stroke-miterlimit: 4; fill: rgb(0,0,0); fill-rule: nonzero; opacity: 1;" vector-effect="non-scaling-stroke"  transform=" translate(-457.65, -686.34)" d="M 505.086182 705.053955 C 509.267456 716.153076 513.441345 726.844543 517.273315 737.657166 C 518.819763 742.020569 521.46698 744.437561 525.892639 745.698547 C 533.496826 747.865295 534.167603 749.313232 532.787659 758.023743 C 527.265137 757.780396 521.688599 757.48822 516.108582 757.297791 C 502.122009 756.820251 488.13504 756.990479 474.150146 757.399597 C 472.189117 757.456909 469.61557 758.186584 469.810547 755.065491 C 469.988861 752.211365 468.034424 748.343384 472.298889 746.850952 C 474.620758 746.038269 477.190369 745.950378 479.634216 745.464966 C 482.328094 744.929993 483.741669 743.663879 482.690704 740.598022 C 479.673248 731.795471 476.753662 722.959045 473.857849 714.115479 C 473.11499 711.846985 471.634644 711.046875 469.34964 711.054871 C 456.526428 711.099609 443.702545 711.142578 430.880005 711.043091 C 427.832825 711.01947 426.336609 712.473083 425.430267 715.11322 C 422.999817 722.193054 420.398254 729.216125 418.080414 736.33197 C 416.103027 742.402771 417.036926 744.139282 423.238159 745.549133 C 427.214661 746.453186 430.062836 747.893738 430.226105 752.524414 C 430.34256 755.826233 429.314697 757.418335 425.704498 757.35968 C 416.217407 757.205627 406.72525 757.240906 397.237 757.356812 C 394.092468 757.395203 390.958832 758.032043 387.810547 758.16333 C 385.646881 758.25354 382.582092 759.319885 382.118744 755.947388 C 381.697845 752.884399 381.751495 749.500061 385.434113 747.887207 C 385.58551 747.820862 385.748657 747.761597 385.911285 747.743713 C 395.249268 746.71167 398.173401 739.953369 400.946198 732.176208 C 414.351807 694.57605 429.386322 657.569641 442.103119 619.715088 C 443.195099 616.464478 445.1716 614.979126 448.604614 614.579102 C 454.782562 613.859192 460.90744 614.673462 467.053802 614.716858 C 471.655701 614.74939 473.025604 618.432861 474.31308 621.882996 C 480.41745 638.241638 486.442383 654.629944 492.494781 671.007996 C 496.644287 682.236755 500.792572 693.466003 505.086182 705.053955 M 457.442871 696.814819 C 460.68338 696.584106 464.035156 697.408691 467.754761 695.777893 C 462.235199 679.201477 456.773071 662.797607 450.948395 645.304871 C 444.716644 662.84552 438.90387 679.206787 432.652588 696.802429 C 441.324127 696.802429 448.891815 696.802429 457.442871 696.814819 z" stroke-linecap="round" />
</g>
<g transform="matrix(1 0 0 1 767.3 719.96)"  >
<path style="stroke: none; stroke-width: 1; stroke-dasharray: none; stroke-linecap: butt; stroke-dashoffset: 0; stroke-linejoin: miter; stroke-miterlimit: 4; fill: rgb(0,0,0); fill-rule: nonzero; opacity: 1;" vector-effect="non-scaling-stroke"  transform=" translate(-739, -705.81)" d="M 739.566162 738.542419 C 748.493958 742.043152 756.902832 741.315369 765.026489 737.340271 C 768.750244 735.518127 772.254089 733.231079 775.791931 731.048401 C 780.780701 727.970581 783.900757 728.857422 786.543152 734.09436 C 787.240173 735.475708 787.171814 736.502991 786.232056 737.724792 C 765.006409 765.318115 722.066162 766.47345 702.926208 743.250122 C 694.918213 733.53363 691.494934 722.260559 691.046875 710.067078 C 690.501343 695.221313 693.796936 681.422485 703.631042 669.616577 C 721.808899 647.793945 756.811584 645.848389 775.269287 665.911926 C 783.632202 675.00238 786.283691 686.146362 786.081055 698.179504 C 786.017822 701.933899 784.174744 703.331299 780.393188 703.300354 C 762.246521 703.151855 744.098328 703.203125 725.950623 703.180725 C 719.370544 703.172607 719.289246 703.181702 720.302368 709.666626 C 722.242981 722.088989 727.226807 732.557495 739.566162 738.542419 M 755.631775 677.010437 C 753.360107 669.734253 748.759155 664.587952 741.029053 663.847351 C 733.759888 663.15094 729.130676 667.886353 725.453918 673.618408 C 722.991394 677.457336 721.657471 681.729614 720.543762 686.070862 C 719.7724 689.077393 720.795349 690.831299 724.277039 690.785828 C 731.751953 690.68811 739.228943 690.757507 746.705078 690.754089 C 757.919189 690.748962 758.780273 689.579651 755.893311 678.294861 C 755.852112 678.13385 755.812195 677.972595 755.631775 677.010437 z" stroke-linecap="round" />
</g>
<g transform="matrix(1 0 0 1 688.47 838.61)"  >
<path style="stroke: none; stroke-width: 1; stroke-dasharray: none; stroke-linecap: butt; stroke-dashoffset: 0; stroke-linejoin: miter; stroke-miterlimit: 4; fill: rgb(0,0,0); fill-rule: nonzero; opacity: 1;" vector-effect="non-scaling-stroke"  transform=" translate(-660.17, -824.46)" d="M 681.648499 837.986084 C 681.648743 827.191956 681.648743 816.894714 681.648743 806.597473 C 681.312256 806.505249 680.975708 806.413025 680.639221 806.320862 C 676.23999 816.593384 671.822083 826.857971 667.448425 837.141418 C 664.777527 843.421387 662.214905 849.74762 659.515076 856.015015 C 658.773987 857.735352 658.625854 860.237244 655.912231 860.152771 C 653.504395 860.077881 653.346985 857.814758 652.712708 856.206909 C 647.339844 842.586121 642.037903 828.937256 636.680908 815.31012 C 636.025879 813.644043 635.759766 811.750671 634.205872 810.454041 C 632.503235 811.201355 633.169006 812.737732 633.163391 813.866882 C 633.111267 824.360901 633.222961 834.855774 633.139893 845.349304 C 633.113281 848.711304 633.919189 851.235535 637.516785 852.160461 C 640.5802 852.947998 640.439819 855.352173 640.221863 857.753296 C 639.93457 860.919128 637.473816 860.209717 635.664673 860.047058 C 630.17688 859.554077 624.721069 859.474487 619.236267 860.1073 C 617.300232 860.330566 615.081055 860.527832 614.733093 857.567749 C 614.430908 854.996948 615.364563 853.099915 617.983643 852.922607 C 623.24707 852.56604 623.81012 849.40863 623.743591 845.030701 C 623.541077 831.707336 623.566223 818.37793 623.716919 805.053223 C 623.767151 800.607056 622.86261 797.171875 618.10791 795.760925 C 615.788086 795.072449 614.306702 793.549377 614.869263 790.929626 C 615.467285 788.144531 617.860229 788.658813 619.736938 788.728333 C 626.545898 788.980469 633.31427 790.169006 640.160889 789.596069 C 643.07959 789.351807 643.634399 791.640442 644.442322 793.630798 C 649.821594 806.883667 655.192871 820.139709 660.892273 834.197632 C 666.375549 820.492249 671.731995 807.507874 676.715088 794.381653 C 678.061279 790.835693 679.833069 789.448364 683.612427 789.589417 C 690.574707 789.849182 697.553528 789.663635 704.835144 789.663635 C 706.194519 792.775574 705.265198 795.260498 701.685852 796.283081 C 698.119995 797.301697 697.245728 799.492981 697.282776 802.965881 C 697.435547 817.290161 697.434998 831.617859 697.291016 845.942261 C 697.252625 849.755615 697.928284 852.433838 702.303406 853.031616 C 704.850464 853.379639 705.852234 855.319397 705.636597 857.789307 C 705.369934 860.843994 702.976685 860.218262 701.081787 860.215759 C 693.421204 860.205627 685.760864 860.115723 678.10022 860.07959 C 676.047791 860.069946 674.526245 859.477234 674.171509 857.166687 C 673.816528 854.854431 675.05249 853.530701 677.057495 853.270874 C 681.316895 852.718933 681.871948 849.991699 681.673523 846.47699 C 681.52356 843.820312 681.646667 841.148193 681.648499 837.986084 z" stroke-linecap="round" />
</g>
<g transform="matrix(1 0 0 1 525.7 838.64)"  >
<path style="stroke: none; stroke-width: 1; stroke-dasharray: none; stroke-linecap: butt; stroke-dashoffset: 0; stroke-linejoin: miter; stroke-miterlimit: 4; fill: rgb(0,0,0); fill-rule: nonzero; opacity: 1;" vector-effect="non-scaling-stroke"  transform=" translate(-497.39, -824.49)" d="M 486.992188 860.207642 C 479.999298 860.194275 473.504791 860.218933 467.010529 860.187988 C 465.00708 860.178467 462.8638 860.31604 462.716705 857.337708 C 462.592896 854.831116 463.347931 853.042358 466.078613 852.727112 C 469.957947 852.279236 470.723633 849.857056 470.694153 846.391724 C 470.577942 832.737305 470.591797 819.080872 470.682526 805.425964 C 470.714172 800.66394 469.861633 796.882935 464.249115 795.878296 C 461.748199 795.430664 459.937805 793.417664 460.358917 790.820923 C 460.879059 787.613892 463.74292 788.761414 465.672028 789.007568 C 472.816986 789.919373 479.927399 789.758789 487.084137 789.136841 C 495.248047 788.427551 503.312042 789.112549 511.286469 791.245789 C 531.201172 796.573364 536.770935 811.473389 533.704041 829.314697 C 530.221375 849.57428 516.93103 858.706055 496.479553 860.272034 C 493.501953 860.5 490.487885 860.252014 486.992188 860.207642 M 491.773834 796.942993 C 488.552734 796.927612 486.271912 797.822998 486.287659 801.710632 C 486.351105 817.374878 486.330963 833.03949 486.304871 848.703979 C 486.300964 851.054016 487.10025 852.296265 489.651062 852.700684 C 502.435791 854.727844 513.412842 847.5401 516.304565 834.918884 C 516.970337 832.013306 517.399841 828.998779 517.477173 826.0224 C 517.893188 810.010437 510.865845 796.147156 491.773834 796.942993 z" stroke-linecap="round" />
</g>
<g transform="matrix(1 0 0 1 600.21 838.61)"  >
<path style="stroke: none; stroke-width: 1; stroke-dasharray: none; stroke-linecap: butt; stroke-dashoffset: 0; stroke-linejoin: miter; stroke-miterlimit: 4; fill: rgb(0,0,0); fill-rule: nonzero; opacity: 1;" vector-effect="non-scaling-stroke"  transform=" translate(-571.91, -824.45)" d="M 590.924316 789.654541 C 599.261475 789.701416 599.263733 789.701416 599.318359 797.770813 C 599.330811 799.602783 599.428162 801.442871 599.291382 803.264587 C 599.164185 804.959167 600.106445 807.308716 597.708374 807.985046 C 595.513489 808.604065 593.466431 807.617371 591.829102 806.011658 C 591.479187 805.668579 591.224792 805.221802 590.954834 804.804382 C 589.404663 802.407227 590.148987 798.249451 586.406067 797.626343 C 580.813843 796.695312 575.112061 796.97467 569.463928 797.401917 C 567.22583 797.571228 567.175049 799.524475 567.157715 801.204285 C 567.111267 805.700439 567.197449 810.198425 567.117798 814.693665 C 567.070312 817.372864 568.088745 818.616577 570.913574 818.669983 C 575.65625 818.759644 580.470276 819.413513 581.758606 812.929871 C 582.097168 811.225891 583.613159 810.682312 585.308044 811.047607 C 586.947571 811.401001 587.271118 812.668884 587.273193 814.088745 C 587.280457 819.083374 587.334412 824.079407 587.233337 829.072021 C 587.193176 831.057617 588.150574 833.693542 584.874512 834.229614 C 582.00592 834.699036 581.131165 832.627197 580.43158 830.509033 C 579.671387 828.207275 578.899292 826.413208 575.824585 826.211304 C 567.50946 825.665222 567.112122 825.88916 567.141052 834.342773 C 567.154724 838.339844 567.380981 842.354309 567.086609 846.329468 C 566.757141 850.777588 569.095581 852.406982 572.941711 852.569885 C 576.931824 852.738831 580.935303 852.5672 584.930542 852.654236 C 586.975098 852.698792 588.457336 851.758728 589.671265 850.316833 C 591.81311 847.772888 593.937012 845.208496 595.94342 842.557983 C 597.237671 840.848389 598.839966 840.281799 600.740295 841.008606 C 602.685608 841.752502 601.953247 843.416748 601.746887 844.868958 C 601.233093 848.483887 600.632141 852.093018 600.305725 855.726013 C 600.007385 859.046082 598.392944 860.311157 595.099915 860.284546 C 578.945801 860.153931 562.790527 860.159607 546.635864 860.089478 C 544.476379 860.080139 542.121033 860.271545 541.799988 857.135925 C 541.483032 854.040344 543.767578 853.48468 545.905457 853.243835 C 549.871826 852.796997 551.093628 850.754456 551.04187 846.879883 C 550.850525 832.559204 550.881592 818.234558 550.950745 803.911987 C 550.970276 799.876648 550.350342 796.729126 545.527954 795.919067 C 542.939453 795.484253 541.420837 793.380249 542.009094 790.738525 C 542.5979 788.094788 545.140259 788.585632 547.015137 788.769287 C 561.46991 790.184631 575.961121 789.4823 590.924316 789.654541 z" stroke-linecap="round" />
</g>
<g transform="matrix(1 0 0 1 445.79 839.08)"  >
<path style="stroke: none; stroke-width: 1; stroke-dasharray: none; stroke-linecap: butt; stroke-dashoffset: 0; stroke-linejoin: miter; stroke-miterlimit: 4; fill: rgb(0,0,0); fill-rule: nonzero; opacity: 1;" vector-effect="non-scaling-stroke"  transform=" translate(-417.49, -824.92)" d="M 388.27356 850.249878 C 395.334442 832.247253 401.757416 814.403809 407.759033 796.408691 C 408.971039 792.774597 409.687622 789.270081 415.164825 789.514648 C 423.930634 789.906067 423.922791 789.525635 426.424744 796.220886 C 432.715515 813.055115 439.056396 829.870728 445.315186 846.716797 C 446.522064 849.965149 447.942963 852.778442 451.771576 853.559265 C 454.373962 854.089966 454.510742 856.176147 454.162292 858.279907 C 453.769714 860.650208 451.803253 860.427002 450.229614 860.197632 C 442.587555 859.083679 434.960968 860.02002 427.327118 860.144287 C 425.445435 860.174927 423.070007 860.661255 422.737366 857.669067 C 422.468781 855.253052 423.524841 853.982666 425.992249 853.612488 C 428.763397 853.196594 429.431213 851.478699 428.538666 848.890198 C 423.811798 835.182434 426.662903 837.442932 413.685394 837.190491 C 413.019257 837.177551 412.352631 837.187195 411.686249 837.187256 C 402.208282 837.188538 399.574188 839.588928 398.462616 848.941895 C 398.14679 851.599426 399.622864 852.534607 401.722992 853.103882 C 404.070587 853.740173 405.738525 854.9151 405.122314 857.663879 C 404.427307 860.764099 402.002289 860.13092 399.900421 859.798645 C 395.066711 859.034424 390.283691 859.488281 385.469574 860.006775 C 383.641754 860.203613 381.264801 860.857544 380.768677 857.819824 C 380.340057 855.195312 381.42218 853.780579 384.025635 853.229492 C 385.652008 852.885254 387.208252 852.182861 388.27356 850.249878 M 410.255707 814.684448 C 408.667511 819.443115 406.427704 824.01709 405.442505 829.503357 C 411.151459 829.795471 416.138428 830.169678 421.744812 829.175598 C 419.314636 821.532837 417.45993 814.419983 413.420074 806.953308 C 412.111786 810.056091 411.289429 812.00647 410.255707 814.684448 z" stroke-linecap="round" />
</g>
<g transform="matrix(1 0 0 1 295.32 839.05)"  >
<path style="stroke: none; stroke-width: 1; stroke-dasharray: none; stroke-linecap: butt; stroke-dashoffset: 0; stroke-linejoin: miter; stroke-miterlimit: 4; fill: rgb(0,0,0); fill-rule: nonzero; opacity: 1;" vector-effect="non-scaling-stroke"  transform=" translate(-267.03, -824.89)" d="M 236.740585 859.911743 C 234.219879 860.145996 231.782669 861.045288 231.069382 857.899292 C 230.377182 854.846252 232.199936 853.874939 234.800552 853.2323 C 238.018265 852.437134 238.76088 849.42981 239.699051 846.787415 C 245.704391 829.872864 251.740829 812.968506 257.57666 795.9953 C 258.91983 792.088806 260.127777 789.205444 265.280548 789.507629 C 270.165558 789.79425 273.798737 789.740601 275.847534 795.765747 C 281.837921 813.382446 288.742584 830.687134 295.165344 848.159485 C 296.111084 850.7323 297.575073 852.542236 300.077362 853.37085 C 302.640778 854.219849 303.512848 856.022644 302.978088 858.376587 C 302.414825 860.855957 300.130768 860.221558 298.408569 860.235046 C 291.282043 860.290894 284.189087 858.770813 277.014374 860.011047 C 275.104248 860.341248 272.486389 860.817871 271.793854 857.686951 C 271.092468 854.516418 273.093384 853.661316 275.572601 853.072205 C 276.504517 852.850708 277.559204 852.63855 278.36554 850.912415 C 277.348083 847.685303 276.129761 843.931396 274.986603 840.154724 C 274.273865 837.80011 272.577148 837.239502 270.371643 837.265381 C 265.546082 837.322144 260.718353 837.366089 255.893906 837.280334 C 253.367889 837.235474 251.815796 838.177612 251.126617 840.673401 C 250.507919 842.914001 249.759125 845.125977 248.937714 847.301453 C 247.867065 850.137024 248.245834 852.146057 251.546265 852.98822 C 254.07991 853.634644 255.878342 855.109314 255.040588 857.994202 C 254.189301 860.925659 251.628479 860.159424 249.59053 859.871826 C 245.439301 859.28595 241.315826 859.152649 236.740585 859.911743 M 260.75647 830.644958 C 264.125 830.395325 267.607086 831.276855 271.398499 829.791138 C 268.647858 821.833008 266.006927 814.192261 263.066589 805.685303 C 261.286499 810.640381 259.722198 814.483398 258.536774 818.439941 C 257.379547 822.302429 255.154648 825.910645 255.21991 830.401001 C 256.954407 830.489258 258.421387 830.563904 260.75647 830.644958 z" stroke-linecap="round" />
</g>
<g transform="matrix(1 0 0 1 776.82 838.6)"  >
<path style="stroke: none; stroke-width: 1; stroke-dasharray: none; stroke-linecap: butt; stroke-dashoffset: 0; stroke-linejoin: miter; stroke-miterlimit: 4; fill: rgb(0,0,0); fill-rule: nonzero; opacity: 1;" vector-effect="non-scaling-stroke"  transform=" translate(-748.52, -824.44)" d="M 756.578247 814.588745 C 759.441711 808.77655 763.01709 803.719788 765.117065 797.928101 C 762.879456 795.719482 757.549744 796.555298 758.944153 791.869324 C 760.236389 787.526794 764.322876 790.097595 767.116821 789.746948 C 771.227051 789.23114 775.414673 789.341003 779.567932 789.153381 C 781.371704 789.071899 782.991943 789.255615 783.224731 791.507568 C 783.406738 793.269226 783.207275 795.013733 781.068298 795.39563 C 776.076538 796.286926 774.255981 800.247314 772.235107 804.121399 C 769.462952 809.435913 767.123901 815.088745 763.627258 819.888489 C 757.265625 828.620728 756.843323 838.30542 757.247681 848.407166 C 757.365967 851.363159 758.653076 852.542175 761.282104 853.078796 C 763.813416 853.595398 765.628601 854.890015 765.081116 857.89801 C 764.486938 861.162537 761.875061 860.162842 759.888062 860.194031 C 752.074951 860.31665 744.296021 858.656738 736.452393 859.777405 C 734.609924 860.040649 733.184082 859.323975 732.851746 857.226562 C 732.510864 855.074829 733.329285 853.312683 735.445374 853.122986 C 740.521851 852.668091 740.576233 849.389404 740.945557 845.412781 C 741.700562 837.282532 740.131165 830.073975 735.561279 823.194458 C 731.797852 817.528992 728.807678 811.338867 725.627747 805.30072 C 723.564453 801.382935 721.238647 797.884583 716.897156 796.125977 C 714.708313 795.23938 713.342468 793.454834 713.888367 790.976624 C 714.563049 787.913269 717.275818 788.505066 719.204041 788.832275 C 725.832153 789.957153 732.492615 789.458374 739.135254 789.72644 C 741.501404 789.82196 744.774536 788.3172 745.680176 792.333862 C 746.589661 796.368164 742.828491 796.023743 740.08844 797.711792 C 744.092346 805.350952 747.726379 813.045593 752.55658 820.228943 C 755.133545 819.078369 755.114929 816.528564 756.578247 814.588745 z" stroke-linecap="round" />
</g>
<g transform="matrix(1 0 0 1 369.05 839.22)"  >
<path style="stroke: none; stroke-width: 1; stroke-dasharray: none; stroke-linecap: butt; stroke-dashoffset: 0; stroke-linejoin: miter; stroke-miterlimit: 4; fill: rgb(0,0,0); fill-rule: nonzero; opacity: 1;" vector-effect="non-scaling-stroke"  transform=" translate(-340.75, -825.07)" d="M 307.795349 820.473511 C 311.344116 803.895264 320.609741 793.202759 337.005768 789.419983 C 347.700195 786.952637 357.773346 789.527344 367.59021 793.678284 C 368.619324 794.113464 369.150024 794.867737 369.243683 795.954224 C 369.600616 800.094116 370.023956 804.230347 370.270874 808.376892 C 370.366364 809.980042 370.521057 811.885376 368.158813 812.230774 C 366.259644 812.508484 364.441589 812.390503 363.330719 810.507751 C 362.40152 808.9328 361.321991 807.386597 360.731567 805.681396 C 356.786377 794.286804 341.341644 792.486511 332.347107 800.726868 C 320.764587 811.337952 321.860596 837.078369 334.342804 846.630432 C 343.361053 853.531677 353.046906 853.43927 362.298492 846.292175 C 363.874084 845.075012 365.358612 843.708923 366.726257 842.261414 C 368.546906 840.334656 370.265717 840.077637 372.324707 841.906189 C 374.595154 843.922485 374.27594 845.691528 372.404877 847.843445 C 367.242157 853.781128 361.092621 858.299805 353.449829 860.195923 C 344.206818 862.488953 334.923645 862.34436 326.111053 858.23468 C 313.930878 852.554565 309.096741 842.007202 307.71875 829.405029 C 307.413116 826.609985 307.714874 823.748535 307.795349 820.473511 z" stroke-linecap="round" />
</g>
<g transform="matrix(1 0 0 1 322.18 922.24)"  >
<path style="stroke: none; stroke-width: 1; stroke-dasharray: none; stroke-linecap: butt; stroke-dashoffset: 0; stroke-linejoin: miter; stroke-miterlimit: 4; fill: rgb(0,0,0); fill-rule: nonzero; opacity: 1;" vector-effect="non-scaling-stroke"  transform=" translate(-293.87, -908.09)" d="M 307.107422 897.774902 C 310.41217 900.915161 309.191986 904.619873 309.2854 908 C 309.385437 911.619324 308.870483 915.298218 312.662445 918.083374 C 308.920837 920.219116 305.607971 919.368042 301.764282 918.964355 C 304.322327 914.643555 303.879517 910.202271 303.801208 905.812073 C 303.764801 903.769043 303.691437 901.48175 300.863281 901.527405 C 298.441498 901.566345 296.595947 903.059326 296.466736 905.489502 C 296.234772 909.852722 295.021942 914.442871 299.10141 918.251526 C 295.312378 920.007812 292.312622 919.350708 288.600525 918.915466 C 291.115082 914.726624 290.82132 910.595032 290.71875 906.509827 C 290.667664 904.473633 291.299438 901.561523 288.035217 901.649597 C 285.306641 901.723267 283.451233 903.576111 283.380707 906.548157 C 283.284668 910.59198 282.5177 914.78833 286.27478 918.360779 C 282.175354 919.893738 278.748047 919.685059 275.087219 918.696838 C 278.654449 911.872498 279.224518 905.291138 275.09494 898.718201 C 278.393555 894.7901 282.365051 899.017639 285.500793 897.963379 C 289.523041 896.611145 292.815277 895.928711 296.041382 899.479309 C 299.463806 897.619629 302.77002 895.296936 307.107422 897.774902 z" stroke-linecap="round" />
</g>
<g transform="matrix(1 0 0 1 365.92 917.5)"  >
<path style="stroke: none; stroke-width: 1; stroke-dasharray: none; stroke-linecap: butt; stroke-dashoffset: 0; stroke-linejoin: miter; stroke-miterlimit: 4; fill: rgb(0,0,0); fill-rule: nonzero; opacity: 1;" vector-effect="non-scaling-stroke"  transform=" translate(-337.62, -903.34)" d="M 343.585022 887.013428 C 348.795532 888.612183 349.485626 890.690613 346.379028 894.943909 C 344.477905 893.00177 342.805084 890.939026 339.462921 891.28363 C 336.266754 891.613098 334.161713 891.800964 334.213745 895.92395 C 334.261475 899.706421 335.619629 901.09137 339.222046 900.68396 C 340.039886 900.591553 340.882965 900.691833 341.712341 900.739258 C 342.929077 900.80896 344.196991 901.046814 344.293457 902.514282 C 344.398285 904.109802 343.073853 904.253479 341.878479 904.330322 C 341.049805 904.383606 340.215698 904.348511 339.386139 904.392639 C 337.277618 904.504822 334.517395 904.045776 334.511749 907.177063 C 334.506744 909.948608 332.718323 913.790955 336.174164 915.227966 C 338.596313 916.235229 342.132477 916.907288 344.370331 913.863464 C 345.245483 912.673157 345.761261 910.983215 347.664551 911.492554 C 348.992371 911.8479 349.365143 913.113586 349.028778 914.328247 C 348.526886 916.140808 348.920258 918.805969 346.368408 919.168213 C 339.644226 920.122742 332.893738 920.061768 326.096588 919.077209 C 328.975098 908.722046 328.465027 898.745911 326.411621 887.833862 C 331.496368 885.935669 337.406067 887.347168 343.585022 887.013428 z" stroke-linecap="round" />
</g>
<g transform="matrix(1 0 0 1 624.59 917.51)"  >
<path style="stroke: none; stroke-width: 1; stroke-dasharray: none; stroke-linecap: butt; stroke-dashoffset: 0; stroke-linejoin: miter; stroke-miterlimit: 4; fill: rgb(0,0,0); fill-rule: nonzero; opacity: 1;" vector-effect="non-scaling-stroke"  transform=" translate(-596.29, -903.35)" d="M 605.797119 888.4552 C 606.29126 890.907471 606.887634 893.047729 604.936401 895.236145 C 602.518311 892.8255 600.28656 890.706421 596.511719 891.31842 C 593.021606 891.884216 593.419312 894.135193 593.283264 896.437134 C 593.136963 898.913208 593.626282 900.668945 596.708191 900.679016 C 598.867798 900.686035 601.364136 899.988708 603.099915 902.180908 C 602.115234 905.1828 599.759521 904.097351 597.987671 904.370361 C 596.129211 904.656738 593.456543 903.835083 593.4245 906.837036 C 593.394104 909.674988 591.749023 913.470154 594.785522 915.111023 C 597.091736 916.357178 600.665649 916.883423 602.902161 913.780701 C 603.752991 912.600403 604.218201 910.834045 606.182556 911.391968 C 607.630005 911.803101 607.458008 913.159973 607.385864 914.328796 C 607.261475 916.344421 607.182861 918.372742 604.792114 919.220642 C 601.490051 920.391785 588.951111 919.912598 585.153198 918.427856 C 587.724915 908.52356 587.398376 898.627686 585.421692 887.588989 C 591.838257 886.709229 598.656738 886.143127 605.797119 888.4552 z" stroke-linecap="round" />
</g>
<g transform="matrix(1 0 0 1 390.7 927.16)"  >
<path style="stroke: none; stroke-width: 1; stroke-dasharray: none; stroke-linecap: butt; stroke-dashoffset: 0; stroke-linejoin: miter; stroke-miterlimit: 4; fill: rgb(0,0,0); fill-rule: nonzero; opacity: 1;" vector-effect="non-scaling-stroke"  transform=" translate(-362.41, -913.01)" d="M 370.34375 908.030212 C 370.347443 911.177307 370.324799 913.831726 370.360565 916.485413 C 370.414551 920.493958 369.363708 924.744629 374.041901 927.957397 C 369.303497 929.764221 365.792236 929.733276 361.832336 928.349854 C 363.040527 925.357483 366.494629 923.297607 364.340637 919.811646 C 355.668915 920.779663 351.579224 917.836609 350.832001 910.009827 C 350.181915 903.200745 355.128693 896.916199 361.312927 896.694458 C 369.333435 896.40686 370.340912 897.616455 370.34375 908.030212 M 364.889191 911.012329 C 364.881927 908.873047 364.892303 906.733459 364.862366 904.594482 C 364.833954 902.563904 363.987 900.96759 361.8862 900.650024 C 359.756348 900.327942 358.488464 901.873413 357.783142 903.565857 C 356.817749 905.882446 356.983582 908.408142 357.175323 910.875305 C 357.350433 913.128357 357.919617 915.279846 360.585693 915.601501 C 363.222046 915.919495 364.468475 914.297852 364.889191 911.012329 z" stroke-linecap="round" />
</g>
<g transform="matrix(1 0 0 1 250.63 917.47)"  >
<path style="stroke: none; stroke-width: 1; stroke-dasharray: none; stroke-linecap: butt; stroke-dashoffset: 0; stroke-linejoin: miter; stroke-miterlimit: 4; fill: rgb(0,0,0); fill-rule: nonzero; opacity: 1;" vector-effect="non-scaling-stroke"  transform=" translate(-222.34, -903.32)" d="M 227.344543 900.790161 C 230.886002 903.1026 229.358261 903.804077 226.663315 904.352356 C 224.353806 904.822266 220.489273 902.901672 220.338898 907.031372 C 220.221252 910.261841 217.833038 915.11731 224.034195 916.086304 C 224.873138 916.217468 225.345963 917.071594 225.303802 918.000488 C 225.247528 919.240112 224.349533 919.788757 223.321091 919.804199 C 219.227295 919.865784 215.081009 920.326416 211.121613 918.845215 C 215.207413 908.591003 214.429611 898.51001 211.762589 887.767883 C 218.122589 886.310608 225.087234 886.307617 231.733078 888.12085 C 234.678497 888.9245 233.372391 892.42334 232.455978 895.182007 C 229.509598 894.213806 228.620193 890.375 224.817673 891.220215 C 222.160492 891.810791 219.973984 891.682129 220.070755 895.295593 C 220.153549 898.388062 220.201202 901.116638 224.455719 900.67041 C 225.273819 900.584595 226.113754 900.706909 227.344543 900.790161 z" stroke-linecap="round" />
</g>
<g transform="matrix(1 0 0 1 518.82 922.45)"  >
<path style="stroke: none; stroke-width: 1; stroke-dasharray: none; stroke-linecap: butt; stroke-dashoffset: 0; stroke-linejoin: miter; stroke-miterlimit: 4; fill: rgb(0,0,0); fill-rule: nonzero; opacity: 1;" vector-effect="non-scaling-stroke"  transform=" translate(-490.52, -908.29)" d="M 492.268311 918.469299 C 494.521271 914.401917 494.080353 910.219727 493.957184 906.1203 C 493.900482 904.233582 494.292511 901.541321 491.363556 901.676147 C 489.007141 901.784668 486.704956 903.176086 486.491669 905.875793 C 486.157837 910.101074 485.415619 914.495361 488.914246 918.328796 C 485.157898 920.700012 481.736237 918.944763 477.639923 919.394836 C 481.573547 912.015015 482.259003 905.43335 478.093933 898.845093 C 478.168335 897.864746 479.02829 897.510864 479.790619 897.389404 C 485.013306 896.55719 490.263855 898.033142 495.573669 897.029541 C 497.733795 896.621338 499.165009 899.108337 499.30481 901.534058 C 499.390747 903.025635 499.341461 904.525024 499.351227 906.020935 C 499.379608 910.363525 498.406799 914.944031 503.403107 918.34021 C 499.063232 919.952515 495.761932 919.847717 492.268311 918.469299 z" stroke-linecap="round" />
</g>
<g transform="matrix(1 0 0 1 827.72 922.27)"  >
<path style="stroke: none; stroke-width: 1; stroke-dasharray: none; stroke-linecap: butt; stroke-dashoffset: 0; stroke-linejoin: miter; stroke-miterlimit: 4; fill: rgb(0,0,0); fill-rule: nonzero; opacity: 1;" vector-effect="non-scaling-stroke"  transform=" translate(-799.41, -908.1)" d="M 808.330017 906.058105 C 808.382141 910.697205 807.358948 915.137146 812.280945 918.375732 C 807.918457 919.738464 804.534607 920.033264 800.636353 918.50708 C 803.553894 914.655823 802.876831 910.46814 802.827942 906.398682 C 802.803406 904.354614 803.327515 901.470947 800.033752 901.673889 C 797.390015 901.836853 795.389832 903.473145 795.318359 906.523499 C 795.222778 910.600525 794.63855 914.770386 797.95929 918.539978 C 793.986206 919.980164 790.573303 919.613098 786.546753 918.766907 C 790.971375 912.059631 790.808838 905.535583 787.150635 898.543335 C 789.679077 897.180115 792.290649 895.450562 795.270874 898.065247 C 796.350342 899.012329 796.994934 898.27948 797.885864 897.953247 C 805.822876 895.046509 808.278198 896.853699 808.330017 906.058105 z" stroke-linecap="round" />
</g>
<g transform="matrix(1 0 0 1 651.29 922.25)"  >
<path style="stroke: none; stroke-width: 1; stroke-dasharray: none; stroke-linecap: butt; stroke-dashoffset: 0; stroke-linejoin: miter; stroke-miterlimit: 4; fill: rgb(0,0,0); fill-rule: nonzero; opacity: 1;" vector-effect="non-scaling-stroke"  transform=" translate(-622.99, -908.09)" d="M 626.311279 915.756226 C 627.851318 912.587036 626.816589 909.577942 626.967529 906.629883 C 627.072144 904.586487 627.456055 901.689758 624.334595 901.679443 C 621.401001 901.669678 619.417908 903.553345 619.335815 906.764038 C 619.235229 910.699829 618.831787 914.685669 621.210083 918.47052 C 617.547729 919.860657 614.313049 919.835083 610.647034 918.977112 C 614.739441 911.994141 614.907471 905.450867 611.250671 898.455566 C 613.826538 897.121338 616.418823 895.417786 619.418457 898.170105 C 620.884888 899.515625 621.826111 897.838257 622.928711 897.428406 C 628.927917 895.198547 632.067139 897.403687 632.380005 903.784729 C 632.614624 908.570557 630.631592 913.823669 635.326965 917.924744 C 632.274475 920.382385 629.07605 919.550293 626.178528 919.026489 C 624.137573 918.657532 625.104797 917.104797 626.311279 915.756226 z" stroke-linecap="round" />
</g>
<g transform="matrix(1 0 0 1 679.53 922.25)"  >
<path style="stroke: none; stroke-width: 1; stroke-dasharray: none; stroke-linecap: butt; stroke-dashoffset: 0; stroke-linejoin: miter; stroke-miterlimit: 4; fill: rgb(0,0,0); fill-rule: nonzero; opacity: 1;" vector-effect="non-scaling-stroke"  transform=" translate(-651.23, -908.1)" d="M 655.586304 904.837402 C 655.02356 902.383728 653.832153 901.060791 651.610901 901.725342 C 649.46936 902.366028 647.57666 903.603577 647.43988 906.148376 C 647.219055 910.254639 646.800171 914.41217 649.303101 918.37616 C 645.642639 919.89325 642.432556 919.896851 638.804993 918.825073 C 643.182434 911.996277 642.441162 905.523987 639.787415 898.463745 C 642.159485 897.504272 644.716248 895.461487 647.830017 898.106018 C 649.06781 899.157227 649.972473 897.834473 650.979614 897.477783 C 657.114258 895.304749 660.195862 897.210571 660.798279 903.680115 C 660.952148 905.332886 660.942383 907.010071 660.885254 908.671814 C 660.696472 914.155701 660.674866 914.154968 663.664673 918.303772 C 660.206726 920.272644 656.805542 919.225403 652.312866 918.953796 C 656.722229 914.476074 655.499146 909.745789 655.586304 904.837402 z" stroke-linecap="round" />
</g>
<g transform="matrix(1 0 0 1 415.69 922.73)"  >
<path style="stroke: none; stroke-width: 1; stroke-dasharray: none; stroke-linecap: butt; stroke-dashoffset: 0; stroke-linejoin: miter; stroke-miterlimit: 4; fill: rgb(0,0,0); fill-rule: nonzero; opacity: 1;" vector-effect="non-scaling-stroke"  transform=" translate(-387.39, -908.57)" d="M 397.734253 915.692505 C 399.429932 916.762451 399.910553 917.977173 398.486908 919.046021 C 396.839081 920.283264 394.566956 921.123901 392.993591 919.528564 C 391.039032 917.546753 389.636993 918.556335 387.782837 919.335266 C 382.241852 921.662903 378.739044 919.519592 378.188629 913.459167 C 377.964264 910.989258 378.061829 908.479797 378.15863 905.993958 C 378.261627 903.349792 379.011719 900.574036 375.463196 899.358032 C 377.296722 896.459839 379.575531 896.572632 381.5672 897.047119 C 383.971069 897.619751 383.27536 899.960388 383.330963 901.668884 C 383.438995 904.986267 383.351318 908.30957 383.371979 911.63031 C 383.383148 913.425659 383.882141 915.173523 385.915802 915.297241 C 387.973969 915.422485 390.340088 914.613464 390.516785 912.365662 C 390.879211 907.755554 392.604004 902.789795 388.205292 898.703918 C 390.108307 896.624329 392.397675 896.338867 394.585663 897.157532 C 397.010712 898.064941 396.038422 900.538513 396.281616 902.415161 C 396.845856 906.768921 395.038086 911.326965 397.734253 915.692505 z" stroke-linecap="round" />
</g>
<g transform="matrix(1 0 0 1 802.49 922.68)"  >
<path style="stroke: none; stroke-width: 1; stroke-dasharray: none; stroke-linecap: butt; stroke-dashoffset: 0; stroke-linejoin: miter; stroke-miterlimit: 4; fill: rgb(0,0,0); fill-rule: nonzero; opacity: 1;" vector-effect="non-scaling-stroke"  transform=" translate(-774.19, -908.53)" d="M 763.151733 908.957397 C 763.548279 904.068298 764.935791 900.113708 769.234924 897.863464 C 774.752075 894.975769 781.913574 897.583496 784.209656 903.269165 C 786.957825 910.074341 783.997864 917.455139 777.621887 919.69635 C 771.275635 921.926941 765.337158 918.579041 763.627197 911.791992 C 763.425293 910.990967 763.312927 910.16748 763.151733 908.957397 M 778.898376 907.660889 C 778.786804 904.563416 778.512512 901.325867 774.763794 900.648193 C 771.685303 900.091797 770.488464 902.665955 769.602539 905.055054 C 769.270508 905.950378 769.354553 907.019958 769.344055 908.011108 C 769.30426 911.782593 769.380859 916.215027 774.18689 916.34552 C 778.935913 916.474426 778.74823 912.016235 778.898376 907.660889 z" stroke-linecap="round" />
</g>
<g transform="matrix(1 0 0 1 704.44 922.69)"  >
<path style="stroke: none; stroke-width: 1; stroke-dasharray: none; stroke-linecap: butt; stroke-dashoffset: 0; stroke-linejoin: miter; stroke-miterlimit: 4; fill: rgb(0,0,0); fill-rule: nonzero; opacity: 1;" vector-effect="non-scaling-stroke"  transform=" translate(-676.13, -908.53)" d="M 687.25 908.872803 C 686.478149 913.74231 684.726562 917.55426 680.295898 919.461426 C 674.526794 921.944763 668.225464 919.27887 665.967529 913.481873 C 663.382935 906.846008 666.250732 899.660034 672.402527 897.357239 C 678.060303 895.23938 684.323975 898.213379 686.407043 904.111145 C 686.893433 905.488281 686.988037 907.003845 687.25 908.872803 M 680.854919 910.174133 C 680.864136 903.352539 679.252014 900.239868 675.854187 900.519104 C 672.588196 900.787476 670.852417 904.468994 671.333008 910.221558 C 671.578674 913.162842 672.316162 916.158569 675.748413 916.465027 C 679.268311 916.779297 680.498169 914.125488 680.854919 910.174133 z" stroke-linecap="round" />
</g>
<g transform="matrix(1 0 0 1 588.59 922.66)"  >
<path style="stroke: none; stroke-width: 1; stroke-dasharray: none; stroke-linecap: butt; stroke-dashoffset: 0; stroke-linejoin: miter; stroke-miterlimit: 4; fill: rgb(0,0,0); fill-rule: nonzero; opacity: 1;" vector-effect="non-scaling-stroke"  transform=" translate(-560.29, -908.5)" d="M 570.018188 902.440796 C 573.02832 911.417664 569.666748 918.834656 562.320557 920.186768 C 556.851379 921.19342 551.973389 918.32959 550.14801 913.040527 C 548.237854 907.505798 550.478088 900.65918 555.051453 898.054932 C 560.11145 895.173584 565.468994 896.630127 570.018188 902.440796 M 555.713013 905.39209 C 555.604431 906.045898 555.405518 906.699219 555.402344 907.353516 C 555.385925 910.74823 555.631592 914.096069 558.914856 916.131958 C 560.395508 917.049927 561.949768 916.568481 563.005554 915.38562 C 565.378357 912.727112 565.966614 909.49231 565.262451 906.075806 C 564.749268 903.585693 563.961975 900.962646 560.947937 900.617493 C 558.172241 900.299683 556.860535 902.359131 555.713013 905.39209 z" stroke-linecap="round" />
</g>
<g transform="matrix(1 0 0 1 290.66 922.57)"  >
<path style="stroke: none; stroke-width: 1; stroke-dasharray: none; stroke-linecap: butt; stroke-dashoffset: 0; stroke-linejoin: miter; stroke-miterlimit: 4; fill: rgb(0,0,0); fill-rule: nonzero; opacity: 1;" vector-effect="non-scaling-stroke"  transform=" translate(-262.36, -908.41)" d="M 268.126465 918.473267 C 261.075775 921.29187 256.75943 920.486511 253.552826 916.036255 C 250.448074 911.727356 250.78154 904.199097 254.252625 900.238037 C 257.49942 896.532776 263.026672 895.618225 267.415375 898.059937 C 272.336609 900.797974 274.495361 906.722717 272.63092 912.229675 C 271.811127 914.651184 270.580139 916.751343 268.126465 918.473267 M 265.579834 914.760803 C 267.614075 911.355591 267.146423 907.695801 266.513123 904.0849 C 266.164307 902.096436 264.644196 900.909241 262.703918 900.588379 C 260.595642 900.239807 259.213104 901.497437 258.374908 903.271118 C 256.875763 906.443359 256.866333 909.737671 258.134705 912.963867 C 259.474152 916.370667 261.631744 917.821228 265.579834 914.760803 z" stroke-linecap="round" />
</g>
<g transform="matrix(1 0 0 1 492.81 922.68)"  >
<path style="stroke: none; stroke-width: 1; stroke-dasharray: none; stroke-linecap: butt; stroke-dashoffset: 0; stroke-linejoin: miter; stroke-miterlimit: 4; fill: rgb(0,0,0); fill-rule: nonzero; opacity: 1;" vector-effect="non-scaling-stroke"  transform=" translate(-464.52, -908.52)" d="M 455.798706 915.940857 C 453.41571 912.337036 453.129639 908.71228 453.985413 905.058777 C 455.098328 900.307312 459.340698 896.932007 464.008667 896.711853 C 468.815308 896.485107 473.200806 899.445923 474.795715 903.994629 C 476.587677 909.105286 474.802917 915.477173 470.752502 918.429688 C 467.23407 920.994385 461.757599 921.001282 458.131683 918.371399 C 457.337494 917.795349 456.715118 916.982422 455.798706 915.940857 M 469.542694 910.037415 C 469.497253 908.712463 469.640778 907.347046 469.367065 906.071045 C 468.795135 903.404602 467.926361 900.562988 464.589661 900.577576 C 461.597992 900.590698 460.531464 903.082886 459.954346 905.650085 C 459.700867 906.777588 459.296051 907.982239 459.466309 909.072815 C 459.952057 912.184509 460.316986 915.844238 464.222687 916.37738 C 467.970917 916.889099 468.521973 913.477417 469.542694 910.037415 z" stroke-linecap="round" />
</g>
<g transform="matrix(1 0 0 1 750.51 922.6)"  >
<path style="stroke: none; stroke-width: 1; stroke-dasharray: none; stroke-linecap: butt; stroke-dashoffset: 0; stroke-linejoin: miter; stroke-miterlimit: 4; fill: rgb(0,0,0); fill-rule: nonzero; opacity: 1;" vector-effect="non-scaling-stroke"  transform=" translate(-722.21, -908.44)" d="M 720.352173 896.789795 C 727.689697 896.747559 729.151855 898.288696 729.38092 905.149048 C 729.518127 909.259827 727.901367 913.876221 732.657715 916.887756 C 730.43335 919.438232 728.307983 921.439819 725.396484 918.934387 C 723.549683 917.345032 722.440186 918.597778 720.986023 919.167786 C 716.279663 921.012451 713.210571 919.987244 712.027527 916.233948 C 710.894958 912.640808 713.464966 908.850586 717.791199 907.881592 C 718.908081 907.631531 720.095886 907.663391 721.252869 907.635437 C 722.870972 907.596313 724.313843 907.264709 724.532776 905.355042 C 724.724792 903.680359 724.746887 901.850403 722.962524 900.989746 C 721.199036 900.139099 720.241089 901.601685 719.360046 902.802368 C 717.853333 904.855652 716.082031 904.588013 714.026306 903.522949 C 713.693237 899.209473 716.636414 897.876465 720.352173 896.789795 M 724.117737 911.400085 C 723.399536 910.704285 722.578186 911.004761 721.774658 911.161804 C 720.338135 911.442627 718.638611 911.307434 717.964172 912.983459 C 717.789062 913.41864 718.13385 914.385681 718.545593 914.677979 C 720.234741 915.876953 721.681519 914.670776 723.113037 913.927368 C 723.86499 913.536926 724.391357 912.874268 724.117737 911.400085 z" stroke-linecap="round" />
</g>
<g transform="matrix(1 0 0 1 440.87 922.48)"  >
<path style="stroke: none; stroke-width: 1; stroke-dasharray: none; stroke-linecap: butt; stroke-dashoffset: 0; stroke-linejoin: miter; stroke-miterlimit: 4; fill: rgb(0,0,0); fill-rule: nonzero; opacity: 1;" vector-effect="non-scaling-stroke"  transform=" translate(-412.57, -908.32)" d="M 404.124084 919.002075 C 400.012695 913.002563 402.42981 908.448059 409.777618 907.694763 C 412.132874 907.453369 414.681702 907.811951 414.612518 904.262024 C 414.585114 902.855896 414.326874 901.557373 412.925354 900.913513 C 411.597504 900.30365 410.6203 901.119751 409.965118 902.098633 C 408.545593 904.219482 406.798004 904.860901 404.472351 903.77124 C 404.283478 899.316528 406.627106 897.057312 411.7323 896.713928 C 416.393311 896.400452 419.030304 898.370972 419.329987 902.552673 C 419.484375 904.707214 419.428986 906.88031 419.394928 909.043823 C 419.344696 912.232056 418.90979 915.558228 423.009796 916.370117 C 422.530273 919.067627 420.078064 920.195068 419.315063 919.680115 C 414.609131 916.504395 410.257843 920.5401 405.781525 919.894592 C 405.313232 919.826965 404.886292 919.472351 404.124084 919.002075 M 408.623352 914.981934 C 411.38913 915.204773 413.684967 914.712402 414.528595 910.853394 C 411.719086 911.617065 408.332703 910.012634 408.623352 914.981934 z" stroke-linecap="round" />
</g>
<g transform="matrix(1 0 0 1 541.97 922.56)"  >
<path style="stroke: none; stroke-width: 1; stroke-dasharray: none; stroke-linecap: butt; stroke-dashoffset: 0; stroke-linejoin: miter; stroke-miterlimit: 4; fill: rgb(0,0,0); fill-rule: nonzero; opacity: 1;" vector-effect="non-scaling-stroke"  transform=" translate(-513.67, -908.41)" d="M 506.046509 906.298218 C 505.492767 899.008606 509.685333 895.382996 516.369568 896.817566 C 518.715759 897.321045 520.187134 898.717834 520.914429 900.949341 C 521.230042 901.917603 521.469727 903.015015 520.541443 903.70575 C 519.419922 904.540527 518.376953 904.097961 517.530151 903.063721 C 516.904419 902.299622 516.347717 901.389465 515.546997 900.879028 C 514.336853 900.107666 512.863037 900.100708 511.93158 901.306274 C 510.640808 902.97699 511.857849 904.099365 513.209167 904.913147 C 515.056335 906.025513 517.151794 906.786499 518.839722 908.08844 C 521.393982 910.058777 522.782471 912.815369 521.306946 915.97821 C 519.610718 919.61438 516.212646 920.524658 512.505615 920.271973 C 509.419495 920.061646 506.471283 919.418274 505.704956 915.691711 C 505.474396 914.570618 505.024292 913.247437 506.284943 912.5224 C 507.7229 911.695435 508.59787 912.462158 509.471954 913.794373 C 511.369385 916.686462 513.622681 918.121399 516.479431 914.351318 C 513.711487 910.697815 508.327057 910.802979 506.046509 906.298218 z" stroke-linecap="round" />
</g>
<g transform="matrix(1 0 0 1 727.28 922.4)"  >
<path style="stroke: none; stroke-width: 1; stroke-dasharray: none; stroke-linecap: butt; stroke-dashoffset: 0; stroke-linejoin: miter; stroke-miterlimit: 4; fill: rgb(0,0,0); fill-rule: nonzero; opacity: 1;" vector-effect="non-scaling-stroke"  transform=" translate(-698.98, -908.24)" d="M 706.198242 907.161133 C 704.964539 909.929199 703.982788 912.40564 702.766907 914.761292 C 701.839661 916.557678 701.754089 919.516968 698.95105 919.329895 C 696.303162 919.153137 696.335388 916.245422 695.403748 914.41217 C 694.729797 913.086121 694.329346 911.623657 693.69812 910.272827 C 691.854797 906.328796 691.338196 901.598938 686.304871 899.485962 C 692.1922 896.309937 694.39502 897.066223 696.39325 902.145508 C 697.399719 904.703613 697.939636 907.49585 700.063904 910.116028 C 701.919006 906.116943 704.843201 902.761353 700.618042 898.654175 C 704.414917 896.20166 707.778198 897.210571 711.659546 898.395874 C 709.816711 901.437195 707.124634 903.573608 706.198242 907.161133 z" stroke-linecap="round" />
</g>
<g transform="matrix(1 0 0 1 567.84 919.73)"  >
<path style="stroke: none; stroke-width: 1; stroke-dasharray: none; stroke-linecap: butt; stroke-dashoffset: 0; stroke-linejoin: miter; stroke-miterlimit: 4; fill: rgb(0,0,0); fill-rule: nonzero; opacity: 1;" vector-effect="non-scaling-stroke"  transform=" translate(-539.54, -905.58)" d="M 541.354492 905.336609 C 541.350891 906.599487 541.434814 907.442505 541.33551 908.263367 C 540.747009 913.127747 541.793274 916.619385 548.092834 915.727234 C 547.263062 919.772827 544.396057 920.095947 541.648438 920.215515 C 538.995911 920.330872 537.185608 918.84375 536.698914 916.208618 C 536.27832 913.931641 536.054749 911.602051 535.951538 909.286438 C 535.786621 905.585571 536.808411 901.549927 530.99231 898.809998 C 537.093933 898.278198 535.603271 891.401245 540.261841 890.935059 C 542.8349 892.394165 540.685547 894.759155 541.395447 895.462769 C 543.562134 897.721313 546.612244 896.049988 547.631775 898.982361 C 546.923096 902.28418 540.286194 899.702881 541.354492 905.336609 z" stroke-linecap="round" />
</g>
<g transform="matrix(1 0 0 1 768.39 919.8)"  >
<path style="stroke: none; stroke-width: 1; stroke-dasharray: none; stroke-linecap: butt; stroke-dashoffset: 0; stroke-linejoin: miter; stroke-miterlimit: 4; fill: rgb(0,0,0); fill-rule: nonzero; opacity: 1;" vector-effect="non-scaling-stroke"  transform=" translate(-740.09, -905.65)" d="M 747.092407 900.179199 C 739.446777 901.700073 742.762878 907.460876 742.227234 911.502563 C 741.691467 915.545593 744.609863 916.004944 748.011047 915.439392 C 747.603577 919.876221 744.648926 920.064148 741.985779 920.20813 C 739.151978 920.361267 737.144531 918.869873 736.7995 915.951416 C 736.528442 913.658508 736.718323 911.313293 736.66095 908.992432 C 736.569946 905.317078 737.974731 901.0755 732.160706 899.22821 C 737.752502 898.578552 735.509888 891.05481 741.387695 891.072632 C 742.009399 894.477966 743.32196 897.396484 747.397278 897.891724 C 748.202209 897.989563 748.015259 899.245239 747.092407 900.179199 z" stroke-linecap="round" />
</g>
<g transform="matrix(1 0 0 1 458.76 919.58)"  >
<path style="stroke: none; stroke-width: 1; stroke-dasharray: none; stroke-linecap: butt; stroke-dashoffset: 0; stroke-linejoin: miter; stroke-miterlimit: 4; fill: rgb(0,0,0); fill-rule: nonzero; opacity: 1;" vector-effect="non-scaling-stroke"  transform=" translate(-430.46, -905.42)" d="M 436.469696 919.100586 C 429.924866 921.272522 426.986847 919.272339 426.717773 912.801514 C 426.641876 910.976013 426.600861 909.137939 426.723969 907.317749 C 426.944397 904.059021 426.752106 901.027039 422.222748 899.009155 C 427.429291 897.826111 426.524353 891.759155 431.79776 890.890686 C 431.52298 895.448975 434.357391 897.390564 438.697449 898.701172 C 434.689423 900.758728 431.473236 902.572693 432.16449 907.774475 C 432.735931 912.074829 431.895508 916.499023 438.185486 915.828735 C 438.855621 917.670593 437.659363 918.212036 436.469696 919.100586 z" stroke-linecap="round" />
</g>
<g transform="matrix(1 0 0 1 271 922.44)"  >
<path style="stroke: none; stroke-width: 1; stroke-dasharray: none; stroke-linecap: butt; stroke-dashoffset: 0; stroke-linejoin: miter; stroke-miterlimit: 4; fill: rgb(0,0,0); fill-rule: nonzero; opacity: 1;" vector-effect="non-scaling-stroke"  transform=" translate(-242.71, -908.28)" d="M 237.625854 908.948364 C 237.215958 905.244751 239.221878 901.283997 234.479904 899.477539 C 239.403442 895.854797 241.284256 895.96405 243.138565 899.663635 C 243.410355 899.595032 243.77182 899.613159 243.950989 899.441284 C 245.505936 897.949524 246.915527 896.139832 249.483093 896.958435 C 250.543259 897.296448 251.218338 898.075562 250.937012 899.210388 C 250.332306 901.649597 248.517075 902.19989 246.203033 902.774414 C 242.625443 903.662659 241.707993 912.555359 244.70784 915.743896 C 245.374008 916.451904 246.334564 916.874878 246.579758 918.702576 C 242.856522 920.958496 238.936142 919.035583 234.415573 919.251343 C 236.139633 915.721313 238.650116 913.024475 237.625854 908.948364 z" stroke-linecap="round" />
</g>
<g transform="matrix(1 0 0 1 475.72 922.27)"  >
<path style="stroke: none; stroke-width: 1; stroke-dasharray: none; stroke-linecap: butt; stroke-dashoffset: 0; stroke-linejoin: miter; stroke-miterlimit: 4; fill: rgb(0,0,0); fill-rule: nonzero; opacity: 1;" vector-effect="non-scaling-stroke"  transform=" translate(-447.42, -908.12)" d="M 441.259094 918.589478 C 444.629242 914.331848 443.704529 909.48407 443.968048 904.815308 C 444.116028 902.19342 442.723663 900.582703 440.901184 898.874878 C 443.24942 896.845337 445.703186 896.149109 448.023743 897.210632 C 450.21991 898.215271 449.193665 900.745911 449.308014 902.628906 C 449.448578 904.94397 449.501129 907.287415 449.306213 909.594421 C 449.029816 912.865906 449.542877 915.774414 453.939941 918.389771 C 448.651947 919.653931 445.113342 920.035339 441.259094 918.589478 z" stroke-linecap="round" />
</g>
<g transform="matrix(1 0 0 1 784.31 922.31)"  >
<path style="stroke: none; stroke-width: 1; stroke-dasharray: none; stroke-linecap: butt; stroke-dashoffset: 0; stroke-linejoin: miter; stroke-miterlimit: 4; fill: rgb(0,0,0); fill-rule: nonzero; opacity: 1;" vector-effect="non-scaling-stroke"  transform=" translate(-756.01, -908.15)" d="M 753.579712 910.618103 C 753.418457 906.225708 754.876892 901.780518 749.799744 899.275879 C 752.050049 896.559692 754.772461 896.356079 757.205261 897.178833 C 759.569519 897.978394 758.700928 900.537476 758.692383 902.452942 C 758.684204 904.277039 758.611206 906.103455 758.493713 907.924072 C 758.25 911.699646 758.210571 915.405151 762.214905 918.450623 C 757.737183 919.677551 754.211975 920.049438 750.391357 918.688965 C 751.081055 915.732178 754.629578 914.299561 753.579712 910.618103 z" stroke-linecap="round" />
</g>
<g transform="matrix(1 0 0 1 784.63 904.5)"  >
<path style="stroke: none; stroke-width: 1; stroke-dasharray: none; stroke-linecap: butt; stroke-dashoffset: 0; stroke-linejoin: miter; stroke-miterlimit: 4; fill: rgb(0,0,0); fill-rule: nonzero; opacity: 1;" vector-effect="non-scaling-stroke"  transform=" translate(-756.32, -890.35)" d="M 753.393005 888.469971 C 755.228088 886.408325 757.006531 886.142029 758.712952 887.851868 C 759.84491 888.986145 760.009277 890.503357 759.212585 891.935425 C 758.444946 893.315369 757.149902 894.350342 755.599609 893.841797 C 753.264099 893.075623 752.285339 891.308472 753.393005 888.469971 z" stroke-linecap="round" />
</g>
<g transform="matrix(1 0 0 1 475.4 904.51)"  >
<path style="stroke: none; stroke-width: 1; stroke-dasharray: none; stroke-linecap: butt; stroke-dashoffset: 0; stroke-linejoin: miter; stroke-miterlimit: 4; fill: rgb(0,0,0); fill-rule: nonzero; opacity: 1;" vector-effect="non-scaling-stroke"  transform=" translate(-447.1, -890.36)" d="M 444.764496 887.713257 C 447.112823 886.309143 449.001648 886.429077 450.023132 888.689697 C 450.627319 890.026794 450.556702 891.651245 449.30777 892.815125 C 448.296356 893.757751 447.109344 894.374207 445.74411 893.51532 C 443.526794 892.120422 443.209595 890.237305 444.764496 887.713257 z" stroke-linecap="round" />
</g>
<g transform="matrix(1 0 0 1 540.79 479.8)"  >
<path style="stroke: none; stroke-width: 1; stroke-dasharray: none; stroke-linecap: butt; stroke-dashoffset: 0; stroke-linejoin: miter; stroke-miterlimit: 4; fill: rgb(0,0,0); fill-rule: nonzero; opacity: 1;" vector-effect="non-scaling-stroke"  transform=" translate(-512.49, -465.64)" d="M 457.856995 403.636505 C 466.053619 403.782684 473.200806 406.652832 480.522156 408.657837 C 482.44165 406.051605 482.756531 403.185852 483.667023 400.56366 C 486.883759 391.299652 491.298126 382.813568 499.194122 376.599701 C 508.266937 369.459747 518.738464 370.04834 527.235168 377.962067 C 533.862305 384.134521 538.266052 391.652618 541.202454 400.121216 C 542.116211 402.756378 543.003479 405.400665 543.865601 407.931305 C 547.263855 408.338593 549.823669 406.941772 552.487915 406.146271 C 562.565308 403.13739 572.836914 402.155823 582.99054 404.955292 C 596.44751 408.665588 602.704224 420.828339 598.599976 434.29718 C 595.358154 444.935669 588.759644 453.547577 581.057129 461.22699 C 577.395752 464.877472 577.397766 467.333923 580.802551 471.030701 C 588.38501 479.263611 595.323242 488.0383 598.511658 499.060638 C 603.010986 514.615173 593.411682 527.934387 577.36377 529.469727 C 567.88739 530.376465 558.7677 529.235413 549.833862 526.590515 C 544.8927 525.127625 542.525696 525.7677 540.921875 531.13385 C 538.419861 539.505249 533.811096 546.886047 527.47052 553.054565 C 518.862061 561.429504 508.492554 561.879272 499.142914 554.266113 C 491.172699 547.776123 487.159515 538.780334 484.09436 529.402954 C 482.704224 525.150085 480.951569 524.418945 476.911774 525.740479 C 467.870544 528.698242 458.651062 530.291382 448.979279 529.470886 C 430.787842 527.927734 421.063568 512.885864 427.473053 495.708557 C 431.054077 486.111511 437.365112 478.354309 444.420197 471.266327 C 448.045471 467.624207 447.716187 465.339386 444.387482 461.854523 C 437.815247 454.973907 432.132843 447.350739 428.087189 438.654877 C 419.575989 420.360657 430.150543 403.777344 450.383698 403.633423 C 452.715576 403.616821 455.047638 403.630493 457.856995 403.636505 M 497.958435 490.514313 C 501.89328 493.007019 505.889221 495.409973 509.737335 498.03006 C 511.673096 499.348083 513.27179 499.407043 515.174988 498.049896 C 522.08313 493.123718 529.056335 488.288818 535.989807 483.397919 C 538.623596 481.539978 539.827576 479.105377 539.702148 475.738495 C 539.435852 468.593994 539.708496 461.443573 538.977905 454.295258 C 538.638367 450.972198 537.460815 448.694427 534.610168 447.032288 C 529.0047 443.763916 523.417969 440.454651 517.945923 436.970093 C 515.667175 435.518982 513.687439 435.55484 511.450806 436.825806 C 506.532623 439.620483 501.736786 442.70929 496.591339 445.006866 C 488.613892 448.569 484.7034 454.011322 486.263824 462.942291 C 486.630859 465.042725 486.623505 467.310486 486.27536 469.416504 C 484.655548 479.215851 488.008392 486.239075 497.958435 490.514313 M 453.488525 413.395416 C 452.001404 413.517059 450.48877 413.504547 449.031097 413.781311 C 435.816071 416.290405 431.932129 424.419434 438.291351 436.343018 C 442.394867 444.037109 448.02182 450.607086 453.821747 457.046112 C 455.540253 458.954041 457.058319 459.412476 459.337402 457.734222 C 464.155212 454.186462 469.15683 450.888 474.092224 447.500641 C 475.876587 446.27594 476.602234 444.600525 476.796143 442.448273 C 477.316895 436.668823 477.679474 430.841431 478.758636 425.157166 C 479.568329 420.89212 477.819031 419.122162 474.241791 417.779327 C 467.807373 415.363983 461.152985 414.1091 453.488525 413.395416 M 547.829041 500.960236 C 547.289124 504.561615 546.80603 508.172882 546.184753 511.760162 C 545.884888 513.491638 546.256592 514.878479 547.995361 515.310364 C 558.424377 517.900879 568.806213 521.515625 579.749023 518.398254 C 588.062683 516.029846 591.729553 508.179138 588.186096 500.32663 C 584.03717 491.132599 578.171997 483.134338 570.811157 476.195953 C 568.526184 474.042114 566.753906 474.028503 564.365845 475.991608 C 561.031738 478.732269 557.553284 481.337982 553.919861 483.662659 C 549.995667 486.173401 548.432678 489.687988 548.341431 494.129761 C 548.300476 496.119904 548.165649 498.108124 547.829041 500.960236 M 447.62442 483.121643 C 443.178711 487.929382 439.48999 493.250397 437.00882 499.327057 C 433.165253 508.740204 436.976715 516.088318 446.844757 518.746216 C 454.954712 520.930603 462.674469 518.716187 470.389801 516.781738 C 479.354034 514.534241 479.319641 514.418091 477.867584 505.2258 C 477.73819 504.40686 477.620941 503.559967 477.68457 502.74054 C 478.460236 492.756378 474.888367 485.792236 465.746307 480.474579 C 455.635498 474.593353 456.111633 473.774811 447.62442 483.121643 M 584.132385 440.633514 C 585.221741 438.771271 586.457581 436.978271 587.376099 435.035278 C 592.402222 424.403107 588.792114 416.826935 577.236755 414.240021 C 567.20166 411.993408 557.926697 415.345825 548.749573 418.832336 C 547.190002 419.424805 546.654297 420.557587 546.884338 422.393097 C 547.583618 427.973572 548.435181 433.532776 548.502319 439.199799 C 548.534546 441.912903 549.252625 444.687866 551.923218 446.563232 C 556.403809 449.709656 560.783813 453.018158 565.021667 456.484009 C 567.430481 458.453949 569.191589 458.410553 571.411804 456.198151 C 576.019897 451.606445 580.274841 446.758698 584.132385 440.633514 M 513.870605 382.066437 C 510.349945 381.285522 507.707428 383.151306 505.343658 385.233246 C 497.802856 391.875122 493.940552 400.602051 491.619049 410.160278 C 491.002502 412.698761 492.470337 413.759735 494.420959 414.706238 C 499.80542 417.318787 505.186981 419.941467 510.50174 422.691498 C 512.651733 423.804047 514.574951 423.736053 516.639038 422.60083 C 521.300171 420.037048 525.99762 417.539307 530.679626 415.013519 C 532.207092 414.189453 533.676331 413.180603 533.272095 411.197571 C 530.810608 399.12149 526.523315 388.193817 513.870605 382.066437 M 511.522583 511.525604 C 506.111847 514.070801 500.683563 516.579834 495.301697 519.184692 C 493.811432 519.906006 492.281036 520.772278 492.824188 522.949219 C 495.218811 532.546631 499.390198 541.038635 507.519897 547.179138 C 511.500854 550.186035 515.142029 549.707642 518.752136 546.583252 C 525.106201 541.084167 528.869873 533.950745 531.895874 526.280212 C 533.16748 523.056824 532.170593 521.475525 529.154846 520.089905 C 523.418823 517.454285 517.857544 514.438477 511.522583 511.525604 M 536.572388 506.72821 C 536.585938 503.604523 538.778809 500.497131 536.763245 496.943695 C 532.445312 499.585999 528.376038 501.993408 524.417053 505.874573 C 527.403564 507.239746 529.940613 508.351929 532.43457 509.553406 C 534.77478 510.680786 535.793152 509.471588 536.572388 506.72821 M 488.31601 429.642731 C 488.657349 432.010437 486.575958 434.365906 488.442902 437.200684 C 492.537262 435.138275 496.469513 433.01178 500.081482 429.975372 C 497.854462 427.926849 495.613037 426.874725 493.341248 425.901855 C 490.39267 424.639191 488.475616 425.257141 488.31601 429.642731 M 475.659973 465.058533 C 475.450867 463.694458 476.199066 462.026886 474.206635 461.014282 C 471.325775 462.52182 466.641663 463.542938 467.00528 467.170959 C 467.357391 470.684723 471.59021 472.469269 475.659729 473.792816 C 475.659729 470.79007 475.659729 468.329681 475.659973 465.058533 M 555.157654 469.661255 C 556.440125 468.426849 558.364868 467.838196 559.073792 465.697845 C 557.085388 463.144348 554.919983 460.810547 551.403992 460.08548 C 549.59198 462.879028 550.296082 465.778992 550.379578 468.519257 C 550.488708 472.099731 552.387451 471.776367 555.157654 469.661255 M 495.212372 502.210602 C 493.19931 500.991913 491.451447 499.141632 488.608215 499.242432 C 487.975464 502.668762 488.894165 505.530731 490.06012 508.335846 C 496.669708 507.540863 498.002136 506.146332 495.212372 502.210602 M 535.913025 427.428467 C 533.274475 425.558685 530.735962 425.69101 529.501404 428.788391 C 528.346863 431.684998 530.855347 433.206512 533.094788 433.504578 C 537.95166 434.151001 536.610657 430.655548 535.913025 427.428467 z" stroke-linecap="round" />
</g>
<g transform="matrix(1 0 0 1 410.27 285.37)"  >
<path style="stroke: none; stroke-width: 1; stroke-dasharray: none; stroke-linecap: butt; stroke-dashoffset: 0; stroke-linejoin: miter; stroke-miterlimit: 4; fill: rgb(0,0,0); fill-rule: nonzero; opacity: 1;" vector-effect="non-scaling-stroke"  transform=" translate(-401.97, -271.21)" d="M 415.984283 264.405273 C 414.158234 273.664062 407.614197 279.399353 401.855713 286.032623 C 405.313232 288.710571 409.066467 287.351166 412.509796 287.582916 C 415.216949 287.765045 417.330933 287.817139 417.399231 291.520081 C 417.464935 295.083374 415.703613 295.689117 412.804504 295.693878 C 405.984985 295.705048 399.165833 295.875824 392.346222 295.89859 C 390.408173 295.90509 387.896027 296.363525 387.06839 294.116821 C 386.212372 291.792969 386.24057 289.183105 388.171722 287.069946 C 392.215576 282.644989 396.267365 278.226868 400.266022 273.76123 C 402.725739 271.014252 404.7854 267.989685 406.042114 264.485626 C 406.988464 261.847015 407.068817 259.262299 405.3013 256.892609 C 402.996063 253.802032 399.611328 253.518021 398.120209 256.949585 C 395.694702 262.531433 391.730682 261.603516 387.013611 260.871124 C 386.737396 255.301971 389.51535 251.55217 393.679291 248.87709 C 398.91925 245.510712 404.605072 245.85321 409.800354 248.87619 C 415.506714 252.196609 416.997833 257.701019 415.984283 264.405273 z" stroke-linecap="round" />
</g>
<g transform="matrix(1 0 0 1 497.3 285.83)"  >
<path style="stroke: none; stroke-width: 1; stroke-dasharray: none; stroke-linecap: butt; stroke-dashoffset: 0; stroke-linejoin: miter; stroke-miterlimit: 4; fill: rgb(0,0,0); fill-rule: nonzero; opacity: 1;" vector-effect="non-scaling-stroke"  transform=" translate(-460, -271.67)" d="M 460.653931 270.119232 C 460.653931 266.998596 460.653931 264.355011 460.653931 261.24707 C 457.392365 262.251587 454.635681 265.222046 451.375366 262.262299 C 450.161346 261.160217 449.278168 260.270172 449.971588 258.491516 C 451.53421 254.483261 461.391602 247.660934 465.622589 247.456009 C 468.787079 247.302734 470.238403 248.398712 470.226959 251.658661 C 470.180206 264.947571 470.166534 278.237274 470.276093 291.525604 C 470.307159 295.293945 468.122009 295.870575 465.142914 295.894806 C 462.145538 295.91922 460.547943 294.87616 460.621429 291.525909 C 460.774445 284.55249 460.659058 277.573181 460.653931 270.119232 z" stroke-linecap="round" />
</g>
<g transform="matrix(1 0 0 1 520.41 285.86)"  >
<path style="stroke: none; stroke-width: 1; stroke-dasharray: none; stroke-linecap: butt; stroke-dashoffset: 0; stroke-linejoin: miter; stroke-miterlimit: 4; fill: rgb(0,0,0); fill-rule: nonzero; opacity: 1;" vector-effect="non-scaling-stroke"  transform=" translate(-485.11, -271.7)" d="M 486.760193 295.008179 C 484.810944 286.856873 486.02356 278.886444 485.680817 270.963135 C 485.554749 268.048126 485.660461 265.123077 485.660461 262.486816 C 483.763916 261.857483 483.104309 262.817932 482.254578 263.233307 C 479.12677 264.762299 476.998535 262.626923 475.393036 260.758453 C 473.782745 258.884399 476.039459 257.354004 477.311951 256.317017 C 481.42627 252.964066 484.230927 247.64946 490.617828 247.594879 C 493.899689 247.566833 495.430756 248.477631 495.391205 252.078064 C 495.247162 265.193054 495.389709 278.310913 495.311523 291.427032 C 495.284058 296.032745 493.915588 296.60321 486.760193 295.008179 z" stroke-linecap="round" />
</g>
<g transform="matrix(1 0 0 1 355.45 285.85)"  >
<path style="stroke: none; stroke-width: 1; stroke-dasharray: none; stroke-linecap: butt; stroke-dashoffset: 0; stroke-linejoin: miter; stroke-miterlimit: 4; fill: rgb(0,0,0); fill-rule: nonzero; opacity: 1;" vector-effect="non-scaling-stroke"  transform=" translate(-339.15, -271.69)" d="M 349.339233 269.000458 C 349.335052 276.49826 349.035706 283.512909 349.432983 290.487915 C 349.694489 295.078827 347.372192 295.585754 343.798523 295.780182 C 339.790405 295.99826 339.609772 293.670319 339.62793 290.713562 C 339.681091 282.050079 339.626648 273.385864 339.589905 264.722046 C 339.586517 263.926819 339.408081 263.132294 339.319183 262.40506 C 337.535736 261.743958 336.710449 263.201233 335.519348 263.604187 C 332.745453 264.542542 331.044525 262.509155 329.513733 260.995636 C 327.914673 259.414612 329.576996 257.810577 330.788269 256.812866 C 335.145264 253.224045 338.094543 247.529999 344.940308 247.593292 C 348.142822 247.62291 349.436035 248.788818 349.357605 252.006653 C 349.223663 257.501465 349.332855 263.002228 349.339233 269.000458 z" stroke-linecap="round" />
</g>
<g transform="matrix(1 0 0 1 384.98 285.19)"  >
<path style="stroke: none; stroke-width: 1; stroke-dasharray: none; stroke-linecap: butt; stroke-dashoffset: 0; stroke-linejoin: miter; stroke-miterlimit: 4; fill: rgb(0,0,0); fill-rule: nonzero; opacity: 1;" vector-effect="non-scaling-stroke"  transform=" translate(-369.68, -271.04)" d="M 356.403198 266.825073 C 359.420563 266.352417 362.145966 267.217804 364.567841 266.043823 C 365.501953 264.499268 364.968933 262.973999 364.971924 261.513855 C 364.977753 258.665039 365.631104 256.68222 369.122101 256.676361 C 372.353424 256.670898 374.483551 257.698547 374.123688 261.197906 C 373.651886 265.786163 375.780151 267.122101 379.95575 266.686951 C 383.091522 266.360199 385.461182 266.885559 385.395172 271.079437 C 385.326752 275.424835 382.591522 275.402679 379.655609 275.26059 C 376.218445 275.094208 373.641663 275.597534 374.201904 280.031738 C 374.611023 283.269745 373.846924 285.422729 369.741119 285.404236 C 365.364014 285.384491 364.85318 282.930634 365.010803 279.57193 C 365.064636 278.42511 365.019379 277.273621 365.019379 276.234619 C 361.829926 273.564056 356.45105 277.774414 354.423065 272.611664 C 353.608826 270.538818 353.669525 268.318604 356.403198 266.825073 z" stroke-linecap="round" />
</g>
<g transform="matrix(1 0 0 1 470.3 294.58)"  >
<path style="stroke: none; stroke-width: 1; stroke-dasharray: none; stroke-linecap: butt; stroke-dashoffset: 0; stroke-linejoin: miter; stroke-miterlimit: 4; fill: rgb(0,0,0); fill-rule: nonzero; opacity: 1;" vector-effect="non-scaling-stroke"  transform=" translate(-434.01, -280.42)" d="M 430.12085 285.117859 C 426.180542 284.699951 421.414429 286.537781 421.622375 280.066254 C 421.715302 277.17453 422.763519 275.740662 425.711304 275.753601 C 431.184814 275.777649 436.658875 275.77832 442.132019 275.721008 C 445.399902 275.686798 446.363373 277.40567 446.39679 280.42984 C 446.431427 283.570007 445.128143 285.091888 442.047729 285.114044 C 438.233002 285.14151 434.417908 285.121826 430.12085 285.117859 z" stroke-linecap="round" />
</g>
<g transform="matrix(1 0 0 1 470.48 279.03)"  >
<path style="stroke: none; stroke-width: 1; stroke-dasharray: none; stroke-linecap: butt; stroke-dashoffset: 0; stroke-linejoin: miter; stroke-miterlimit: 4; fill: rgb(0,0,0); fill-rule: nonzero; opacity: 1;" vector-effect="non-scaling-stroke"  transform=" translate(-434.18, -264.88)" d="M 447.34613 264.549011 C 447.646271 268.185333 446.17041 269.45813 442.977661 269.389771 C 437.166351 269.26532 431.349548 269.294189 425.536835 269.380249 C 422.388641 269.426819 420.95752 268.015564 420.961182 264.90686 C 420.964783 261.848206 422.31665 260.293884 425.476135 260.360229 C 431.619415 260.489227 437.764252 260.615112 443.908234 260.605896 C 446.43219 260.602112 447.672546 261.511902 447.34613 264.549011 z" stroke-linecap="round" />
</g>
<g transform="matrix(1 0 0 1 642.8 282.06)"  >
<path style="stroke: none; stroke-width: 1; stroke-dasharray: none; stroke-linecap: butt; stroke-dashoffset: 0; stroke-linejoin: miter; stroke-miterlimit: 4; fill: rgb(0,0,0); fill-rule: nonzero; opacity: 1;" vector-effect="non-scaling-stroke"  transform=" translate(-614.5, -267.91)" d="M 624.000122 223.669205 C 639.821228 223.668976 655.142395 223.6418 670.46344 223.67894 C 679.136414 223.699966 683.329102 227.892197 683.338989 236.534164 C 683.363708 258.183533 683.366333 279.832977 683.335022 301.48233 C 683.32428 308.921906 680.577087 312.035309 673.220703 312.054504 C 632.420288 312.16098 591.619385 312.088501 550.818848 312.15979 C 546.926453 312.166565 545.623474 310.611115 545.643311 306.774292 C 545.764526 283.293671 545.654358 259.81189 545.74231 236.330963 C 545.772827 228.192154 550.375122 223.703461 558.551697 223.682037 C 580.200989 223.625336 601.850586 223.666763 624.000122 223.669205 M 584.5 237.281616 C 578.168701 237.282959 571.828247 237.49057 565.509277 237.212555 C 561.351501 237.029617 559.996155 238.539993 560.038757 242.648819 C 560.209839 259.141785 560.243103 275.639069 560.039673 292.131165 C 559.985474 296.52356 561.413086 297.843781 565.781921 297.82254 C 598.437439 297.663849 631.094543 297.651703 663.75 297.816895 C 668.374329 297.840302 669.798889 296.376465 669.736633 291.806061 C 669.514221 275.480927 669.499268 259.148682 669.745667 242.824265 C 669.813965 238.304321 668.233765 237.202454 663.974609 237.227081 C 637.8172 237.37825 611.658386 237.290131 584.5 237.281616 z" stroke-linecap="round" />
</g>
<g transform="matrix(1 0 0 1 643.62 341.32)"  >
<path style="stroke: none; stroke-width: 1; stroke-dasharray: none; stroke-linecap: butt; stroke-dashoffset: 0; stroke-linejoin: miter; stroke-miterlimit: 4; fill: rgb(0,0,0); fill-rule: nonzero; opacity: 1;" vector-effect="non-scaling-stroke"  transform=" translate(-615.32, -327.16)" d="M 693.40564 325.911438 C 690.600403 332.52533 685.707336 335.328827 679.083679 335.330292 C 636.603271 335.339752 594.122925 335.349091 551.642517 335.311737 C 544.270813 335.305267 539.054382 331.61142 537.141113 325.345184 C 535.605774 320.316528 536.517639 319.002411 541.782104 318.994812 C 559.940247 318.968689 578.098389 318.99295 596.256531 318.994904 C 627.075562 318.99823 657.894653 318.989502 688.713684 319.009796 C 694.502686 319.01358 694.945862 319.666931 693.40564 325.911438 M 598.244019 325.69165 C 597.942688 328.790436 599.526062 329.7117 602.409607 329.673981 C 610.19751 329.572052 617.987732 329.631927 625.776978 329.652985 C 628.35675 329.659943 630.865845 329.861847 630.792419 326.009003 C 630.719849 322.201599 628.176758 322.367035 625.629456 322.427216 C 617.519348 322.618805 609.413574 323.372925 601.297363 322.522186 C 599.575562 322.341675 598.367859 322.959137 598.244019 325.69165 z" stroke-linecap="round" />
</g>
<g transform="matrix(1 0 0 1 540.91 481.07)"  >
<path style="stroke: none; stroke-width: 1; stroke-dasharray: none; stroke-linecap: butt; stroke-dashoffset: 0; stroke-linejoin: miter; stroke-miterlimit: 4; fill: rgb(0,0,0); fill-rule: nonzero; opacity: 1;" vector-effect="non-scaling-stroke"  transform=" translate(-512.62, -466.91)" d="M 524.9646 457.214539 C 529.830017 465.529449 529.030518 473.473236 523.030945 478.867279 C 517.814026 483.557648 509.330994 483.935394 503.627777 479.731262 C 496.2388 474.284454 494.886261 463.462708 500.757294 456.763885 C 507.375336 449.212738 517.303101 449.270355 524.9646 457.214539 z" stroke-linecap="round" />
</g>
<g transform="matrix(1 0 0 1 440.04 279.04)"  >
<path style="stroke: none; stroke-width: 1; stroke-dasharray: none; stroke-linecap: butt; stroke-dashoffset: 0; stroke-linejoin: miter; stroke-miterlimit: 4; fill: rgb(0,0,0); fill-rule: nonzero; opacity: 1;" vector-effect="non-scaling-stroke"  transform=" translate(-434.18, -264.88)" d="M 447.34613 264.549011 C 447.646271 268.185333 446.17041 269.45813 442.977661 269.389771 C 437.166351 269.26532 431.349548 269.294189 425.536835 269.380249 C 422.388641 269.426819 420.95752 268.015564 420.961182 264.90686 C 420.964783 261.848206 422.31665 260.293884 425.476135 260.360229 C 431.619415 260.489227 437.764252 260.615112 443.908234 260.605896 C 446.43219 260.602112 447.672546 261.511902 447.34613 264.549011 z" stroke-linecap="round" />
</g>
<g transform="matrix(1 0 0 1 439.54 294.6)"  >
<path style="stroke: none; stroke-width: 1; stroke-dasharray: none; stroke-linecap: butt; stroke-dashoffset: 0; stroke-linejoin: miter; stroke-miterlimit: 4; fill: rgb(0,0,0); fill-rule: nonzero; opacity: 1;" vector-effect="non-scaling-stroke"  transform=" translate(-434.01, -280.42)" d="M 430.12085 285.117859 C 426.180542 284.699951 421.414429 286.537781 421.622375 280.066254 C 421.715302 277.17453 422.763519 275.740662 425.711304 275.753601 C 431.184814 275.777649 436.658875 275.77832 442.132019 275.721008 C 445.399902 275.686798 446.363373 277.40567 446.39679 280.42984 C 446.431427 283.570007 445.128143 285.091888 442.047729 285.114044 C 438.233002 285.14151 434.417908 285.121826 430.12085 285.117859 z" stroke-linecap="round" />
</g>
</svg>